<?xml version="1.0" standalone="no"?>
<!DOCTYPE svg PUBLIC "-//W3C//DTD SVG 20010904//EN"
 "http://www.w3.org/TR/2001/REC-SVG-20010904/DTD/svg10.dtd">
<svg version="1.0" xmlns="http://www.w3.org/2000/svg"
 width="833.000000pt" height="834.000000pt" viewBox="0 0 833.000000 834.000000"
 preserveAspectRatio="xMidYMid meet">

<g transform="translate(0.000000,834.000000) scale(0.100000,-0.100000)"
fill="#000000" stroke="none">
<path d="M4051 8324 c0 -11 3 -14 6 -6 3 7 2 16 -1 19 -3 4 -6 -2 -5 -13z"/>
<path d="M4061 8164 c0 -11 3 -14 6 -6 3 7 2 16 -1 19 -3 4 -6 -2 -5 -13z"/>
<path d="M978 7939 c-10 -5 -18 -16 -18 -23 0 -7 -9 -21 -21 -32 -14 -12 -18
-25 -14 -41 4 -17 -1 -26 -24 -37 -38 -20 -148 -140 -174 -191 -54 -105 -73
-265 -42 -352 33 -92 79 -177 122 -222 l43 -46 0 32 c0 25 -6 36 -27 46 -27
14 -27 15 -4 22 24 7 51 -9 51 -31 0 -8 11 -20 25 -26 14 -6 25 -17 25 -24 0
-7 9 -16 21 -19 15 -5 18 -10 10 -18 -12 -12 -15 -60 -5 -70 4 -4 20 3 37 15
25 18 29 19 24 5 -3 -9 -2 -19 3 -22 6 -4 10 -1 10 4 0 11 34 10 45 -1 4 -3
24 -4 46 -1 35 5 39 4 32 -13 -7 -18 -6 -18 11 -2 9 10 28 21 42 24 13 3 24
12 24 20 0 8 6 11 17 7 10 -4 14 -2 10 4 -6 10 19 28 35 25 7 -2 5 17 -3 33
-10 19 -2 87 11 95 11 7 11 14 3 32 -7 16 -8 30 -1 41 13 23 28 21 28 -4 0
-28 18 -59 35 -59 7 0 16 -8 18 -17 4 -15 6 -15 12 5 9 27 13 27 32 5 13 -16
14 -16 10 -2 -7 20 20 62 36 56 12 -4 57 44 57 62 0 6 4 11 9 11 6 0 6 -12 0
-32 -6 -22 -5 -34 3 -39 6 -4 8 -15 4 -24 -6 -17 -8 -17 -25 -1 -18 16 -18 16
-18 -9 0 -17 4 -24 12 -21 13 5 31 -41 20 -52 -3 -3 -5 1 -5 8 0 11 -3 11 -12
2 -10 -10 -10 -15 2 -22 8 -5 10 -10 4 -10 -7 0 -15 -11 -18 -24 -8 -32 -34
-41 -57 -20 -11 10 -19 12 -19 6 0 -7 4 -12 8 -12 4 0 8 -9 8 -20 0 -11 -6
-20 -13 -20 -7 0 -13 -4 -13 -9 0 -5 14 -4 30 2 17 6 30 16 30 22 0 6 16 19
36 30 109 59 194 230 194 395 0 140 -43 248 -139 353 l-55 59 -14 -29 c-17
-34 -42 -63 -53 -63 -5 0 -6 8 -3 18 2 9 -1 7 -8 -6 -9 -18 -18 -22 -37 -19
-14 3 -34 1 -44 -5 -29 -15 -76 0 -83 28 -3 13 -9 24 -13 24 -12 -1 -41 -27
-35 -32 3 -3 6 -20 6 -37 1 -17 5 -28 10 -25 5 4 16 -3 24 -15 11 -15 26 -21
56 -21 28 0 39 -4 35 -12 -2 -7 -1 -23 4 -35 6 -18 16 -23 44 -23 34 0 35 -1
35 -40 0 -43 26 -80 57 -80 13 0 11 -6 -10 -28 -28 -29 -35 -52 -16 -52 6 0 8
7 4 18 -3 10 10 2 32 -18 21 -19 40 -37 43 -39 3 -2 -8 -1 -25 3 -26 6 -28 5
-10 -6 22 -13 45 -34 45 -41 0 -3 -9 -7 -20 -10 -11 -3 -20 -12 -20 -21 0 -9
-10 -27 -21 -39 l-21 -22 7 25 c4 14 11 26 16 28 4 2 5 10 2 18 -3 7 2 17 11
20 22 9 20 23 -3 17 -21 -5 -37 23 -21 42 7 8 5 12 -5 12 -8 0 -12 -4 -9 -9 3
-4 -10 2 -29 15 -19 12 -33 25 -30 30 2 4 0 7 -6 7 -5 0 -12 -6 -14 -12 -3 -8
-6 -7 -6 4 -1 9 4 20 9 23 6 3 10 11 10 16 0 6 -5 7 -12 3 -8 -5 -9 -2 -5 9 5
13 1 17 -15 17 -17 0 -18 3 -8 14 6 8 18 12 26 9 21 -8 18 30 -4 50 -20 19
-37 23 -27 7 3 -6 -1 -7 -10 -3 -12 4 -13 8 -4 13 8 6 5 11 -11 20 -12 6 -24
9 -28 6 -3 -3 0 -6 6 -6 7 0 12 -4 12 -10 0 -15 -40 -12 -40 3 -1 6 -7 1 -14
-12 -8 -14 -16 -19 -20 -13 -3 6 0 13 6 16 7 3 1 4 -13 1 -18 -3 -29 0 -33 11
-4 11 -10 12 -25 4 -25 -13 -41 -13 -21 0 12 8 12 10 -5 11 -16 1 -14 2 6 9
15 4 41 6 58 4 19 -2 31 1 31 8 0 7 6 3 14 -8 8 -10 17 -16 21 -13 3 4 -5 18
-18 31 -13 13 -26 29 -28 35 -2 6 -11 13 -19 15 -20 4 -20 -35 0 -44 9 -4 -2
-7 -25 -7 -49 -1 -68 -12 -59 -34 3 -10 1 -17 -5 -17 -10 0 -15 14 -12 33 0 4
-4 7 -10 7 -6 0 -8 -9 -4 -20 7 -23 -10 -28 -19 -5 -3 8 -11 15 -18 15 -9 0
-9 -3 0 -12 16 -16 15 -31 0 -25 -7 2 -28 -2 -46 -10 -18 -7 -37 -11 -42 -8
-6 4 -10 2 -10 -3 0 -5 -9 -12 -20 -15 -11 -3 -20 -2 -20 3 0 8 38 23 53 21 4
-1 7 10 7 24 0 14 4 25 9 25 5 0 8 11 5 25 -3 18 0 25 11 25 9 0 13 5 10 10
-4 6 -10 8 -15 5 -4 -3 -11 2 -14 10 -3 9 1 18 9 20 8 3 23 8 33 12 30 12 72
13 72 2 0 -5 -4 -8 -9 -4 -5 3 -13 0 -16 -6 -4 -5 -12 -8 -19 -6 -6 3 -17 -2
-25 -10 -12 -13 -10 -14 18 -8 35 7 38 4 15 -19 -17 -18 -7 -21 16 -6 8 5 11
10 5 10 -5 0 1 6 15 14 14 7 30 10 35 6 19 -13 55 -9 55 6 0 8 5 14 10 14 6 0
1 9 -10 20 -11 11 -28 20 -38 20 -10 0 -23 5 -29 11 -8 8 -13 8 -17 0 -4 -6
-14 -11 -23 -11 -12 0 -14 10 -12 44 2 24 1 42 -3 39 -5 -2 -8 -17 -8 -32 0
-15 -6 -36 -14 -46 -14 -19 -14 -19 -36 0 -18 16 -23 17 -31 5 -8 -12 -10 -10
-6 7 3 13 1 25 -3 28 -5 3 -10 -6 -12 -20 -2 -14 -7 -27 -13 -28 -15 -3 -18
122 -4 139 9 11 8 14 -5 14 -9 0 -16 5 -16 10 0 13 23 13 36 0 7 -7 19 -8 37
-1 19 7 27 7 27 0 0 -6 5 -7 10 -4 17 10 50 -5 50 -23 0 -14 2 -14 9 -3 5 8
16 11 25 8 9 -4 16 -2 16 4 0 6 5 7 12 3 7 -4 8 -3 4 5 -12 19 56 9 78 -11 24
-22 36 -23 36 -2 0 8 5 12 10 9 6 -3 10 0 10 7 1 8 7 5 16 -7 11 -14 13 -32 9
-62 -4 -25 -2 -43 3 -43 5 0 12 19 16 42 4 23 12 48 17 54 13 16 39 7 39 -15
0 -10 3 -12 8 -5 4 6 28 11 54 10 39 -2 48 1 52 18 10 35 7 45 -15 57 -21 11
-70 3 -119 -20 -8 -4 -35 -3 -60 2 -25 4 -63 11 -85 14 -22 3 -46 10 -53 15
-7 6 -30 8 -52 4 -31 -5 -40 -3 -40 8 0 26 -67 36 -102 15z m15 -16 c-16 -6
-17 -39 -3 -46 6 -3 5 -4 -2 -3 -7 1 -14 15 -16 29 -3 21 1 27 15 26 10 0 13
-3 6 -6z m75 -5 c-6 -18 -28 -21 -28 -4 0 9 7 16 16 16 9 0 14 -5 12 -12z m92
-19 c0 -5 -4 -7 -10 -4 -5 3 -10 -3 -10 -13 0 -21 -17 -32 -37 -25 -21 7 -15
33 10 43 30 12 47 12 47 -1z m326 -7 c15 -10 14 -42 -2 -42 -6 0 -14 9 -17 20
-3 11 -11 20 -19 20 -10 0 -10 -2 1 -9 23 -15 5 -41 -29 -41 -38 0 -40 24 -2
43 31 17 52 20 68 9z m-231 -13 c12 -18 -2 -20 -36 -5 l-34 14 32 1 c17 1 35
-4 38 -10z m85 -19 c0 -5 -4 -10 -9 -10 -6 0 -13 5 -16 10 -3 6 1 10 9 10 9 0
16 -4 16 -10z m-90 -149 c0 -6 -4 -13 -10 -16 -5 -3 -10 1 -10 9 0 9 5 16 10
16 6 0 10 -4 10 -9z m-50 -45 c0 -11 -19 -15 -25 -6 -3 5 1 10 9 10 9 0 16 -2
16 -4z m-216 -100 c-3 -9 -13 -16 -21 -16 -9 0 -13 -6 -10 -14 4 -9 -2 -17
-14 -21 -10 -4 -19 -11 -19 -16 0 -5 -4 -9 -9 -9 -6 0 -9 8 -9 18 0 9 -1 23
-3 30 -2 8 11 19 34 27 21 7 41 16 44 19 10 10 14 0 7 -18z m136 -56 c0 -5 -2
-10 -4 -10 -3 0 -8 5 -11 10 -3 6 -1 10 4 10 6 0 11 -4 11 -10z m205 -20 c3
-5 1 -10 -4 -10 -6 0 -11 5 -11 10 0 6 2 10 4 10 3 0 8 -4 11 -10z m-405 -15
c0 -2 -10 -9 -22 -15 -22 -11 -22 -10 -4 4 21 17 26 19 26 11z m90 -25 c0 -5
-5 -10 -11 -10 -5 0 -7 5 -4 10 3 6 8 10 11 10 2 0 4 -4 4 -10z m-88 -18 c-7
-2 -10 -8 -6 -13 3 -5 -4 -9 -15 -9 -11 0 -23 5 -26 10 -3 6 1 10 9 10 9 0 16
4 16 10 0 5 8 6 17 3 11 -4 13 -8 5 -11z m-39 -53 c-4 -4 -21 4 -37 18 -23 19
-26 27 -16 33 16 10 66 -38 53 -51z m325 19 c-2 -8 7 -13 22 -13 17 0 26 7 31
25 7 21 8 20 6 -10 l-2 -35 -90 -2 c-49 -1 -103 -6 -118 -12 -25 -10 -29 -8
-36 12 -11 28 -4 45 20 52 19 6 44 -10 47 -30 4 -21 36 -9 43 15 4 14 7 21 8
17 1 -5 11 -1 22 7 19 13 24 13 36 1 7 -8 12 -20 11 -27z m92 32 c0 -5 -2 -10
-4 -10 -3 0 -8 5 -11 10 -3 6 -1 10 4 10 6 0 11 -4 11 -10z m-296 -55 c3 -8 1
-15 -3 -15 -5 0 -11 7 -15 15 -3 8 -1 15 3 15 5 0 11 -7 15 -15z m319 -15 c-6
-24 -28 -26 -37 -4 -5 14 -4 15 8 5 11 -9 15 -8 20 4 8 22 15 18 9 -5z m187
-2 c0 -6 -6 -5 -15 2 -8 7 -15 14 -15 16 0 2 7 1 15 -2 8 -4 15 -11 15 -16z
m-573 -10 c-3 -8 -6 -5 -6 6 -1 11 2 17 5 13 3 -3 4 -12 1 -19z m-47 -7 c0 -5
-7 -17 -16 -25 -8 -9 -11 -16 -4 -16 6 0 2 -9 -8 -20 -14 -15 -25 -18 -41 -12
l-22 8 24 13 c14 7 31 24 38 37 12 24 29 32 29 15z m122 -9 c-7 -2 -10 -7 -8
-11 7 -10 -32 -7 -41 4 -5 4 -3 5 3 2 7 -4 17 0 24 8 7 8 17 12 23 8 8 -5 7
-8 -1 -11z m68 8 c0 -5 -8 -10 -17 -10 -15 0 -16 2 -3 10 19 12 20 12 20 0z
m229 -17 c-4 -22 3 -24 23 -7 l22 19 -18 -30 c-10 -16 -27 -39 -37 -50 -10
-11 -22 -32 -28 -47 -12 -32 -27 -37 -27 -9 0 11 4 17 8 15 4 -3 8 4 8 16 l0
21 -22 -21 c-12 -11 -27 -19 -32 -19 -24 3 -33 -2 -33 -16 0 -9 10 -15 26 -16
26 -1 25 -1 -4 -10 -23 -7 -33 -5 -48 12 -10 10 -22 17 -28 14 -5 -4 -9 1 -9
9 0 11 10 15 35 14 19 -1 38 2 43 7 4 4 -3 5 -15 2 -13 -3 -23 -2 -23 3 0 15
39 18 44 3 5 -12 9 -11 24 6 9 11 26 22 37 24 35 5 46 16 35 37 -13 25 -13 30
5 30 8 0 14 -3 14 -7z m-55 -18 c-6 -16 -24 -21 -24 -7 0 11 11 22 21 22 5 0
6 -7 3 -15z m-197 -9 c-3 -7 0 -19 6 -25 8 -8 8 -11 0 -11 -6 0 -14 6 -16 13
-3 6 -3 -3 0 -20 4 -24 2 -33 -8 -33 -9 -1 -8 -5 5 -15 26 -20 47 -19 39 1 -3
9 0 20 8 25 9 6 10 9 2 9 -6 0 -11 9 -10 19 1 12 6 17 16 13 11 -4 13 -1 7 14
-6 16 -5 17 6 6 11 -11 10 -16 -4 -26 -12 -8 -14 -16 -7 -23 6 -6 6 -19 1 -34
-10 -28 -4 -62 9 -53 5 3 7 10 4 15 -10 16 5 10 27 -11 12 -11 19 -23 15 -26
-4 -4 -2 -13 4 -21 9 -9 8 -17 -1 -28 -6 -8 -9 -18 -6 -24 8 -12 -22 -43 -34
-36 -5 3 -25 6 -45 7 -23 1 -35 6 -35 16 0 7 -9 16 -20 19 -11 3 -17 9 -14 14
3 5 0 9 -5 9 -6 0 -11 7 -11 16 0 11 -6 14 -20 9 -12 -4 -20 -2 -20 5 0 6 5 8
11 5 6 -4 10 -1 8 6 -3 27 1 39 15 39 10 0 13 -8 10 -25 -5 -31 1 -31 36 -1
l28 23 -24 14 c-14 7 -22 19 -19 26 3 9 0 12 -8 8 -6 -4 -3 1 8 10 20 16 20
16 0 13 -11 -2 -25 -7 -31 -11 -7 -4 -17 0 -24 8 -11 13 -10 20 0 41 8 13 16
21 19 16 18 -26 81 -17 65 9 -3 5 0 9 6 9 7 0 10 -6 7 -14z m373 -48 c0 -25
-26 -34 -45 -14 -9 9 -12 16 -6 16 5 0 13 9 16 21 5 16 10 18 21 8 8 -6 14
-20 14 -31z m-493 -8 c-3 -11 -1 -23 4 -26 5 -3 9 -10 9 -16 0 -7 -6 -6 -15 2
-17 14 -20 60 -4 60 6 0 9 -9 6 -20z m383 -21 c0 -11 5 -17 10 -14 6 3 10 1
10 -5 0 -7 -7 -9 -16 -6 -9 4 -23 1 -30 -5 -17 -14 -18 -1 -4 36 11 29 30 25
30 -6z m65 -41 c-13 -15 -25 -33 -28 -40 -4 -10 -8 -10 -16 2 -7 11 -7 16 2
20 7 3 13 12 13 20 0 8 4 23 8 32 6 14 11 15 26 6 18 -11 17 -13 -5 -40z
m-385 10 c0 -11 -12 -10 -30 2 -12 7 -10 9 8 7 12 0 22 -5 22 -9z m-93 -39
c-4 -15 0 -23 13 -26 10 -3 20 -14 23 -24 3 -11 1 -19 -5 -17 -5 2 -9 8 -8 13
1 5 -8 12 -19 17 -20 7 -28 37 -14 51 12 12 15 7 10 -14z m497 -2 c-6 -18 -34
-31 -34 -17 0 6 5 10 11 10 5 0 7 5 3 12 -4 7 -3 8 4 4 7 -4 12 -2 12 5 0 7 2
10 5 7 3 -3 3 -12 -1 -21z m-209 -27 c3 -5 2 -10 -4 -10 -5 0 -13 5 -16 10 -3
6 -2 10 4 10 5 0 13 -4 16 -10z m-167 -72 c-3 -7 -13 -14 -24 -15 -10 -2 -13
0 -6 3 6 3 10 10 6 15 -3 5 2 9 11 9 9 0 15 -6 13 -12z m192 -19 c0 -14 -17
-10 -23 5 -4 10 -1 13 9 9 7 -3 14 -9 14 -14z m-102 -24 c6 6 32 -14 32 -25 0
-4 -21 -4 -47 0 -27 5 -49 4 -51 0 -4 -9 -51 0 -58 11 -3 5 5 9 18 9 13 0 29
4 37 9 9 6 24 5 39 0 14 -5 27 -7 30 -4z m32 -68 c0 -8 -3 -8 -9 1 -7 11 -9
11 -14 -2 -7 -17 -57 -22 -57 -6 0 6 11 10 24 10 14 0 28 5 31 10 8 13 25 3
25 -13z m41 -2 c0 -5 -5 -11 -13 -13 -10 -3 -10 -1 1 6 11 8 10 11 -5 15 -16
5 -16 6 -1 4 10 -1 18 -6 18 -12z"/>
<path d="M965 7269 c-4 -6 -5 -12 -2 -15 2 -3 7 2 10 11 7 17 1 20 -8 4z"/>
<path d="M998 7833 c7 -3 16 -2 19 1 4 3 -2 6 -13 5 -11 0 -14 -3 -6 -6z"/>
<path d="M1170 7819 c-13 -9 -12 -10 3 -5 9 3 17 1 17 -4 0 -6 -5 -10 -11 -10
-5 0 -7 -5 -3 -11 4 -8 9 -7 15 2 8 12 11 11 19 -1 13 -20 13 -4 0 21 -12 22
-19 23 -40 8z"/>
<path d="M1142 7790 c0 -14 2 -19 5 -12 2 6 2 18 0 25 -3 6 -5 1 -5 -13z"/>
<path d="M1040 7751 c0 -6 4 -13 10 -16 6 -3 7 1 4 9 -7 18 -14 21 -14 7z"/>
<path d="M4336 7703 c-6 -14 -5 -15 5 -6 7 7 10 15 7 18 -3 3 -9 -2 -12 -12z"/>
<path d="M1130 7600 c-13 -8 -12 -10 3 -10 9 0 17 5 17 10 0 12 -1 12 -20 0z"/>
<path d="M1020 7580 c0 -5 5 -10 11 -10 5 0 7 5 4 10 -3 6 -8 10 -11 10 -2 0
-4 -4 -4 -10z"/>
<path d="M5306 7554 c-3 -9 -6 -24 -6 -34 0 -9 -7 -23 -15 -30 -8 -7 -15 -21
-15 -32 0 -11 -10 -34 -22 -51 -36 -50 -48 -77 -48 -109 0 -62 -42 -105 -96
-99 -15 1 -29 -9 -45 -31 -13 -18 -24 -37 -24 -43 -1 -5 -5 -27 -9 -48 -6 -26
-5 -42 3 -50 6 -6 11 -25 11 -43 l0 -32 -35 11 c-30 9 -39 8 -52 -5 -13 -14
-14 -24 -5 -58 9 -36 8 -41 -6 -38 -10 2 -18 15 -20 31 -2 16 -10 31 -18 34
-20 7 -18 19 9 46 19 18 28 21 41 12 13 -8 20 -6 32 9 20 28 18 32 -18 49 -18
9 -41 29 -51 46 -21 36 -40 41 -35 9 2 -19 -2 -23 -27 -25 -16 0 -36 -2 -43
-2 -10 -1 -12 -15 -8 -56 3 -30 1 -57 -4 -60 -6 -3 -10 -16 -10 -29 0 -29 -10
-39 -26 -25 -7 6 -27 13 -43 15 -26 4 -31 2 -31 -15 0 -15 7 -21 23 -21 22 -1
21 -1 -5 -25 -27 -23 -27 -25 -16 -79 7 -35 16 -56 24 -56 8 0 14 3 14 8 0 4
9 13 20 20 17 11 23 10 37 -4 16 -16 16 -16 -2 -11 -12 4 -29 -2 -44 -14 -22
-18 -24 -24 -14 -50 18 -48 8 -59 -52 -59 -30 0 -57 5 -60 11 -12 18 4 23 30
9 30 -16 36 -12 28 18 -3 12 -13 22 -23 22 -10 0 -28 9 -41 20 -20 17 -22 21
-9 29 8 6 25 8 37 4 17 -4 23 -1 23 11 0 13 -13 15 -82 13 -45 -1 -83 -7 -85
-12 -1 -6 11 -18 27 -27 17 -9 30 -22 30 -28 0 -13 -17 -13 -25 0 -5 9 -28 20
-98 49 -15 6 -44 11 -63 11 -19 0 -48 7 -64 15 -16 8 -31 11 -34 6 -7 -11 3
-41 14 -41 4 0 30 -23 59 -50 29 -28 66 -57 82 -65 17 -9 29 -24 29 -35 0 -24
13 -26 30 -5 16 19 30 19 30 1 0 -7 9 -16 21 -19 12 -3 18 -10 15 -16 -4 -5 5
-26 19 -46 13 -21 22 -41 19 -46 -3 -5 2 -16 10 -25 31 -30 16 -45 -18 -19
-29 22 -36 19 -36 -14 0 -27 -2 -29 -35 -26 -31 3 -34 1 -25 -14 5 -10 21 -26
35 -35 17 -11 25 -25 25 -46 0 -17 -3 -30 -8 -30 -14 0 -111 90 -117 109 -7
23 -54 46 -68 32 -9 -9 -14 -39 -16 -98 -1 -18 -41 -16 -41 1 0 8 -7 17 -16
20 -10 4 -14 15 -12 33 4 32 -21 44 -29 14 -3 -11 -13 -23 -23 -26 -28 -9 -31
-43 -8 -104 35 -92 38 -118 18 -136 -13 -12 -23 -13 -44 -6 -30 12 -33 5 -9
-21 15 -16 15 -21 3 -28 -8 -5 -18 -6 -22 -4 -14 9 -9 -30 7 -52 8 -12 11 -24
8 -28 -3 -3 2 -15 12 -26 13 -14 15 -24 8 -31 -7 -7 -34 2 -88 32 -73 39 -80
41 -137 35 -33 -3 -64 -9 -69 -12 -6 -3 9 -26 31 -51 23 -24 39 -47 36 -50 -3
-3 18 -25 46 -48 27 -24 57 -53 65 -64 8 -12 21 -21 29 -21 8 0 14 -7 14 -16
0 -11 -5 -14 -16 -10 -9 3 -24 6 -34 6 -12 0 -17 7 -16 22 1 17 -7 24 -32 32
-19 5 -40 20 -49 32 -8 13 -21 20 -29 17 -12 -4 -12 -8 0 -25 8 -11 12 -26 9
-34 -3 -8 2 -17 11 -20 9 -3 14 -10 11 -14 -3 -5 12 -18 32 -31 55 -32 83 -60
83 -81 0 -21 -25 -24 -33 -4 -9 23 -59 30 -74 11 -11 -16 -14 -16 -42 5 -17
12 -31 29 -31 38 -1 15 -2 15 -11 -1 -6 -9 -8 -26 -4 -36 8 -25 -12 -74 -28
-68 -6 2 -22 1 -33 -4 -32 -11 -64 0 -64 23 0 10 -5 16 -10 13 -6 -4 -8 -10
-5 -15 3 -4 -1 -10 -9 -13 -8 -3 -17 -19 -21 -36 -8 -39 -14 -42 -77 -43 -29
0 -57 -4 -63 -8 -18 -13 -93 -18 -104 -7 -8 8 -18 4 -37 -14 -19 -18 -24 -30
-19 -49 11 -41 7 -120 -6 -136 -10 -13 -14 -12 -29 4 -10 10 -23 28 -29 40
-10 19 -19 22 -66 20 -34 -1 -55 -7 -55 -14 0 -15 -23 -24 -60 -24 -36 0 -45
-13 -29 -42 9 -17 9 -24 -5 -33 -26 -20 -19 -50 24 -94 28 -29 40 -50 40 -70
0 -33 30 -61 67 -61 12 0 25 -4 28 -10 4 -6 -32 -10 -100 -10 -81 0 -106 3
-103 13 3 6 14 13 26 15 12 2 20 7 17 12 -3 5 -1 11 5 15 5 3 10 11 10 18 0 8
-3 8 -12 -1 -7 -7 -20 -12 -30 -12 -10 0 -18 -5 -18 -12 0 -17 -11 -3 -14 18
-2 14 -13 19 -42 21 -33 2 -36 1 -23 -10 9 -6 23 -27 33 -44 9 -18 21 -33 27
-33 6 0 34 -16 63 -35 29 -19 57 -35 63 -35 5 0 22 -14 38 -30 21 -21 36 -29
50 -26 13 3 31 -4 51 -22 43 -39 69 -52 106 -52 18 -1 44 -7 58 -15 14 -8 36
-14 49 -15 18 0 22 4 18 19 -5 22 18 19 26 -3 3 -7 24 -16 47 -20 l42 -7 -33
-22 c-37 -25 -50 -63 -25 -73 9 -3 16 -12 16 -20 0 -17 5 -17 29 -2 15 9 27 8
58 -4 21 -9 46 -19 56 -22 26 -8 20 -23 -9 -23 -15 -1 -30 -7 -35 -14 -5 -8
-24 -13 -47 -13 -37 1 -38 0 -34 -27 4 -28 22 -52 22 -30 0 6 5 11 10 11 6 0
10 -7 10 -15 0 -8 -4 -15 -10 -15 -5 0 -10 -6 -10 -12 0 -7 -4 -20 -9 -27 -8
-13 -13 -12 -28 6 -10 11 -34 26 -53 33 -19 7 -41 20 -48 29 -10 13 -14 13
-21 3 -4 -7 -30 -19 -57 -26 -56 -14 -63 -34 -21 -54 27 -13 28 -15 13 -37
-22 -33 -20 -36 9 -29 24 6 25 4 20 -18 -5 -19 -1 -27 19 -36 32 -14 33 -28 4
-36 -54 -14 -68 -8 -68 28 0 19 -5 36 -12 38 -23 8 -70 -5 -76 -21 -3 -9 -12
-22 -19 -29 -14 -14 -9 -32 8 -32 5 0 14 11 20 24 18 38 39 21 39 -30 0 -24 5
-44 10 -44 6 0 10 -10 10 -22 0 -12 12 -35 27 -50 19 -20 24 -31 16 -39 -13
-13 -53 9 -53 28 0 7 -11 15 -24 19 -14 3 -27 12 -30 20 -3 8 -15 14 -26 14
-24 0 -95 -34 -105 -50 -4 -6 -18 -15 -31 -20 -35 -14 -40 -37 -14 -60 28 -24
62 -27 54 -5 -5 13 -3 13 21 1 20 -10 36 -11 61 -4 24 6 40 6 48 -2 10 -8 22
-6 45 5 17 8 44 22 61 30 37 18 38 7 3 -27 -39 -36 -65 -48 -115 -52 -24 -2
-63 -9 -88 -16 -24 -6 -54 -9 -66 -6 -13 4 -29 0 -38 -9 -8 -8 -24 -15 -35
-15 -14 0 -21 -6 -21 -19 0 -14 -13 -21 -61 -31 l-61 -13 6 -44 c6 -45 -6 -57
-32 -31 -22 22 -26 -2 -4 -25 16 -17 19 -26 11 -34 -16 -16 -64 3 -84 33 -15
23 -55 34 -55 16 0 -5 13 -27 29 -50 17 -22 33 -57 37 -77 6 -32 9 -36 30 -31
29 8 32 -2 3 -12 l-20 -8 20 -26 c27 -33 26 -38 -2 -38 -33 0 -39 -10 -22 -36
9 -14 11 -25 5 -29 -6 -3 -10 -13 -10 -22 0 -11 8 -14 34 -11 30 3 32 2 22
-14 -6 -10 -15 -18 -21 -18 -5 0 -21 -9 -34 -19 l-24 -18 22 -22 c19 -19 20
-22 4 -19 -10 2 -21 8 -25 13 -4 6 -8 -1 -8 -16 0 -23 3 -25 43 -24 50 2 126
34 127 53 0 17 49 15 56 -3 4 -8 -6 -31 -21 -51 -19 -25 -25 -42 -21 -59 7
-29 -9 -42 -30 -24 -13 10 -17 10 -25 -2 -13 -21 -11 -27 13 -31 34 -5 32 -24
-5 -41 -45 -22 -57 -38 -60 -81 -2 -24 -12 -42 -31 -57 l-27 -21 25 -33 c23
-30 24 -33 8 -48 -15 -16 -15 -17 0 -17 9 0 20 5 23 10 14 23 34 9 37 -27 3
-36 5 -38 38 -38 31 0 35 -3 32 -24 -3 -33 15 -53 38 -41 27 14 30 13 30 -15
0 -18 -5 -25 -19 -25 -11 0 -22 4 -25 9 -3 4 -17 6 -31 3 -20 -3 -25 0 -25 17
0 23 -20 27 -50 11 -15 -8 -21 -6 -29 7 -9 17 -11 16 -30 -1 -12 -11 -21 -31
-21 -48 0 -16 -6 -31 -15 -34 -8 -4 -15 -10 -15 -16 0 -13 41 1 66 23 26 24
49 24 74 -1 11 -11 31 -20 45 -20 33 0 95 26 95 39 0 6 9 11 20 11 20 0 20 0
-1 21 l-20 20 25 20 c15 12 34 18 44 15 22 -7 68 31 74 60 2 13 13 20 35 22
17 2 37 9 43 17 6 8 17 12 25 9 7 -3 18 7 26 25 16 36 26 40 105 46 83 6 124
24 131 57 6 32 24 49 66 63 21 7 34 20 41 42 13 38 27 53 52 57 11 1 25 15 32
30 8 15 21 30 30 33 10 4 20 10 23 15 11 16 39 -4 39 -28 0 -17 8 -27 26 -34
35 -14 36 -13 29 10 -7 21 -8 21 75 20 65 0 143 -22 169 -46 14 -13 32 -24 39
-24 10 0 9 -7 -2 -34 -13 -32 -13 -34 5 -39 18 -5 19 -8 7 -26 -11 -18 -10
-24 13 -47 l26 -26 7 42 c3 23 4 45 1 50 -3 5 -1 19 6 31 9 17 8 23 -2 30 -11
8 -10 12 6 25 11 8 32 18 48 21 15 3 27 9 27 14 0 5 7 6 15 3 9 -4 26 5 43 22
l27 29 3 -27 c2 -14 10 -32 18 -38 25 -22 17 -40 -15 -34 -36 7 -92 -24 -68
-38 9 -5 26 -2 43 7 27 13 30 13 49 -5 16 -17 18 -23 7 -40 -15 -25 -15 -55
-1 -82 10 -19 9 -20 -7 -13 -39 16 -61 16 -77 0 -26 -25 -20 -35 18 -35 28 0
36 -4 41 -24 3 -14 3 -34 -1 -45 -3 -12 -2 -21 4 -21 24 0 184 24 381 57 118
20 231 36 250 35 19 0 73 8 120 18 47 10 123 24 170 30 47 6 97 13 112 16 l27
5 -24 27 c-29 31 -31 40 -10 48 8 4 15 12 15 20 0 22 25 16 39 -9 11 -21 71
-63 71 -49 0 4 -14 25 -30 46 -41 54 -39 66 9 66 31 0 44 -6 60 -26 12 -15 21
-32 21 -39 0 -23 47 -57 76 -53 27 3 41 29 26 52 -8 14 -3 58 10 73 5 7 7 21
3 32 -5 16 -2 20 17 19 13 -1 28 -5 35 -10 14 -11 11 -65 -5 -95 -7 -12 -12
-30 -12 -39 0 -14 8 -10 35 17 85 84 84 84 122 64 20 -11 33 -26 33 -38 0 -16
5 -18 26 -13 15 4 39 10 55 13 16 3 29 10 29 16 0 6 -3 7 -6 4 -4 -3 -26 5
-51 19 -36 22 -46 24 -59 13 -13 -11 -14 -9 -9 12 10 39 -45 106 -94 114 -22
3 -47 13 -58 20 -27 21 -81 19 -85 -2 -2 -10 1 -26 6 -35 17 -28 -4 -35 -24
-8 -13 18 -22 22 -30 14 -7 -7 -3 -14 15 -24 31 -17 33 -40 2 -40 -35 0 -57
30 -55 76 1 21 -2 54 -7 71 -8 35 -7 35 48 47 40 9 72 43 56 62 -6 8 -16 14
-22 14 -6 0 -28 16 -48 36 -36 35 -40 36 -77 27 l-39 -10 16 28 c15 26 15 32
-2 77 -22 63 -21 72 2 72 20 0 31 -18 31 -53 0 -12 7 -30 15 -41 15 -19 31
-15 53 16 8 10 33 28 58 39 24 12 44 27 44 35 0 19 5 18 47 -11 27 -18 40 -22
50 -14 7 7 27 9 48 5 38 -7 58 -26 27 -26 -17 0 -52 -28 -52 -43 0 -3 19 -6
43 -5 50 1 73 -4 89 -20 7 -7 29 -12 50 -12 24 0 40 -6 46 -17 6 -10 16 -14
26 -10 9 4 16 2 16 -3 0 -6 19 -10 42 -10 36 0 40 2 28 13 -8 7 -40 19 -70 27
-30 7 -68 21 -85 31 -16 11 -47 19 -67 19 -26 0 -38 4 -38 14 0 8 6 16 13 19
8 3 6 9 -8 20 -18 14 -18 16 -3 22 9 4 26 1 38 -5 18 -10 31 -8 71 11 47 23
60 41 39 54 -5 3 -10 15 -10 26 0 19 13 24 55 21 20 -2 20 -2 1 13 -11 8 -24
15 -29 15 -14 0 -36 32 -37 53 0 12 8 17 25 17 14 0 35 9 47 20 12 11 29 20
38 20 8 0 23 9 33 20 16 19 16 20 -3 20 -32 0 -23 25 15 43 34 16 35 18 28 62
-6 44 -5 47 42 91 27 25 54 43 62 40 8 -3 17 4 23 18 10 28 38 40 56 25 11 -9
14 -8 14 6 0 17 1 17 19 1 30 -27 47 -9 20 20 l-22 24 21 0 c12 0 22 3 22 8 0
18 -33 52 -50 52 -10 0 -22 5 -25 10 -11 18 -79 44 -109 41 -20 -2 -27 1 -24
11 3 7 18 13 34 14 16 1 36 4 45 8 10 4 20 3 24 -3 12 -21 56 -11 80 17 17 19
24 39 24 67 0 35 -1 38 -13 23 -7 -10 -16 -18 -20 -18 -10 0 -7 40 4 41 6 1
16 2 23 3 6 0 12 9 12 19 0 10 8 25 18 32 17 12 17 14 -4 28 -14 11 -20 22
-16 36 10 38 -35 52 -166 51 -20 0 -30 7 -39 26 -10 21 -17 25 -40 20 -21 -4
-28 -2 -28 9 0 8 5 15 10 15 6 0 10 11 10 24 0 14 10 30 25 40 39 26 47 49 30
89 -8 19 -12 37 -9 40 12 12 -9 47 -62 101 -30 32 -60 55 -67 53 -7 -3 -24 6
-38 20 -27 25 -82 36 -176 37 -45 0 -57 10 -23 19 25 6 26 35 3 53 -10 7 -15
15 -12 18 8 8 69 -14 69 -25 0 -5 6 -9 14 -9 7 0 19 -7 26 -15 17 -21 64 -20
56 0 -3 9 3 24 13 34 10 10 21 25 25 32 3 8 4 4 2 -8 -2 -13 0 -26 5 -29 5 -3
9 -18 9 -35 0 -16 4 -29 8 -29 14 0 52 45 52 63 0 24 21 32 35 14 20 -27 28
-20 22 19 -3 20 -1 44 5 54 17 27 3 53 -26 46 -18 -4 -28 0 -40 18 -14 22 -18
23 -41 13 -21 -10 -24 -17 -20 -37 11 -42 10 -45 -7 -44 -10 1 -18 -2 -18 -7
0 -16 -18 -10 -25 8 -4 12 1 24 14 35 26 20 26 24 4 32 -10 3 -29 13 -43 21
-14 8 -44 15 -67 15 -54 0 -58 23 -12 63 37 32 35 32 42 8 6 -24 70 -24 75 0
4 23 -46 52 -85 51 -18 -1 -33 3 -33 9 0 5 -6 9 -13 7 -6 -2 -26 7 -43 19 -20
14 -39 20 -53 16 -15 -4 -28 1 -41 15 -17 17 -25 19 -52 11 -46 -13 -46 -12
-9 15 18 14 38 23 44 20 7 -2 21 9 32 25 10 16 23 28 27 25 7 -5 58 64 58 79
0 4 10 21 21 36 25 34 20 47 -23 56 -17 4 -40 17 -50 29 -19 23 -24 66 -8 66
6 0 10 13 10 30 0 17 7 33 18 39 16 9 16 10 0 16 -13 5 -16 14 -12 30 8 32
-12 40 -51 20 -40 -22 -65 -14 -65 20 0 25 -14 33 -25 15 -4 -6 -16 -8 -28 -4
-33 9 -97 55 -97 68 0 7 -9 22 -20 34 -23 24 -27 40 -7 23 8 -6 17 -8 21 -4 4
4 9 -3 13 -15 3 -12 11 -22 18 -22 8 0 21 -3 29 -6 11 -4 15 -2 11 7 -3 8 10
24 30 38 41 28 44 45 10 67 -14 9 -25 25 -25 35 0 34 -22 69 -45 69 -20 0 -65
37 -65 53 0 14 96 -6 116 -24 11 -11 30 -19 41 -19 12 0 29 -8 39 -17 9 -10
22 -18 28 -19 6 0 17 -2 24 -2 7 -1 10 -7 7 -13 -5 -7 -25 -8 -57 -4 l-49 7
26 -26 c14 -14 32 -26 40 -26 8 0 16 -4 19 -9 11 -17 56 2 81 34 14 19 25 36
25 38 0 3 -19 15 -43 26 -24 12 -53 30 -65 41 -11 11 -26 20 -31 20 -6 0 -19
17 -30 38 -15 30 -38 48 -106 86 -80 46 -85 50 -70 66 11 12 13 20 6 25 -17
10 -13 22 19 55 24 24 30 38 28 70 -1 21 5 46 12 55 31 38 -62 64 -102 28 -17
-15 -19 -15 -36 0 -10 10 -27 17 -38 17 -30 0 -45 19 -33 42 14 26 2 112 -21
156 -11 20 -20 44 -20 53 0 9 -10 29 -22 44 -18 24 -26 26 -60 21 -34 -6 -38
-4 -38 14 0 11 7 31 15 44 9 13 13 31 9 40 -6 15 -8 15 -24 1 -32 -29 -79 6
-80 59 0 5 8 2 18 -7 44 -40 57 -2 20 57 -25 38 -42 45 -52 20z m84 -219 c0
-8 -4 -15 -10 -15 -5 0 -10 7 -10 15 0 8 5 15 10 15 6 0 10 -7 10 -15z m-9
-25 c16 -1 18 -35 3 -57 -17 -27 -14 -35 14 -38 59 -5 82 -17 82 -41 0 -13 -4
-24 -10 -24 -5 0 -10 6 -10 14 0 16 -89 28 -104 15 -6 -5 4 -25 23 -49 26 -33
31 -46 26 -70 -5 -25 -12 -30 -35 -30 -19 0 -33 8 -44 25 -20 31 -33 31 -63 3
-22 -21 -23 -21 -23 -2 0 11 13 33 29 48 17 16 31 42 34 63 5 30 2 39 -18 55
-24 19 -35 74 -18 91 3 4 29 5 57 2 28 -2 54 -4 57 -5z m-141 -85 c0 -2 -9
-19 -20 -37 -11 -18 -20 -42 -20 -52 0 -11 -7 -27 -15 -37 -13 -13 -20 -54
-25 -131 0 -5 -9 -8 -20 -8 -13 0 -20 -7 -20 -20 0 -24 -32 -27 -50 -5 -10 12
-10 18 0 30 10 12 9 15 -4 15 -31 0 -6 18 34 25 32 5 40 11 40 28 2 92 10 117
47 156 35 36 53 49 53 36z m290 -100 c7 -9 10 -18 7 -22 -8 -7 -37 15 -37 28
0 14 16 11 30 -6z m-690 -97 c0 -16 -3 -19 -11 -11 -6 6 -8 16 -5 22 11 17 16
13 16 -11z m766 -85 c13 -16 24 -38 24 -50 0 -12 5 -25 10 -28 15 -10 12 -45
-5 -45 -8 0 -17 14 -21 35 -3 19 -12 39 -20 46 -8 6 -14 17 -14 25 0 7 -7 20
-16 28 -14 15 -14 16 2 16 9 0 27 -12 40 -27z m-451 -33 c3 -5 1 -10 -4 -10
-6 0 -11 5 -11 10 0 6 2 10 4 10 3 0 8 -4 11 -10z m140 -3 c10 -8 15 -19 11
-25 -11 -18 -53 -14 -60 4 -13 33 16 45 49 21z m-509 -53 c-3 -9 -6 -22 -6
-30 0 -22 -17 -16 -23 8 -4 13 -1 26 6 30 20 13 30 9 23 -8z m55 -131 c13 -15
12 -15 -8 -4 -24 12 -29 21 -14 21 5 0 15 -7 22 -17z m-251 -53 c0 -5 -7 -10
-15 -10 -8 0 -15 5 -15 10 0 6 7 10 15 10 8 0 15 -4 15 -10z m140 -92 c0 -12
-3 -18 -7 -14 -11 10 -12 36 -2 36 5 0 9 -10 9 -22z m-33 -100 c-4 -23 -4 -23
-14 2 -8 18 -8 29 1 39 9 12 11 12 14 -2 2 -9 2 -27 -1 -39z m326 -75 c-5 -14
-9 -13 -25 7 -25 31 -22 43 6 24 16 -10 23 -21 19 -31z m77 16 c0 -22 -13 -25
-29 -6 -8 10 -7 17 1 25 15 15 28 6 28 -19z m712 -54 c0 -5 -5 -11 -11 -13 -6
-2 -11 4 -11 13 0 9 5 15 11 13 6 -2 11 -8 11 -13z m-812 -9 c0 -3 -4 -8 -10
-11 -5 -3 -10 -1 -10 4 0 6 5 11 10 11 6 0 10 -2 10 -4z m-260 -114 c0 -5 -9
-17 -20 -27 -16 -14 -20 -15 -20 -4 0 16 19 39 32 39 4 0 8 -4 8 -8z m-139
-22 c17 -10 28 -40 14 -40 -14 0 -65 32 -65 40 0 13 26 13 51 0z m13 -91 c19
-9 29 -9 40 0 12 10 17 9 27 -7 7 -11 18 -18 24 -15 7 2 19 -3 28 -11 18 -18
37 -21 37 -6 0 6 9 10 20 10 19 0 19 -1 -2 -55 -22 -59 -19 -85 10 -85 11 0
25 -6 31 -14 13 -15 32 -14 124 5 46 10 60 10 70 0 9 -10 6 -11 -15 -6 -23 6
-28 4 -28 -11 0 -20 -53 -70 -84 -80 -14 -5 -24 0 -34 15 -18 27 -72 30 -72 3
0 -10 12 -29 28 -43 15 -14 34 -38 43 -54 8 -17 27 -36 42 -42 15 -7 39 -18
53 -25 21 -10 31 -9 56 5 16 9 38 17 49 17 17 0 18 5 13 42 -4 23 -3 39 2 37
5 -3 21 -11 36 -18 56 -29 35 -101 -30 -101 -21 0 -45 -8 -56 -18 -50 -44
-124 -53 -111 -13 7 22 -72 111 -99 111 -9 0 -20 10 -25 23 -13 33 -57 54 -81
39 -11 -7 -29 -12 -41 -12 -23 0 -79 -36 -79 -51 0 -5 11 -9 24 -9 19 0 26 -7
31 -30 4 -17 17 -43 29 -58 40 -48 80 -126 68 -130 -7 -2 -22 -12 -34 -21 -20
-17 -21 -22 -11 -57 13 -46 7 -100 -13 -108 -17 -6 -44 3 -44 15 0 5 -14 16
-31 24 -29 15 -32 15 -45 -2 -13 -17 -15 -17 -25 0 -5 9 -15 17 -20 17 -11 0
-48 40 -49 51 0 4 11 9 25 11 18 4 31 -3 50 -24 l26 -29 26 21 c14 11 32 20
39 20 8 0 16 16 20 40 4 22 10 40 15 40 4 0 7 19 6 41 -1 37 -5 43 -34 55 -17
8 -39 11 -47 8 -9 -3 -16 -1 -16 5 0 6 6 11 14 11 27 0 29 38 3 72 -19 26 -23
42 -20 71 6 45 13 50 71 51 41 1 46 4 55 30 8 23 6 37 -8 62 -17 31 -17 33 9
70 14 21 26 44 26 50 0 15 -31 21 -92 19 -49 -2 -88 22 -73 44 8 14 18 14 49
0z m1220 -23 c15 -13 26 -27 26 -31 0 -5 7 -16 15 -25 9 -10 13 -24 9 -33 -7
-19 -34 -11 -34 11 0 9 -16 30 -36 48 -20 18 -33 38 -29 44 10 15 22 12 49
-14z m-1294 -36 c0 -5 -4 -10 -10 -10 -5 0 -10 5 -10 10 0 6 5 10 10 10 6 0
10 -4 10 -10z m420 -30 c0 -5 -5 -10 -11 -10 -5 0 -7 5 -4 10 3 6 8 10 11 10
2 0 4 -4 4 -10z m-410 -55 c0 -8 -7 -15 -15 -15 -9 0 -12 6 -9 15 4 8 10 15
15 15 5 0 9 -7 9 -15z m-195 -97 c8 -51 -5 -65 -25 -29 -11 22 -14 84 -3 95
10 10 20 -13 28 -66z m1525 35 c0 -20 -3 -24 -11 -16 -7 7 -9 19 -6 27 10 24
17 19 17 -11z m-1180 -173 c0 -5 -4 -10 -9 -10 -6 0 -13 5 -16 10 -3 6 1 10 9
10 9 0 16 -4 16 -10z m629 -2 c31 -7 53 -18 56 -28 3 -9 16 -22 28 -29 31 -16
28 -46 -9 -103 -32 -48 -44 -52 -44 -14 0 15 -14 29 -44 46 -38 20 -49 22 -70
12 -21 -9 -29 -8 -48 8 -13 11 -19 19 -14 20 5 0 3 7 -4 15 -16 20 1 41 40 50
16 3 31 13 34 21 7 17 11 17 75 2z m226 -98 c4 -6 -7 -10 -27 -9 -31 1 -32 1
-8 9 14 4 26 8 27 9 1 1 5 -3 8 -9z m401 -37 c-10 -10 -19 5 -10 18 6 11 8 11
12 0 2 -7 1 -15 -2 -18z m-16 -114 c0 -17 -35 8 -50 35 -7 14 -17 26 -22 26
-4 0 -8 8 -8 17 0 12 12 4 40 -26 22 -23 40 -47 40 -52z m-1410 15 c0 -21 -4
-24 -41 -24 -22 0 -49 -5 -59 -10 -16 -8 -18 -8 -14 5 4 8 16 15 28 15 13 0
34 10 47 23 28 27 39 25 39 -9z m1010 32 c0 -3 -4 -8 -10 -11 -5 -3 -10 -1
-10 4 0 6 5 11 10 11 6 0 10 -2 10 -4z m473 -16 c-3 -11 -7 -20 -9 -20 -2 0
-4 9 -4 20 0 11 4 20 9 20 5 0 7 -9 4 -20z m-868 0 c-3 -5 -10 -10 -16 -10 -5
0 -9 5 -9 10 0 6 7 10 16 10 8 0 12 -4 9 -10z m-230 -21 c5 -5 -1 -9 -17 -9
-14 0 -32 7 -39 17 -13 15 -11 16 16 9 17 -4 34 -12 40 -17z m-535 -24 c-7 -9
-15 -13 -17 -11 -7 7 7 26 19 26 6 0 6 -6 -2 -15z m681 2 c-1 -12 -15 -9 -19
4 -3 6 1 10 8 8 6 -3 11 -8 11 -12z m-51 -22 c18 -22 5 -30 -19 -13 -12 8 -18
18 -14 21 10 11 19 8 33 -8z m1075 -15 c3 -5 2 -10 -4 -10 -5 0 -13 5 -16 10
-3 6 -2 10 4 10 5 0 13 -4 16 -10z m-1171 -9 c3 -4 -3 -16 -13 -25 -17 -15
-19 -16 -25 -1 -3 9 -6 21 -6 26 0 11 37 12 44 0z m352 -126 c17 -16 14 -18
-10 -9 -9 3 -16 10 -16 15 0 13 9 11 26 -6z m-402 -110 c30 -59 27 -88 -5 -59
-10 9 -19 29 -19 44 0 15 -7 33 -15 40 -19 16 -19 30 -1 30 7 0 26 -25 40 -55z
m522 28 c-10 -10 -19 5 -10 18 6 11 8 11 12 0 2 -7 1 -15 -2 -18z m-1852 -44
c-10 -16 -24 -9 -24 12 0 18 2 19 15 9 8 -7 12 -16 9 -21z m1846 16 c0 -8 -4
-15 -10 -15 -5 0 -10 7 -10 15 0 8 5 15 10 15 6 0 10 -7 10 -15z m-1880 -40
c0 -8 25 -42 55 -75 30 -33 55 -69 55 -80 0 -29 -17 -24 -25 8 -9 38 -40 63
-82 67 -38 3 -68 24 -45 32 17 6 15 23 -3 23 -8 0 -15 5 -15 10 0 6 -4 10 -10
10 -5 0 -10 -10 -10 -21 0 -17 -3 -19 -14 -10 -10 8 -16 9 -21 1 -3 -5 -18
-10 -33 -10 l-27 1 30 26 c17 15 31 21 33 14 5 -16 22 -13 22 4 0 11 12 15 45
15 33 0 45 -4 45 -15z m1836 -32 c-10 -10 -19 5 -10 18 6 11 8 11 12 0 2 -7 1
-15 -2 -18z m-49 -13 c1 -11 -1 -20 -5 -20 -15 0 -32 -42 -26 -65 4 -17 13
-25 28 -25 23 0 66 -68 66 -105 0 -28 -43 -47 -67 -29 -14 11 -15 15 -5 22 7
5 10 16 7 25 -11 27 -35 28 -62 1 -18 -18 -28 -22 -33 -14 -8 13 -60 -43 -60
-64 0 -7 -6 -13 -12 -14 -7 -1 -26 -4 -42 -8 -23 -6 -32 -2 -52 22 -13 16 -23
39 -24 51 0 12 -5 25 -10 28 -8 5 -8 11 0 20 8 10 7 16 -6 23 -15 8 -15 12 -3
26 35 41 42 46 74 46 23 0 39 7 49 22 12 16 27 22 61 24 25 1 48 -2 51 -7 8
-13 24 -11 24 3 0 9 38 58 45 58 0 0 1 -9 2 -20z m164 -46 c29 -26 24 -62 -8
-75 -16 -6 -36 -15 -46 -21 -11 -5 -22 -7 -25 -3 -7 7 -11 116 -5 127 5 10 63
-9 84 -28z m729 1 c19 -13 51 -32 71 -42 51 -26 65 -43 78 -89 17 -60 14 -104
-6 -111 -31 -11 -73 -44 -70 -55 1 -6 -3 -12 -9 -15 -7 -2 -9 7 -6 25 3 26 0
30 -26 35 -40 8 -49 35 -15 48 14 5 34 7 43 4 10 -3 21 -2 24 3 6 10 -72 22
-141 22 -32 0 -43 -4 -43 -15 0 -11 11 -15 40 -15 55 0 50 -27 -7 -44 -19 -6
-25 -2 -33 18 -10 29 -20 32 -38 14 -6 -6 -15 -8 -19 -4 -4 4 -1 11 6 16 15 9
8 40 -9 40 -6 0 -8 -4 -5 -10 3 -5 4 -10 0 -10 -3 0 -10 11 -15 25 -5 14 -17
25 -28 25 -21 0 -56 33 -45 43 12 13 46 7 58 -10 19 -26 40 -7 22 21 -13 19
-13 26 0 58 8 19 24 40 36 47 31 15 96 4 137 -24z m-2635 -70 c22 -10 34 -20
28 -22 -16 -6 -17 -35 -1 -51 7 -7 8 -12 2 -12 -17 0 -47 38 -39 49 10 17 -43
33 -66 20 -26 -14 -95 7 -80 24 14 17 110 12 156 -8z m-180 4 c8 -8 -55 -20
-66 -13 -5 3 -9 9 -9 14 0 10 65 8 75 -1z m287 -41 c-6 -6 -21 -7 -33 -3 -23
8 -23 8 -4 15 26 9 50 1 37 -12z m1851 7 c-3 -9 -8 -14 -10 -11 -3 3 -2 9 2
15 9 16 15 13 8 -4z m-813 -70 c0 -8 -6 -18 -13 -22 -8 -4 -17 -16 -20 -26 -5
-13 -13 -16 -27 -12 -11 4 -20 2 -20 -4 0 -6 -11 -11 -25 -11 -21 0 -25 -5
-25 -28 0 -35 9 -45 26 -31 9 7 24 7 51 0 21 -6 50 -13 66 -16 47 -10 29 -23
-30 -22 -107 0 -185 -14 -211 -40 -12 -12 -34 -23 -47 -23 -22 0 -24 3 -19 33
3 17 15 44 25 60 11 15 17 31 14 36 -8 14 42 69 78 86 18 8 53 17 79 19 26 3
55 9 65 15 20 11 33 6 33 -14z m267 -2 c5 3 15 2 23 -4 16 -9 18 -9 -35 -13
-13 -1 -21 -9 -23 -26 -2 -14 -10 -30 -17 -36 -8 -6 -15 -25 -17 -42 -1 -17
-5 -29 -9 -26 -4 2 -21 -8 -38 -22 -37 -31 -40 -23 -6 18 30 36 42 75 26 91
-14 14 -14 27 0 27 14 0 49 39 49 53 0 6 9 2 19 -7 11 -10 24 -16 28 -13z
m533 -4 c0 -20 -15 -26 -25 -9 -9 15 3 43 15 35 5 -3 10 -15 10 -26z m-70 -23
c0 -8 -10 -13 -25 -13 -26 0 -34 12 -12 20 23 10 37 7 37 -7z m-1811 -32 c-19
-6 -42 -15 -51 -18 -10 -3 -18 -14 -18 -25 0 -21 -26 -36 -35 -21 -8 13 -102
13 -110 0 -10 -17 -25 -11 -18 8 11 31 30 38 86 32 63 -7 77 -4 77 16 0 9 11
14 28 14 15 0 34 4 42 9 8 6 18 7 24 4 5 -3 -6 -12 -25 -19z m1924 -5 c23 -41
16 -49 -33 -36 -30 8 -40 16 -40 31 0 16 3 17 12 8 18 -18 28 -15 28 8 0 29
12 25 33 -11z m-1644 -47 c7 -14 5 -21 -11 -31 -22 -13 -26 -15 -100 -25 -32
-5 -48 -4 -48 3 0 6 14 11 31 11 32 0 99 34 99 51 0 16 19 10 29 -9z m1158
-23 c9 -9 7 -20 -5 -45 -18 -38 -10 -54 18 -36 25 15 30 15 30 -2 0 -8 8 -13
18 -11 24 4 58 -33 43 -48 -9 -9 -16 -8 -31 1 -11 6 -33 12 -50 12 -17 0 -33
6 -35 13 -25 72 -25 71 -42 55 -8 -9 -17 -31 -19 -49 -2 -18 -13 -41 -24 -51
-11 -10 -20 -28 -20 -38 0 -26 -20 -25 -53 0 -23 18 -25 24 -16 50 6 16 14 29
17 29 28 -4 35 2 17 14 -13 10 -15 16 -6 21 6 4 9 12 5 17 -3 6 0 9 7 8 21 -4
69 22 69 37 0 7 -6 15 -12 18 -7 3 -3 3 9 1 12 -3 24 -1 28 5 8 13 38 13 52
-1z m488 -47 c-3 -3 -11 0 -18 7 -9 10 -8 11 6 5 10 -3 15 -9 12 -12z m-1008
-28 c-3 -3 -12 -4 -19 -1 -8 3 -5 6 6 6 11 1 17 -2 13 -5z m1003 -23 c0 -10
-30 -24 -37 -17 -3 3 -2 9 2 15 8 13 35 15 35 2z m-510 -21 c0 -5 -7 -10 -15
-10 -8 0 -15 5 -15 10 0 6 7 10 15 10 8 0 15 -4 15 -10z m455 -50 c-3 -5 -11
-10 -16 -10 -6 0 -7 5 -4 10 3 6 11 10 16 10 6 0 7 -4 4 -10z m-450 -20 c3 -5
2 -10 -4 -10 -5 0 -13 5 -16 10 -3 6 -2 10 4 10 5 0 13 -4 16 -10z m-167 -25
c6 -14 16 -25 21 -25 6 0 15 -9 21 -20 9 -17 8 -18 -8 -12 -44 17 -78 54 -67
72 10 16 21 11 33 -15z m606 0 c-4 -15 -2 -25 5 -25 16 0 11 -102 -7 -122 -12
-14 -12 -21 -2 -32 15 -20 -11 -58 -79 -115 -43 -36 -49 -39 -54 -22 -5 21 35
71 58 71 8 0 15 1 15 3 0 1 4 17 9 35 9 28 7 35 -16 56 -23 22 -25 55 -2 41
15 -10 10 22 -6 35 -8 7 -15 19 -15 26 0 17 20 19 21 2 0 -10 2 -10 6 -1 3 10
10 10 25 2 19 -10 20 -9 14 15 -4 15 -2 26 4 26 5 0 10 7 10 15 0 8 5 15 10
15 6 0 8 -11 4 -25z m-1080 6 c7 -11 -20 -22 -37 -15 -8 3 -20 -2 -27 -11 -7
-8 -19 -15 -26 -15 -8 0 -19 -9 -26 -20 -7 -11 -18 -20 -25 -20 -7 0 -16 -6
-20 -13 -11 -19 -63 -31 -63 -15 0 19 31 47 45 42 7 -3 18 3 24 14 21 39 139
80 155 53z m646 -21 c0 -5 -4 -10 -10 -10 -5 0 -10 5 -10 10 0 6 5 10 10 10 6
0 10 -4 10 -10z m245 -50 c3 -5 1 -10 -4 -10 -6 0 -11 5 -11 10 0 6 2 10 4 10
3 0 8 -4 11 -10z m1081 -4 c15 -16 18 -26 6 -26 -4 0 -13 9 -20 20 -14 23 -7
26 14 6z m-2516 -120 c0 -2 -8 -10 -17 -17 -16 -13 -17 -12 -4 4 13 16 21 21
21 13z m-54 -63 c-10 -10 -19 5 -10 18 6 11 8 11 12 0 2 -7 1 -15 -2 -18z
m1150 2 c-3 -9 -11 -13 -16 -10 -8 5 -7 11 1 21 14 18 24 11 15 -11z m-1179
-31 c-3 -3 -12 -4 -19 -1 -8 3 -5 6 6 6 11 1 17 -2 13 -5z m268 -34 c3 -5 -1
-10 -9 -10 -9 0 -16 5 -16 10 0 6 4 10 9 10 6 0 13 -4 16 -10z m1633 -2 c-3
-7 -11 -13 -18 -13 -7 0 -15 6 -17 13 -3 7 4 12 17 12 13 0 20 -5 18 -12z
m-345 -4 c9 -9 -4 -35 -14 -28 -5 3 -9 12 -9 20 0 14 12 19 23 8z m267 -18 c6
-8 17 -13 24 -10 10 4 13 -7 11 -43 -1 -26 -4 -50 -5 -53 -1 -3 -2 -8 -1 -12
0 -5 -3 -8 -8 -8 -12 0 -21 39 -11 45 5 3 -3 25 -17 50 -23 43 -19 62 7 31z
m-1690 -53 c-1 -11 -26 -43 -34 -43 -8 0 -8 35 1 43 9 9 33 9 33 0z m1421 -40
c25 7 34 -9 15 -28 -13 -14 -16 -14 -24 1 -5 9 -12 15 -15 15 -7 -1 -8 0 -6
27 1 15 2 15 6 -1 3 -13 11 -17 24 -14z m-1631 -24 c0 -16 -5 -29 -11 -29 -5
0 -7 5 -4 10 3 6 -4 10 -17 10 -18 0 -20 2 -8 10 8 5 16 14 16 20 3 20 4 21
14 15 6 -3 10 -19 10 -36z m155 21 c4 -6 -5 -10 -20 -10 -15 0 -24 4 -20 10 3
6 12 10 20 10 8 0 17 -4 20 -10z m1632 -52 c-3 -8 -6 -5 -6 6 -1 11 2 17 5 13
3 -3 4 -12 1 -19z m-131 -35 c-13 -14 -25 9 -13 28 12 20 12 20 15 -1 2 -12 1
-24 -2 -27z m219 21 c24 -24 25 -26 8 -49 -28 -38 -39 -30 -39 25 0 28 1 50 2
50 2 0 15 -11 29 -26z m-145 1 c0 -8 -4 -15 -9 -15 -5 0 -11 7 -15 15 -3 9 0
15 9 15 8 0 15 -7 15 -15z m-1840 -31 c0 -12 6 -15 26 -10 17 5 24 3 19 -4 -4
-6 0 -19 9 -29 13 -15 14 -20 4 -29 -24 -19 -66 -2 -77 31 -15 41 -14 57 4 57
8 0 15 -7 15 -16z m2474 -81 c6 -17 3 -23 -8 -23 -12 0 -16 10 -16 38 1 38 10
32 24 -15z m-2450 -19 c9 -3 16 -12 16 -20 0 -17 -26 -8 -34 12 -6 16 -4 17
18 8z m-319 -14 c3 -5 2 -10 -4 -10 -5 0 -13 5 -16 10 -3 6 -2 10 4 10 5 0 13
-4 16 -10z m2758 -16 c9 -10 -4 -34 -19 -34 -8 0 -14 9 -14 20 0 19 19 27 33
14z m60 -25 l22 -21 -25 4 c-14 2 -26 11 -28 21 -5 23 4 22 31 -4z m-643 -41
c0 -9 4 -19 9 -22 5 -3 7 -15 4 -26 -4 -16 1 -21 26 -26 17 -4 32 -13 32 -20
1 -8 2 -27 3 -42 0 -17 15 -44 33 -65 32 -37 32 -37 15 -68 -13 -24 -14 -33
-4 -36 7 -3 19 -18 28 -35 11 -22 20 -28 32 -23 40 17 49 16 66 -10 27 -41 14
-61 -36 -57 -51 5 -66 16 -49 36 9 10 9 16 1 21 -7 4 -14 -2 -17 -13 -6 -26
-30 -36 -37 -16 -7 18 -46 10 -59 -12 -4 -8 -15 -14 -23 -14 -8 0 -12 -4 -9
-10 3 -5 1 -10 -4 -10 -6 0 -12 12 -12 28 -1 17 -3 21 -6 9 -4 -16 -7 -15 -25
8 -24 31 -11 49 42 54 41 3 61 17 54 36 -3 7 2 25 11 39 17 25 17 26 -4 26
-12 0 -31 -11 -43 -25 -12 -14 -28 -23 -35 -21 -7 3 -10 -1 -6 -10 3 -7 0 -14
-7 -14 -6 0 -10 8 -8 18 2 9 10 16 16 15 7 -2 12 8 12 22 0 13 8 29 19 34 11
7 20 26 24 53 7 55 3 60 -33 40 -34 -20 -46 -12 -30 18 10 18 9 24 -6 34 -12
9 -15 20 -10 39 7 30 -5 35 -28 12 -20 -21 -30 -2 -14 27 6 13 11 31 9 41 -2
16 -1 16 33 0 20 -10 36 -26 36 -35z m-1770 10 c0 -12 -1 -19 -3 -17 -1 2 -9
12 -16 22 -12 14 -11 17 3 17 10 0 16 -8 16 -22z m2298 -12 c15 -8 35 -17 45
-20 9 -3 17 -10 17 -17 0 -7 -7 -8 -17 -4 -10 4 -29 8 -42 10 -22 2 -40 20
-41 38 0 10 8 9 38 -7z m-1276 -107 c29 -8 39 -3 32 14 -2 7 7 17 21 23 19 9
27 9 36 -2 6 -8 19 -14 28 -14 31 -1 48 -23 43 -58 -3 -23 -9 -32 -23 -32 -15
0 -18 5 -13 24 4 18 1 27 -14 35 -23 12 -72 -1 -72 -19 0 -6 -7 -18 -15 -26
-8 -8 -11 -22 -8 -30 4 -12 0 -15 -18 -12 -16 2 -25 12 -31 34 -8 32 -44 52
-61 35 -10 -10 2 -42 17 -40 42 5 48 -12 11 -29 -14 -6 -25 -18 -25 -27 0 -8
-9 -15 -19 -15 -11 0 -23 -5 -27 -11 -4 -7 -17 1 -35 20 -24 27 -32 30 -48 21
-22 -11 -18 -40 5 -40 23 0 16 -47 -17 -105 -17 -30 -39 -57 -49 -60 -10 -3
-24 -19 -31 -34 -7 -16 -21 -34 -31 -40 -29 -18 -32 8 -8 63 11 26 20 56 20
66 0 11 9 24 20 30 11 6 20 15 20 21 0 5 8 21 17 36 21 32 26 60 13 68 -16 10
-12 35 5 29 9 -4 15 0 15 10 0 11 9 16 30 16 18 0 33 6 36 15 4 10 14 14 28
10 17 -5 18 -4 6 4 -9 6 -10 11 -3 11 6 0 9 9 5 22 -4 17 -2 20 12 15 10 -4
24 -1 33 9 9 8 22 13 29 10 7 -3 17 0 21 7 5 8 9 1 13 -17 4 -21 12 -32 32
-37z m-852 21 c0 -5 -8 -10 -17 -10 -15 0 -16 2 -3 10 19 12 20 12 20 0z
m1865 0 c3 -5 -1 -10 -9 -10 -9 0 -16 5 -16 10 0 6 4 10 9 10 6 0 13 -4 16
-10z m-710 -11 c4 -6 5 -12 2 -15 -7 -7 -37 7 -37 17 0 13 27 11 35 -2z
m-1237 -18 c3 -8 -1 -12 -9 -9 -7 2 -15 10 -17 17 -3 8 1 12 9 9 7 -2 15 -10
17 -17z m516 4 c-7 -17 -20 -20 -28 -6 -7 10 3 21 20 21 8 0 11 -6 8 -15z
m-444 -15 c0 -5 -7 -10 -15 -10 -8 0 -15 5 -15 10 0 6 7 10 15 10 8 0 15 -4
15 -10z m-825 -16 c26 -17 33 -34 13 -34 -14 0 -48 30 -48 42 0 12 8 10 35 -8z
m778 -15 c5 -17 11 -20 31 -17 21 4 24 3 15 -8 -6 -8 -18 -14 -27 -14 -22 0
-52 30 -45 46 8 20 20 17 26 -7z m582 -81 c11 -10 -56 -58 -81 -58 -19 0 -24
-5 -24 -24 0 -26 23 -51 39 -42 5 4 13 -4 17 -16 5 -16 0 -26 -20 -41 -18 -13
-26 -28 -26 -50 l-1 -32 -13 30 c-7 17 -10 35 -6 40 10 16 11 67 0 80 -5 6 -8
33 -6 61 2 45 5 49 32 55 32 7 81 5 89 -3z m629 2 c28 -10 31 -17 18 -38 -7
-10 -15 -10 -37 -2 -23 9 -26 13 -15 20 10 7 11 10 3 10 -7 0 -13 5 -13 10 0
13 12 13 44 0z m-1911 -96 c-3 -85 -7 -94 -38 -94 -18 0 -25 5 -25 19 0 10 -7
24 -15 31 -27 22 -28 49 -3 70 13 11 17 19 11 20 -7 0 -13 4 -13 9 0 5 14 9
30 9 17 -1 33 2 37 5 14 15 19 -6 16 -69z m2078 42 c10 -20 8 -29 -7 -49 -16
-19 -23 -22 -37 -13 -12 8 -22 8 -37 -2 -11 -6 -24 -12 -28 -12 -9 0 -32 44
-32 60 0 17 27 11 34 -7 5 -12 9 -14 18 -5 7 7 20 12 29 12 9 0 19 9 22 20 7
27 25 25 38 -4z m229 4 c0 -5 -7 -10 -16 -10 -8 0 -12 5 -9 10 3 6 10 10 16
10 5 0 9 -4 9 -10z m-2195 -30 c-3 -5 -11 -10 -16 -10 -6 0 -7 5 -4 10 3 6 11
10 16 10 6 0 7 -4 4 -10z m2052 -49 c7 -11 23 -21 35 -23 42 -6 27 -33 -20
-36 -24 -2 -45 -9 -48 -15 -6 -16 -80 -9 -94 9 -9 10 -7 18 9 35 17 18 23 20
36 9 13 -10 18 -8 36 14 24 31 30 32 46 7z m-1407 -86 c-7 -9 -15 -13 -19 -10
-3 3 1 10 9 15 21 14 24 12 10 -5z m1754 -18 c-1 -9 2 -17 7 -17 19 0 8 -40
-18 -67 l-28 -28 43 -3 c23 -2 42 -5 42 -7 0 -2 -14 -18 -32 -35 -27 -27 -34
-30 -55 -21 -14 7 -26 23 -30 41 -3 17 -10 33 -14 36 -5 3 -9 14 -9 24 0 11
-11 27 -25 36 -14 9 -25 20 -25 24 0 9 108 39 130 36 8 -1 14 -9 14 -19z
m-1136 -4 c2 -9 -7 -13 -27 -13 -17 0 -31 -4 -31 -10 0 -5 -5 -10 -12 -10 -6
0 -1 11 12 25 25 26 50 30 58 8z m767 -3 c4 -6 -5 -10 -19 -10 -14 0 -26 5
-26 10 0 6 9 10 19 10 11 0 23 -4 26 -10z m154 -15 c6 -3 11 -15 11 -27 0 -21
-15 -21 -66 -1 -12 4 -15 3 -10 -5 4 -7 4 -21 1 -33 -9 -28 -43 -21 -69 14
-21 28 -21 28 -1 40 40 24 106 30 134 12z m-1062 -57 c-3 -8 -6 -5 -6 6 -1 11
2 17 5 13 3 -3 4 -12 1 -19z m118 12 c13 11 20 11 40 0 28 -15 35 -46 9 -36
-9 4 -27 0 -40 -9 -31 -20 -51 -10 -52 26 -1 25 2 28 14 18 11 -9 17 -9 29 1z
m-135 -29 c0 -21 -48 -73 -61 -66 -12 8 -11 20 5 60 11 27 19 32 35 28 12 -3
21 -13 21 -22z m-350 9 c0 -5 -4 -10 -10 -10 -5 0 -10 5 -10 10 0 6 5 10 10
10 6 0 10 -4 10 -10z m1500 -29 c0 -6 13 -18 29 -27 29 -17 59 -59 49 -69 -3
-3 -17 -1 -32 5 -25 9 -27 8 -33 -20 -7 -38 -40 -41 -49 -5 -3 13 -15 27 -25
30 -28 9 -42 40 -24 55 8 6 19 9 25 5 7 -4 18 2 26 14 16 22 34 28 34 12z
m-200 -38 c0 -10 5 -25 10 -33 8 -13 11 -13 19 -1 7 11 10 9 16 -8 7 -23 -10
-54 -44 -77 -12 -9 -21 -22 -21 -30 0 -8 -4 -14 -10 -14 -5 0 -10 18 -10 39 0
22 -4 43 -10 46 -5 3 -10 -1 -10 -9 0 -9 -7 -16 -15 -16 -8 0 -15 5 -15 10 0
6 5 10 10 10 6 0 10 6 10 13 0 17 48 87 60 87 6 0 10 -8 10 -17z m-880 -3 c13
-8 13 -10 -2 -10 -9 0 -20 5 -23 10 -8 13 5 13 25 0z m-939 -63 c-8 -8 -11 -5
-11 9 0 27 14 41 18 19 2 -9 -1 -22 -7 -28z m879 -37 c0 -5 -2 -10 -4 -10 -3
0 -8 5 -11 10 -3 6 -1 10 4 10 6 0 11 -4 11 -10z m-990 -40 c0 -11 -4 -20 -10
-20 -5 0 -10 9 -10 20 0 11 5 20 10 20 6 0 10 -9 10 -20z m-50 -44 c0 -14 -8
-18 -62 -30 -41 -9 -36 18 5 32 46 14 57 14 57 -2z m-74 -81 c15 -23 15 -27
-6 -60 -22 -35 -61 -48 -76 -24 -3 6 -17 9 -30 6 -39 -7 -28 19 19 46 24 14
49 33 57 41 16 21 17 20 36 -9z m19 -85 c3 -5 -1 -10 -9 -10 -9 0 -16 5 -16
10 0 6 4 10 9 10 6 0 13 -4 16 -10z"/>
<path d="M5340 7270 c0 -13 5 -20 13 -17 6 2 12 10 12 17 0 7 -6 15 -12 18 -8
2 -13 -5 -13 -18z"/>
<path d="M5106 5014 c-3 -8 -1 -24 4 -35 21 -38 132 -16 117 23 -6 18 -50 29
-68 17 -7 -4 -21 -4 -30 2 -12 6 -19 4 -23 -7z"/>
<path d="M4503 4813 c-20 -7 -15 -20 9 -26 12 -4 26 -1 29 5 14 23 -7 34 -38
21z"/>
<path d="M3178 2893 c7 -3 16 -2 19 1 4 3 -2 6 -13 5 -11 0 -14 -3 -6 -6z"/>
<path d="M1036 7544 c-6 -12 -10 -15 -13 -6 -6 16 -20 15 -20 -2 0 -9 8 -13
20 -10 25 4 30 10 25 25 -3 8 -7 6 -12 -7z"/>
<path d="M7520 7345 c-10 -12 -10 -15 3 -15 8 0 20 7 27 15 10 12 10 15 -3 15
-8 0 -20 -7 -27 -15z"/>
<path d="M6580 7260 c0 -47 3 -60 15 -60 8 0 15 9 15 20 0 13 7 20 20 20 24 0
43 34 35 60 -5 15 -15 20 -46 20 l-39 0 0 -60z m50 25 c0 -8 -4 -15 -10 -15
-5 0 -10 7 -10 15 0 8 5 15 10 15 6 0 10 -7 10 -15z"/>
<path d="M6683 7260 c1 -50 4 -60 19 -60 12 0 18 8 19 23 l0 22 16 -22 c8 -13
24 -23 34 -23 18 0 18 1 4 24 -13 20 -14 29 -5 46 16 30 -3 50 -51 50 l-38 0
2 -60z m57 25 c0 -8 -4 -15 -10 -15 -5 0 -10 7 -10 15 0 8 5 15 10 15 6 0 10
-7 10 -15z"/>
<path d="M6799 7293 c-6 -17 -7 -40 -2 -58 8 -27 13 -30 56 -33 43 -3 47 -1
54 25 16 64 -2 93 -58 93 -34 0 -41 -4 -50 -27z m77 -8 c9 -23 -5 -65 -21 -65
-23 0 -38 36 -25 60 13 24 38 26 46 5z"/>
<path d="M6940 7260 l0 -60 40 0 c44 0 60 18 60 67 0 39 -17 53 -62 53 l-38 0
0 -60z m64 17 c8 -12 8 -22 0 -34 -21 -33 -34 -26 -34 17 0 43 13 50 34 17z"/>
<path d="M7060 7271 c0 -54 15 -73 56 -73 36 0 46 14 52 71 4 42 2 51 -12 51
-11 0 -16 -9 -16 -27 0 -42 -11 -73 -25 -73 -16 0 -25 23 -25 66 0 24 -5 34
-15 34 -11 0 -15 -12 -15 -49z"/>
<path d="M7202 7308 c-16 -16 -15 -83 1 -96 21 -17 77 -19 77 -2 0 6 -11 10
-24 10 -28 0 -41 27 -31 61 5 16 13 20 31 16 16 -3 24 0 24 9 0 18 -61 19 -78
2z"/>
<path d="M7312 7308 c-14 -18 -17 -48 -9 -79 7 -27 34 -39 70 -31 26 5 20 20
-10 24 -25 3 -28 7 -28 38 0 32 3 35 28 35 15 -1 27 5 27 12 0 17 -64 17 -78
1z"/>
<path d="M7410 7260 c0 -47 3 -60 15 -60 12 0 15 13 15 60 0 47 -3 60 -15 60
-12 0 -15 -13 -15 -60z"/>
<path d="M7474 7295 c-17 -27 -12 -73 9 -87 19 -12 72 -9 85 4 7 7 12 28 12
48 0 45 -15 60 -57 60 -24 0 -37 -7 -49 -25z m71 -35 c0 -28 -4 -35 -20 -35
-13 0 -21 8 -23 23 -5 34 5 54 25 50 13 -2 18 -13 18 -38z"/>
<path d="M7605 7310 c-3 -5 -5 -32 -4 -60 2 -41 6 -50 21 -50 14 0 18 8 18 33
l0 32 20 -32 c12 -20 28 -33 40 -33 18 0 20 7 20 60 0 45 -3 60 -14 60 -9 0
-16 -12 -18 -32 l-3 -33 -20 33 c-19 31 -48 42 -60 22z"/>
<path d="M6725 7140 c-3 -5 -4 -34 -3 -65 3 -63 25 -76 30 -17 l3 37 22 -37
c14 -24 30 -38 43 -38 18 0 20 6 20 60 0 47 -3 60 -15 60 -10 0 -15 -10 -15
-32 -1 -32 -1 -32 -16 -13 -41 56 -56 66 -69 45z"/>
<path d="M6874 7098 c-9 -29 -19 -59 -22 -65 -5 -16 20 -17 36 -1 17 17 40 18
46 2 3 -8 12 -14 21 -14 18 0 18 -4 -1 56 -31 92 -55 98 -80 22z"/>
<path d="M7003 7135 c-17 -12 -23 -26 -23 -54 0 -46 14 -61 57 -61 37 0 45 17
12 22 -50 7 -49 74 0 72 15 0 21 4 19 15 -4 22 -38 25 -65 6z"/>
<path d="M7097 7144 c-4 -4 -7 -34 -7 -66 0 -45 3 -58 15 -58 17 0 17 0 20 57
3 42 -14 81 -28 67z"/>
<path d="M7168 7140 c-25 -15 -33 -66 -14 -95 12 -19 25 -25 51 -25 26 0 39 6
51 25 39 60 -26 130 -88 95z m57 -60 c0 -28 -4 -35 -20 -35 -13 0 -21 8 -23
23 -5 34 5 54 25 50 13 -2 18 -13 18 -38z"/>
<path d="M7289 7128 c-2 -40 3 -103 7 -108 10 -9 24 25 21 47 -5 29 9 20 28
-18 9 -17 24 -29 35 -29 18 0 20 7 20 60 0 47 -3 60 -15 60 -10 0 -15 -10 -15
-32 -1 -32 -1 -32 -16 -13 -45 61 -63 70 -65 33z"/>
<path d="M7449 7129 c-6 -12 -15 -34 -19 -48 -4 -14 -11 -34 -15 -43 -5 -14
-2 -18 14 -18 12 0 21 4 21 9 0 15 38 20 44 5 6 -17 136 -20 136 -4 0 10 -3
11 -32 14 -8 0 -15 21 -18 51 -4 36 -9 50 -20 50 -11 0 -16 -16 -20 -60 l-5
-60 -14 40 c-16 49 -38 85 -51 85 -5 0 -14 -10 -21 -21z m31 -39 c0 -5 -5 -10
-11 -10 -5 0 -7 5 -4 10 3 6 8 10 11 10 2 0 4 -4 4 -10z"/>
<path d="M4944 7100 c0 -11 6 -20 12 -20 7 0 10 8 7 20 -3 11 -8 20 -12 20 -4
0 -7 -9 -7 -20z"/>
<path d="M1355 7050 c-4 -6 -11 -8 -16 -5 -5 4 -9 2 -9 -4 0 -25 32 -19 38 7
3 15 -4 16 -13 2z"/>
<path d="M1448 7033 c15 -3 22 -10 18 -19 -3 -8 -1 -14 5 -14 23 0 3 35 -21
37 -24 1 -24 1 -2 -4z"/>
<path d="M4706 7005 c-17 -17 -12 -43 12 -62 22 -18 27 -16 40 11 8 18 7 28
-4 45 -18 25 -27 26 -48 6z"/>
<path d="M1310 6952 c0 -17 16 -23 41 -14 17 7 19 11 9 17 -9 5 -15 4 -18 -4
-3 -9 -7 -9 -18 0 -9 8 -14 8 -14 1z"/>
<path d="M1382 6930 c0 -14 2 -19 5 -12 2 6 2 18 0 25 -3 6 -5 1 -5 -13z"/>
<path d="M1301 6914 c0 -11 3 -14 6 -6 3 7 2 16 -1 19 -3 4 -6 -2 -5 -13z"/>
<path d="M1340 6915 c-8 -9 -8 -15 -2 -15 12 0 26 19 19 26 -2 2 -10 -2 -17
-11z"/>
<path d="M1236 6908 c3 -5 10 -6 15 -3 13 9 11 12 -6 12 -8 0 -12 -4 -9 -9z"/>
<path d="M1270 6907 c0 -3 11 -18 25 -33 23 -24 35 -24 17 1 -10 15 -42 38
-42 32z"/>
<path d="M7433 6875 c-3 -9 -3 -18 -1 -21 3 -3 8 4 11 16 6 23 -1 27 -10 5z"/>
<path d="M1097 6859 c4 -13 8 -18 11 -10 2 7 -1 18 -6 23 -8 8 -9 4 -5 -13z"/>
<path d="M8170 6821 c0 -6 4 -13 10 -16 6 -3 7 1 4 9 -7 18 -14 21 -14 7z"/>
<path d="M7798 6813 c6 -2 18 -2 25 0 6 3 1 5 -13 5 -14 0 -19 -2 -12 -5z"/>
<path d="M4588 6783 c6 -2 18 -2 25 0 6 3 1 5 -13 5 -14 0 -19 -2 -12 -5z"/>
<path d="M4506 6435 c-3 -9 0 -15 9 -15 16 0 20 16 6 24 -5 3 -11 -1 -15 -9z"/>
<path d="M4397 6410 c6 -24 19 -34 33 -25 14 8 -6 45 -24 45 -9 0 -12 -7 -9
-20z"/>
<path d="M4450 6416 c0 -2 7 -9 15 -16 13 -11 14 -10 9 4 -5 14 -24 23 -24 12z"/>
<path d="M7218 6353 c12 -2 32 -2 45 0 12 2 2 4 -23 4 -25 0 -35 -2 -22 -4z"/>
<path d="M5930 6300 c0 -5 5 -10 11 -10 5 0 7 5 4 10 -3 6 -8 10 -11 10 -2 0
-4 -4 -4 -10z"/>
<path d="M5847 6283 c-10 -9 -9 -23 2 -23 5 0 11 7 15 15 5 15 -5 20 -17 8z"/>
<path d="M6968 6213 c7 -3 16 -2 19 1 4 3 -2 6 -13 5 -11 0 -14 -3 -6 -6z"/>
<path d="M3867 6184 c-15 -8 -27 -19 -27 -24 0 -4 19 -28 41 -51 39 -41 42
-42 55 -24 18 25 18 35 -3 51 -17 13 -17 13 0 14 26 0 21 18 -11 34 -24 12
-31 12 -55 0z"/>
<path d="M3981 6114 c-26 -19 -19 -29 28 -39 26 -6 32 -4 27 6 -3 8 -9 22 -12
32 -8 21 -13 21 -43 1z"/>
<path d="M4054 6040 c-30 -12 -38 -28 -23 -46 12 -14 14 -14 25 0 6 9 16 16
20 15 21 -4 35 2 29 11 -3 6 1 10 9 10 8 0 17 4 20 9 7 11 -51 12 -80 1z"/>
<path d="M3810 5915 c0 -8 7 -15 15 -15 8 0 15 7 15 15 0 8 -7 15 -15 15 -8 0
-15 -7 -15 -15z"/>
<path d="M3836 5872 c-2 -4 2 -22 9 -39 10 -23 19 -31 29 -27 21 8 30 42 16
59 -13 16 -46 20 -54 7z"/>
<path d="M3650 5685 c0 -9 -6 -18 -14 -21 -8 -3 -22 -16 -30 -29 -15 -23 -15
-23 17 -18 50 8 67 21 67 51 0 21 -2 24 -10 12 -8 -13 -10 -12 -10 3 0 9 -4
17 -10 17 -5 0 -10 -7 -10 -15z"/>
<path d="M3618 5563 c-10 -3 -18 -8 -19 -11 -8 -66 -2 -78 29 -56 12 8 22 26
22 39 0 27 -7 33 -32 28z"/>
<path d="M3356 5551 c-4 -7 -5 -15 -2 -18 9 -9 19 4 14 18 -4 11 -6 11 -12 0z"/>
<path d="M2948 5033 c7 -3 16 -2 19 1 4 3 -2 6 -13 5 -11 0 -14 -3 -6 -6z"/>
<path d="M3270 4667 c0 -7 9 -18 20 -25 18 -11 20 -10 20 13 0 18 -5 25 -20
25 -11 0 -20 -6 -20 -13z"/>
<path d="M6700 4670 c0 -5 16 -10 35 -10 19 0 35 5 35 10 0 6 -16 10 -35 10
-19 0 -35 -4 -35 -10z"/>
<path d="M3542 4649 c2 -7 10 -15 17 -17 8 -3 12 1 9 9 -2 7 -10 15 -17 17 -8
3 -12 -1 -9 -9z"/>
<path d="M3447 4613 c-12 -11 -8 -23 8 -23 8 0 15 7 15 15 0 16 -12 20 -23 8z"/>
<path d="M3390 4571 c-7 -22 -10 -48 -6 -58 7 -16 9 -16 26 7 28 35 34 59 20
75 -19 23 -26 18 -40 -24z"/>
<path d="M3265 4580 c-3 -5 -3 -10 1 -10 4 0 -3 -11 -16 -25 -13 -14 -30 -25
-38 -25 -18 0 -120 -29 -143 -40 -8 -4 -46 -8 -83 -9 -37 0 -72 -3 -77 -7 -6
-3 -27 -8 -47 -10 -20 -2 -81 -8 -134 -14 -54 -5 -105 -10 -115 -10 -14 0 -15
-2 -4 -9 8 -5 49 -9 92 -9 92 0 116 -6 124 -33 4 -13 15 -19 36 -19 34 0 89
25 89 41 0 18 68 39 130 39 59 0 60 0 60 -29 0 -15 -9 -40 -20 -54 -11 -14
-20 -39 -20 -56 0 -17 -5 -31 -12 -31 -9 0 -9 -3 0 -12 9 -9 16 -7 31 6 12 11
39 19 68 21 50 2 133 25 133 36 0 4 -16 20 -35 36 -20 15 -52 43 -73 60 -33
29 -35 32 -14 33 12 0 31 -9 43 -21 29 -29 63 -22 67 16 2 17 8 34 13 40 15
15 10 51 -12 79 -22 28 -34 32 -44 16z m-340 -170 c3 -5 1 -10 -4 -10 -6 0
-11 5 -11 10 0 6 2 10 4 10 3 0 8 -4 11 -10z"/>
<path d="M6625 4320 c-8 -14 13 -50 30 -50 24 0 27 18 5 40 -23 23 -26 24 -35
10z"/>
<path d="M6500 4240 c0 -5 5 -10 10 -10 6 0 10 5 10 10 0 6 -4 10 -10 10 -5 0
-10 -4 -10 -10z"/>
<path d="M2970 4210 c0 -11 49 -34 56 -27 11 11 -16 36 -37 34 -10 -1 -19 -4
-19 -7z"/>
<path d="M6430 4190 c0 -5 5 -10 10 -10 6 0 10 5 10 10 0 6 -4 10 -10 10 -5 0
-10 -4 -10 -10z"/>
<path d="M2670 4053 c-19 -3 -39 -9 -44 -14 -6 -5 -21 -9 -35 -10 l-26 -1 28
-10 c15 -5 27 -17 27 -25 0 -9 6 -13 15 -9 21 8 19 0 -7 -24 -12 -11 -35 -20
-53 -20 -17 0 -35 -4 -40 -8 -6 -5 -34 -14 -62 -20 -124 -28 -153 -36 -153
-43 0 -15 186 -9 218 7 23 11 36 12 51 5 24 -14 63 -15 43 -2 -10 6 -8 10 10
14 12 4 31 7 41 7 10 0 25 7 33 15 9 8 33 18 55 21 44 7 48 20 24 77 -8 20
-23 37 -37 41 -23 6 -27 6 -88 -1z"/>
<path d="M2826 4038 c8 -29 55 -98 80 -119 29 -25 61 -29 97 -12 42 21 38 16
47 65 6 28 4 48 -3 57 -20 23 -54 31 -86 18 -28 -10 -30 -14 -25 -49 7 -38 -8
-54 -20 -23 -3 8 -13 15 -21 15 -11 0 -15 7 -14 23 5 31 -8 47 -37 47 -22 0
-24 -3 -18 -22z m164 -118 c0 -5 -7 -10 -15 -10 -8 0 -15 5 -15 10 0 6 7 10
15 10 8 0 15 -4 15 -10z"/>
<path d="M2453 4022 c-13 -2 -23 -8 -23 -13 0 -8 67 -3 78 6 6 5 -34 10 -55 7z"/>
<path d="M2390 3930 c0 -6 7 -10 15 -10 8 0 15 2 15 4 0 2 -7 6 -15 10 -8 3
-15 1 -15 -4z"/>
<path d="M5831 3651 c-52 -19 -66 -41 -26 -41 29 0 85 26 85 40 0 17 -15 17
-59 1z"/>
<path d="M5863 3554 c-4 -12 -7 -13 -14 -3 -4 8 -11 10 -15 6 -4 -4 1 -16 11
-27 14 -16 21 -17 39 -8 40 21 43 48 5 48 -11 0 -22 -7 -26 -16z"/>
<path d="M6336 3562 c-11 -11 -6 -32 8 -32 7 0 19 -7 26 -15 16 -20 151 -17
158 3 2 7 -5 12 -17 12 -11 0 -22 4 -25 9 -10 16 -138 36 -150 23z"/>
<path d="M6160 3470 c-9 -17 -8 -26 5 -46 21 -32 38 -21 30 19 -10 44 -21 53
-35 27z"/>
<path d="M2749 3437 c-48 -18 -64 -76 -17 -61 11 3 31 0 44 -7 31 -16 81 5 63
28 -9 10 -8 13 4 13 19 0 31 16 22 30 -4 6 -18 5 -39 -4 -26 -11 -35 -11 -42
-1 -6 9 -16 9 -35 2z"/>
<path d="M6254 3425 c-14 -38 -9 -135 9 -185 11 -30 21 -56 22 -58 7 -9 45 25
45 40 0 9 5 20 11 23 6 4 8 13 5 20 -2 7 -1 16 4 21 4 5 11 30 14 57 6 39 5
47 -8 47 -10 0 -16 9 -16 24 0 21 -4 23 -41 22 -23 0 -43 -5 -45 -11z m67
-148 c-15 -15 -36 6 -27 28 5 15 7 15 22 0 13 -12 14 -19 5 -28z"/>
<path d="M6020 3371 c0 -11 5 -23 10 -26 6 -4 10 5 10 19 0 14 -4 26 -10 26
-5 0 -10 -9 -10 -19z"/>
<path d="M6084 3336 c-14 -10 -18 -26 -18 -57 1 -35 7 -47 30 -66 32 -26 54
-29 72 -11 20 20 13 28 -13 16 -28 -13 -45 -4 -27 14 18 18 15 24 -19 45 l-30
20 32 15 c30 15 31 16 12 27 -15 8 -25 7 -39 -3z"/>
<path d="M2830 3234 c0 -22 2 -25 15 -14 12 10 13 16 4 26 -16 20 -19 18 -19
-12z"/>
<path d="M2940 3250 c0 -17 -83 -91 -96 -86 -10 4 -24 -13 -24 -30 0 -8 38 2
53 14 8 7 21 10 29 7 19 -8 54 33 61 73 5 24 3 32 -8 32 -8 0 -15 -5 -15 -10z"/>
<path d="M2755 3209 c-11 -17 1 -21 15 -4 8 9 8 15 2 15 -6 0 -14 -5 -17 -11z"/>
<path d="M6200 3164 c-13 -34 -13 -34 15 -34 21 0 25 5 25 30 0 38 -26 41 -40
4z"/>
<path d="M2747 3143 c-4 -3 -7 -22 -7 -42 0 -33 1 -34 15 -15 14 18 14 18 15
-5 0 -24 0 -24 15 -5 20 26 19 29 -11 42 -14 7 -22 17 -19 22 7 11 2 13 -8 3z"/>
<path d="M3934 3091 c4 -28 9 -58 12 -66 5 -11 -1 -15 -19 -15 -23 0 -42 -28
-37 -54 4 -22 -12 -56 -25 -56 -11 0 -15 -11 -15 -40 0 -48 -25 -104 -54 -119
-19 -10 -20 -11 -1 -7 11 3 56 10 100 16 293 41 300 43 297 70 -7 55 -24 92
-39 85 -20 -7 -53 22 -53 46 0 10 -8 20 -18 23 -10 3 -26 20 -36 37 -20 34
-74 89 -87 89 -5 0 -9 6 -9 14 0 8 -5 18 -11 22 -9 5 -10 -7 -5 -45z"/>
<path d="M2407 3119 c7 -7 15 -10 18 -7 3 3 -2 9 -12 12 -14 6 -15 5 -6 -5z"/>
<path d="M3792 3113 c-16 -6 -42 -56 -42 -80 0 -11 3 -14 8 -7 4 7 16 13 27
15 22 5 44 54 29 68 -5 5 -15 6 -22 4z"/>
<path d="M2879 3088 c-14 -26 -19 -82 -9 -98 5 -8 12 -7 23 4 8 9 20 16 26 16
6 0 11 16 11 35 0 19 -4 35 -10 35 -5 0 -10 7 -10 15 0 22 -18 18 -31 -7z"/>
<path d="M4458 3069 c-24 -13 -23 -39 1 -39 22 0 45 25 36 40 -8 12 -15 12
-37 -1z"/>
<path d="M4117 3033 c-11 -10 13 -33 34 -33 25 0 24 16 0 30 -23 12 -26 12
-34 3z"/>
<path d="M3710 2984 c0 -13 -7 -30 -16 -38 -8 -9 -12 -21 -8 -27 3 -6 -8 -24
-25 -39 -32 -30 -39 -54 -20 -66 6 -3 16 -1 22 5 6 6 21 11 33 11 25 0 45 21
26 28 -20 6 -13 41 12 57 13 9 27 27 30 41 4 13 11 24 16 24 6 0 10 5 10 11 0
5 -4 8 -9 4 -5 -3 -12 -1 -16 5 -3 5 -17 9 -30 8 -18 -2 -25 -8 -25 -24z"/>
<path d="M4173 2949 c-17 -17 -4 -39 23 -39 26 0 32 18 12 38 -15 15 -21 15
-35 1z"/>
<path d="M4320 2930 c0 -16 5 -30 10 -30 6 0 10 14 10 30 0 17 -4 30 -10 30
-5 0 -10 -13 -10 -30z"/>
<path d="M3477 2924 c-4 -4 0 -18 8 -31 14 -21 14 -24 0 -30 -9 -3 -21 -17
-26 -30 -5 -14 -16 -24 -26 -23 -29 3 -63 -11 -63 -26 0 -8 -4 -14 -10 -14 -5
0 -10 4 -10 10 0 5 -16 -6 -36 -25 -20 -19 -42 -35 -49 -35 -7 0 -15 -6 -18
-14 -3 -8 -18 -17 -34 -20 -15 -2 30 -3 102 -1 125 3 130 4 152 29 17 20 21
34 17 66 -4 35 -2 40 15 40 25 0 38 20 20 31 -11 8 -11 11 4 20 14 8 16 14 6
25 -6 8 -17 14 -24 14 -8 0 -15 5 -17 11 -2 5 -7 7 -11 3z"/>
<path d="M3610 2920 c0 -5 5 -10 10 -10 6 0 10 5 10 10 0 6 -4 10 -10 10 -5 0
-10 -4 -10 -10z"/>
<path d="M4443 2873 c-7 -2 -13 -11 -13 -19 0 -17 1 -17 37 -3 22 8 24 12 13
19 -16 11 -19 11 -37 3z"/>
<path d="M4330 2840 c0 -22 7 -25 29 -11 16 10 6 31 -15 31 -8 0 -14 -9 -14
-20z"/>
<path d="M6480 2798 c0 -9 -4 -19 -8 -22 -10 -6 -298 -66 -317 -66 -8 0 -17
19 -23 53 -5 28 -10 42 -11 30 -1 -27 -17 -30 -25 -5 -3 9 -4 -7 -2 -35 3 -49
1 -53 -19 -53 -24 0 -34 21 -35 75 l-1 30 -10 -25 -10 -25 -15 25 c-13 24 -14
23 -8 -20 3 -25 7 -51 10 -58 2 -7 -2 -15 -9 -17 -18 -6 -320 -35 -324 -31 -2
1 -5 24 -7 50 -4 46 -16 77 -16 41 0 -23 -16 -9 -23 20 -3 11 -5 -10 -6 -46
l-1 -66 -52 -7 c-67 -8 -132 -8 -152 0 -12 4 -16 21 -17 58 -1 39 -3 45 -9 26
l-7 -25 -11 25 c-10 23 -11 22 -11 -17 -2 -76 2 -74 -135 -68 -183 9 -186 10
-186 48 0 21 -7 36 -20 45 -11 7 -20 9 -19 5 1 -5 1 -23 0 -42 l-1 -34 -67 7
c-38 4 -89 9 -115 13 l-48 6 -1 51 c-1 37 -3 44 -8 26 -6 -20 -9 -22 -16 -10
-8 11 -11 5 -15 -25 -5 -39 -6 -40 -40 -37 -19 1 -115 19 -212 39 -153 31
-178 39 -178 55 0 14 -8 18 -35 18 l-35 0 0 -410 0 -410 35 0 35 0 0 386 c0
362 1 385 18 380 34 -10 237 -51 325 -65 26 -5 50 -10 53 -13 3 -3 -15 -34
-39 -69 -54 -79 -92 -175 -101 -255 l-7 -60 70 -18 c73 -19 91 -16 91 13 0 23
35 103 67 154 20 31 29 38 51 35 l27 -3 -3 -118 -3 -118 83 3 83 3 12 55 c7
30 14 120 15 199 l3 144 119 -7 c66 -3 136 -6 157 -6 l37 0 1 -172 c1 -113 -4
-202 -13 -258 -9 -49 -11 -89 -6 -94 4 -4 70 -5 147 -1 l138 7 0 141 c0 157
21 362 39 376 6 5 72 14 146 22 176 17 196 17 193 2 -3 -14 44 -29 55 -18 4 4
2 10 -5 12 -7 2 -9 11 -6 19 7 19 53 19 53 0 0 -17 34 -31 50 -21 8 5 7 11 -1
21 -6 8 -10 17 -7 20 3 3 68 18 144 34 77 15 151 31 167 35 l27 7 -2 -723 -3
-724 -28 -13 c-38 -18 -170 -17 -209 2 -17 9 -37 16 -43 16 -17 0 -68 68 -60
80 4 6 2 9 -3 8 -10 -3 -126 130 -134 154 -3 7 -8 10 -12 7 -6 -6 50 -96 83
-135 5 -7 7 -15 4 -18 -4 -3 -1 -6 6 -6 8 0 11 -6 7 -16 -3 -8 -2 -12 3 -9 5
3 12 1 16 -5 3 -5 1 -10 -5 -10 -6 0 -9 -4 -5 -10 3 -5 12 -7 19 -4 7 3 16 -2
19 -10 4 -11 1 -15 -11 -12 -37 7 -73 26 -67 36 3 5 1 10 -4 10 -6 0 -11 -5
-11 -10 0 -7 -7 -7 -20 0 -12 7 -18 16 -13 23 4 7 0 7 -10 -2 -13 -10 -17 -11
-17 -1 0 7 8 19 18 27 9 8 11 11 3 7 -9 -4 -12 -2 -9 7 3 8 12 14 20 13 28 -2
15 26 -17 36 -52 17 -149 -14 -184 -59 -49 -63 -52 -72 -34 -132 8 -30 19 -63
24 -74 4 -11 9 -29 11 -40 2 -15 22 -26 83 -47 44 -14 94 -27 112 -27 24 -1
36 -8 49 -30 28 -47 56 -57 103 -37 37 17 43 17 137 1 88 -16 102 -22 130 -52
36 -37 61 -41 95 -14 13 10 66 39 117 64 51 25 100 51 108 58 23 19 17 77 -12
106 -22 22 -31 24 -68 19 -43 -7 -92 7 -108 29 -4 5 -8 361 -8 790 l0 780 -35
0 c-27 1 -35 -4 -35 -17z m-900 -231 c-36 -54 -76 -68 -116 -42 -26 17 -64 71
-64 92 0 17 204 23 208 7 2 -6 -11 -32 -28 -57z m-770 53 c24 -15 1 -64 -33
-68 -37 -4 -57 13 -57 49 0 27 3 29 38 29 20 0 44 -4 52 -10z m168 -20 c19 0
22 -4 17 -27 -10 -56 -68 -69 -94 -21 -13 22 -13 29 -1 43 8 10 22 14 34 11
12 -3 31 -6 44 -6z"/>
<path d="M4770 2596 c0 -2 9 -6 20 -9 11 -3 20 -1 20 4 0 5 -9 9 -20 9 -11 0
-20 -2 -20 -4z"/>
<path d="M3543 2762 c10 -10 17 -23 17 -29 0 -16 88 -13 94 3 7 18 -5 24 -58
26 -25 1 -46 6 -46 10 0 4 -5 8 -12 8 -6 0 -4 -7 5 -18z"/>
<path d="M3745 2740 c3 -5 8 -10 11 -10 2 0 4 5 4 10 0 6 -5 10 -11 10 -5 0
-7 -4 -4 -10z"/>
<path d="M6080 2616 c0 -12 28 -25 53 -26 18 0 5 28 -15 34 -33 8 -38 8 -38
-8z"/>
<path d="M5990 2604 c0 -8 7 -15 15 -15 8 -1 20 -2 25 -3 21 -2 8 19 -15 26
-18 4 -25 2 -25 -8z"/>
<path d="M2128 2583 c6 -2 18 -2 25 0 6 3 1 5 -13 5 -14 0 -19 -2 -12 -5z"/>
<path d="M6085 2570 c11 -5 27 -9 35 -9 13 -1 13 0 0 9 -8 5 -24 9 -35 9 l-20
0 20 -9z"/>
<path d="M5990 2560 c8 -5 22 -10 30 -10 13 0 13 1 0 10 -8 5 -22 10 -30 10
-13 0 -13 -1 0 -10z"/>
<path d="M6120 2525 c-16 -19 -3 -40 16 -24 15 13 19 39 5 39 -5 0 -14 -7 -21
-15z"/>
<path d="M3992 2513 c-12 -23 -26 -383 -15 -383 4 0 18 8 30 18 19 16 22 30
28 185 6 152 6 167 -10 167 -9 0 -14 4 -10 9 3 5 1 12 -4 16 -6 3 -14 -2 -19
-12z"/>
<path d="M6024 2515 c-10 -24 6 -38 21 -18 7 10 11 21 9 25 -8 13 -24 9 -30
-7z"/>
<path d="M3800 2496 c0 -44 -11 -55 -66 -67 l-54 -12 0 -40 0 -39 34 20 c18
11 51 23 72 26 l39 7 0 64 c0 45 -4 65 -12 65 -7 0 -13 -11 -13 -24z"/>
<path d="M6151 2502 c-7 -13 -11 -26 -8 -28 8 -8 29 25 25 38 -3 8 -9 4 -17
-10z"/>
<path d="M6053 2485 c-9 -25 4 -29 17 -6 7 15 7 21 0 21 -6 0 -13 -7 -17 -15z"/>
<path d="M3546 2403 c8 -16 14 -56 14 -94 0 -54 -5 -76 -29 -120 -28 -54 -93
-114 -158 -146 -18 -9 -33 -26 -36 -39 -4 -24 7 -33 18 -14 3 6 13 10 21 10 8
0 12 -4 9 -10 -25 -40 103 40 159 100 l48 52 -4 123 c-3 103 -7 127 -22 144
-27 30 -37 26 -20 -6z"/>
<path d="M3330 2373 c1 -51 26 -233 34 -240 3 -4 14 1 23 10 15 15 15 26 4
108 -9 73 -9 94 1 100 6 4 15 6 19 3 4 -2 11 0 14 6 4 6 -9 17 -29 25 -52 22
-66 19 -66 -12z"/>
<path d="M3195 2370 c-19 -9 -19 -9 3 -16 12 -3 22 -10 22 -15 0 -5 7 -9 15
-9 9 0 15 9 15 25 0 27 -17 31 -55 15z"/>
<path d="M3790 2307 l0 -44 -54 -12 c-31 -7 -57 -19 -60 -27 -7 -18 -8 -94 -1
-94 19 0 55 27 57 43 2 16 16 24 61 36 51 13 58 18 53 36 -3 11 -6 32 -6 48 0
17 -5 27 -15 27 -8 0 -15 7 -15 15 0 8 -4 15 -10 15 -5 0 -10 -20 -10 -43z"/>
<path d="M2807 2320 c-3 -11 -1 -20 3 -20 5 0 12 -9 15 -20 3 -11 13 -20 21
-20 19 0 10 35 -16 62 -17 19 -18 19 -23 -2z"/>
<path d="M2687 2313 c-11 -3 -16 -10 -13 -20 3 -8 6 -18 6 -23 0 -4 13 -10 29
-12 24 -3 32 0 41 20 16 36 -8 49 -63 35z"/>
<path d="M2601 2274 c0 -11 3 -14 6 -6 3 7 2 16 -1 19 -3 4 -6 -2 -5 -13z"/>
<path d="M2620 2186 c0 -16 7 -27 20 -31 11 -3 20 -12 20 -18 0 -7 5 -4 10 5
14 23 -8 68 -32 68 -12 0 -18 -7 -18 -24z"/>
<path d="M2757 2186 c-15 -22 -15 -25 2 -40 16 -15 19 -15 31 -1 7 8 22 15 34
16 11 0 15 3 9 6 -7 2 -13 13 -13 24 0 28 -44 25 -63 -5z"/>
<path d="M4100 2133 c0 -29 -4 -32 -85 -64 -47 -18 -85 -39 -85 -46 0 -7 6
-13 14 -13 8 0 16 -5 18 -12 4 -12 16 -9 103 27 17 6 45 18 63 25 17 7 32 14
32 16 0 11 -28 62 -42 78 -18 19 -18 19 -18 -11z"/>
<path d="M3815 2111 c-6 -38 -9 -40 -58 -51 -105 -24 -127 -31 -127 -40 0 -6
7 -10 15 -10 8 0 15 -4 15 -10 0 -5 8 -10 18 -10 27 0 174 38 182 47 4 4 10
27 14 50 5 35 4 41 -9 37 -10 -4 -15 0 -15 10 0 34 -28 15 -35 -23z"/>
<path d="M7050 2084 c0 -17 22 -14 28 4 2 7 -3 12 -12 12 -9 0 -16 -7 -16 -16z"/>
<path d="M1719 2075 c-29 -16 -43 -41 -29 -50 17 -11 11 -35 -8 -35 -11 0 -47
-18 -81 -40 -47 -31 -61 -45 -57 -58 4 -13 -10 -29 -54 -61 -47 -34 -60 -50
-60 -70 0 -26 -15 -44 -56 -67 -10 -6 -20 -21 -22 -33 -3 -15 -32 -41 -98 -83
-69 -44 -92 -64 -84 -72 7 -7 17 -7 32 3 33 20 78 31 78 19 0 -5 8 -7 17 -4 9
4 20 1 24 -5 5 -9 17 -6 42 10 36 22 47 39 47 72 0 22 37 34 71 24 l23 -8 -23
-18 c-13 -11 -29 -19 -37 -19 -24 0 -16 -38 8 -42 29 -4 34 -25 9 -33 -41 -13
-20 -24 42 -23 123 1 105 -10 -43 -28 -45 -5 -53 -4 -42 7 6 7 12 19 12 27 0
11 -8 9 -36 -7 -19 -12 -40 -21 -46 -21 -8 0 -75 -28 -87 -36 -2 -2 6 -16 18
-32 l21 -29 -58 -27 c-31 -15 -75 -38 -97 -52 -22 -13 -44 -25 -48 -27 -18 -6
6 -55 31 -67 26 -11 26 -12 8 -26 -28 -20 -13 -28 29 -14 20 7 39 9 42 6 7 -7
9 -6 -45 -34 -24 -12 -53 -22 -65 -22 -20 0 -20 0 -1 14 10 8 16 18 12 22 -8
7 -68 -14 -68 -25 0 -4 -20 -20 -45 -35 -50 -32 -55 -46 -25 -74 19 -18 19
-52 0 -52 -4 0 -33 -23 -64 -50 -31 -28 -64 -50 -72 -50 -8 0 -14 -7 -14 -15
0 -9 6 -12 15 -9 10 4 15 0 15 -14 0 -12 5 -24 10 -27 6 -4 -1 -21 -17 -41
-22 -29 -24 -37 -12 -45 10 -6 7 -9 -12 -9 -15 0 -30 -7 -33 -16 -4 -10 -2
-13 7 -8 8 5 7 2 -2 -9 -7 -9 -24 -17 -37 -17 -28 0 -37 -13 -29 -41 5 -16 12
-19 28 -14 12 4 36 9 52 12 17 3 32 9 35 12 11 14 67 27 85 20 17 -6 15 -9
-17 -23 -21 -9 -44 -16 -51 -16 -8 0 -22 -9 -33 -21 -14 -15 -27 -20 -52 -17
-29 4 -38 -1 -60 -31 -31 -41 -67 -77 -100 -98 -23 -16 -29 -47 -12 -58 18
-11 58 23 65 55 8 35 36 42 32 7 -2 -20 2 -22 38 -20 42 1 48 7 230 204 39 42
129 129 200 195 72 65 171 158 220 205 99 95 262 229 278 229 5 0 42 30 81 68
40 37 97 85 128 107 32 22 57 44 58 49 1 20 51 75 72 78 29 4 34 24 8 31 -12
3 -20 13 -20 25 0 27 -15 35 -38 21 -15 -9 -26 -7 -61 12 -24 13 -52 28 -62
34 -41 21 -10 81 37 73 16 -3 38 -2 49 2 18 7 17 8 -8 15 -24 6 -27 12 -25 37
3 29 -15 47 -64 62 -19 6 -25 46 -8 46 6 0 10 12 10 27 0 18 -12 36 -41 61
-36 31 -40 39 -36 69 3 18 5 33 4 33 -1 -1 -14 -7 -28 -15z m111 -264 c0 -5
-15 -13 -32 -16 -18 -4 -37 -11 -43 -15 -5 -4 -30 -13 -55 -20 -25 -7 -60 -19
-78 -27 -19 -8 -36 -12 -39 -9 -10 10 39 46 62 46 11 0 25 4 31 9 5 5 41 16
79 24 39 9 71 16 73 16 1 1 2 -3 2 -8z m-250 -137 c0 -8 -10 -14 -24 -14 -34
0 -42 18 -14 29 27 10 38 6 38 -15z m77 -10 c-3 -3 -12 -4 -19 -1 -8 3 -5 6 6
6 11 1 17 -2 13 -5z m23 -44 c0 -11 -39 -24 -47 -16 -3 3 -3 12 0 20 6 15 47
11 47 -4z m-360 -70 c0 -5 -5 -10 -11 -10 -5 0 -7 5 -4 10 3 6 8 10 11 10 2 0
4 -4 4 -10z m43 -220 c20 0 20 -1 5 -16 -13 -13 -25 -15 -55 -9 -22 5 -31 10
-20 12 9 3 17 9 17 15 0 5 7 7 16 4 9 -3 25 -6 37 -6z m-53 -160 c0 -5 -4 -10
-10 -10 -5 0 -10 5 -10 10 0 6 5 10 10 10 6 0 10 -4 10 -10z m-80 -154 c0 -2
-7 -6 -15 -10 -8 -3 -15 -1 -15 4 0 6 7 10 15 10 8 0 15 -2 15 -4z m-140 -46
c0 -14 -50 -32 -68 -25 -20 7 -5 22 28 28 14 2 28 5 33 6 4 0 7 -4 7 -9z m25
-126 c-11 -8 -66 -37 -122 -64 -55 -27 -104 -54 -108 -59 -3 -6 -11 -11 -16
-11 -22 0 36 58 74 74 23 10 69 31 102 46 67 32 103 39 70 14z m-355 -344 c0
-5 -9 -10 -21 -10 -11 0 -17 5 -14 10 3 6 13 10 21 10 8 0 14 -4 14 -10z"/>
<path d="M2482 2060 c-7 -11 -9 -20 -4 -20 4 0 13 9 20 20 7 11 9 20 4 20 -4
0 -13 -9 -20 -20z"/>
<path d="M3310 2010 c-8 -5 -12 -12 -9 -15 4 -3 12 1 19 10 14 17 11 19 -10 5z"/>
<path d="M5865 1963 c-33 -8 -77 -19 -97 -24 -52 -13 -49 -32 20 -122 31 -42
84 -113 117 -157 33 -44 63 -80 68 -80 10 0 5 9 -56 93 l-49 67 23 19 c20 16
21 21 10 35 -7 9 -25 16 -40 16 -21 0 -23 -2 -11 -11 12 -9 12 -10 -3 -5 -10
3 -20 6 -22 6 -8 0 -87 111 -82 116 3 3 53 16 112 28 77 17 109 20 119 12 13
-10 113 -141 348 -453 55 -73 104 -133 110 -133 9 0 -14 35 -70 106 -13 16
-68 90 -124 164 -55 74 -103 137 -107 140 -3 3 -39 49 -79 103 -82 108 -78
106 -187 80z"/>
<path d="M4856 1962 c-18 -4 -19 -13 -13 -171 4 -91 10 -271 13 -400 l7 -234
-28 7 c-23 6 -26 4 -21 -9 3 -9 6 -19 6 -21 0 -2 9 -4 20 -4 10 0 24 -9 30
-20 16 -29 90 -29 90 0 0 11 -9 25 -20 32 -26 17 -26 31 1 23 18 -6 19 -4 11
12 -5 10 -7 23 -5 30 2 6 -4 13 -14 16 -17 4 -17 5 0 6 17 1 18 9 14 79 -2 42
-10 118 -17 167 -9 67 -9 112 -1 176 6 47 11 124 11 172 0 86 0 87 -25 87 -20
0 -25 5 -25 24 0 28 -7 34 -34 28z"/>
<path d="M5400 1962 c0 -4 4 -12 9 -17 5 -6 19 -39 32 -75 20 -56 23 -85 23
-200 1 -114 -3 -146 -23 -210 -58 -187 -156 -294 -272 -299 -9 -1 -19 -9 -23
-18 -3 -10 -9 -25 -12 -33 -5 -11 -2 -10 13 3 17 15 21 15 26 3 3 -7 22 -20
43 -26 56 -19 128 1 179 48 46 42 105 124 105 144 0 8 4 18 9 24 14 14 48 152
55 219 12 112 -21 274 -71 353 -20 30 -78 92 -87 92 -3 0 -6 -4 -6 -8z"/>
<path d="M4458 1842 c3 -51 -2 -84 -23 -148 l-27 -83 101 -130 c56 -71 101
-133 101 -136 0 -3 -18 -30 -40 -60 -22 -30 -40 -60 -40 -68 0 -16 34 -50 42
-42 3 3 13 -4 23 -15 17 -19 19 -19 37 -4 10 10 18 23 18 31 0 7 4 13 8 13 5
0 17 15 27 34 l18 34 -41 53 c-23 30 -45 59 -50 64 -29 38 -99 132 -105 142
-4 7 3 38 17 70 49 118 43 215 -16 269 -53 48 -53 48 -50 -24z"/>
<path d="M3899 1798 c2 -48 -3 -83 -24 -149 l-28 -85 103 -132 102 -133 -41
-58 c-22 -33 -41 -64 -41 -69 0 -5 19 -26 43 -45 l43 -35 20 25 c51 68 64 87
64 94 0 6 -69 101 -154 208 l-48 63 16 36 c42 98 53 202 26 252 -14 26 -71 90
-80 90 -3 0 -3 -28 -1 -62z"/>
<path d="M4210 1827 c0 -41 22 -137 32 -137 14 0 52 21 60 34 17 24 8 77 -17
101 -32 33 -75 34 -75 2z"/>
<path d="M3150 1825 c0 -11 44 -92 215 -389 96 -168 175 -307 175 -309 0 -2
-30 -17 -67 -32 -38 -15 -72 -31 -76 -35 -13 -12 11 -50 31 -50 9 0 23 -9 30
-20 10 -17 16 -18 37 -8 31 14 31 22 3 37 -23 11 -23 11 2 5 14 -4 30 -8 35
-11 6 -2 11 6 11 17 0 12 -5 19 -13 16 -7 -3 -10 1 -6 10 4 12 8 12 22 2 9 -7
21 -20 28 -28 6 -8 15 -12 19 -8 4 4 1 14 -6 23 -8 10 -9 15 -1 15 6 0 11 -4
11 -10 0 -5 5 -10 10 -10 14 0 2 47 -20 85 -10 17 -33 57 -50 90 -18 33 -39
67 -46 76 -8 8 -14 18 -14 22 0 4 -23 46 -52 94 -29 48 -61 105 -71 125 -11
21 -24 35 -30 31 -6 -3 -7 -1 -3 6 4 6 -3 28 -16 49 -24 38 -44 74 -73 130
-10 17 -24 32 -31 32 -8 0 -20 11 -26 25 -10 22 -28 35 -28 20z"/>
<path d="M3655 1743 c10 -83 15 -103 31 -103 23 0 59 44 62 76 4 43 -30 84
-70 84 l-30 0 7 -57z"/>
<path d="M2962 1745 c17 -37 22 -69 23 -125 0 -91 -23 -144 -96 -222 -50 -53
-50 -54 -8 -78 21 -12 49 -91 49 -136 0 -42 -47 -98 -95 -114 -18 -6 -39 -18
-46 -26 -9 -11 -15 -11 -25 -3 -8 6 -11 16 -7 23 4 6 -1 5 -10 -3 -22 -17 -22
-35 -1 -27 13 5 14 3 7 -6 -12 -14 -1 -52 17 -63 8 -5 5 -12 -7 -22 -17 -13
-15 -14 14 -9 49 8 190 66 208 86 9 10 17 46 21 94 l7 77 -38 39 -38 39 29 28
c73 72 73 71 89 212 18 153 17 156 -70 241 l-46 45 23 -50z"/>
<path d="M5162 1743 c-58 -83 -79 -177 -61 -278 12 -72 39 -115 73 -115 21 0
22 3 18 66 -6 89 12 163 54 225 33 50 33 51 17 82 -8 18 -21 35 -27 39 -23 16
-55 7 -74 -19z"/>
<path d="M2674 1643 c3 -16 8 -50 11 -78 12 -95 15 -103 35 -98 34 9 52 40 54
95 1 29 0 59 -2 66 -6 17 -55 42 -82 42 -18 0 -21 -4 -16 -27z"/>
<path d="M3180 1444 c0 -16 -3 -59 -7 -96 l-6 -68 42 0 c22 0 41 2 41 4 0 9
-60 179 -65 184 -3 3 -5 -8 -5 -24z"/>
<path d="M4300 1438 c0 -7 11 -80 25 -163 21 -126 22 -152 11 -160 -8 -5 -36
-23 -63 -39 -35 -22 -43 -31 -30 -34 9 -2 17 -10 17 -19 0 -11 6 -14 24 -9 20
5 25 1 30 -20 l7 -26 37 23 c20 12 47 27 59 33 27 13 27 20 8 122 -8 44 -15
101 -17 128 -1 40 -10 58 -50 112 -50 66 -58 73 -58 52z"/>
<path d="M3740 1394 c0 -16 40 -276 46 -296 3 -11 -7 -26 -31 -43 -19 -15 -35
-36 -35 -47 0 -10 -4 -16 -10 -13 -5 3 -7 0 -4 -9 4 -11 13 -12 34 -6 26 8 28
7 18 -9 -6 -10 -8 -26 -5 -35 6 -14 13 -12 57 14 28 17 56 30 62 30 6 0 8 13
5 33 -2 17 -12 84 -22 147 -9 63 -23 126 -30 140 -20 35 -84 107 -85 94z"/>
<path d="M2734 1193 c4 -43 10 -80 12 -83 3 -3 17 8 30 23 24 28 32 80 16 103
-7 12 -46 34 -58 34 -4 0 -4 -35 0 -77z"/>
<path d="M5090 1155 c0 -9 6 -12 15 -9 8 4 15 10 15 15 0 5 -7 9 -15 9 -8 0
-15 -7 -15 -15z"/>
<path d="M3225 1133 c-11 -2 -30 -6 -41 -8 -18 -4 -23 -15 -28 -59 l-7 -55
-47 -3 c-35 -2 -48 -7 -50 -20 -3 -14 3 -18 27 -18 26 0 31 -4 31 -23 0 -22 2
-23 61 -17 65 6 79 17 79 62 0 43 10 58 40 58 56 0 62 7 40 51 -18 34 -25 39
-53 38 -17 -1 -41 -3 -52 -6z"/>
<path d="M1927 1090 c-26 -16 -47 -36 -47 -44 0 -8 -6 -19 -14 -23 -7 -4 -17
-18 -20 -30 -7 -21 -5 -22 22 -17 19 4 34 1 45 -10 17 -18 68 -21 83 -6 9 9
41 17 72 19 6 1 12 7 12 14 0 16 -54 49 -64 40 -4 -4 -4 0 -1 9 11 29 -29 14
-43 -16 -14 -28 -38 -44 -49 -32 -3 3 0 12 7 21 7 8 10 24 7 36 -4 15 0 23 14
26 10 3 19 9 19 14 0 5 7 9 15 9 8 0 15 5 15 10 0 18 -25 11 -73 -20z"/>
<path d="M2769 1093 c-13 -16 -12 -17 4 -4 16 13 21 21 13 21 -2 0 -10 -8 -17
-17z"/>
<path d="M6755 971 c-22 -10 -49 -26 -60 -35 -20 -17 -20 -17 4 -10 16 4 21 3
17 -5 -4 -6 -2 -11 5 -11 7 0 9 -3 6 -6 -4 -4 -20 -1 -36 5 -25 11 -35 10 -70
-9 -31 -15 -39 -24 -31 -33 23 -27 120 -179 120 -188 0 -14 29 -59 67 -102 18
-20 33 -41 33 -46 0 -7 43 -46 148 -132 7 -6 18 -9 25 -6 7 2 1 9 -13 17 -13
7 -40 31 -59 54 -20 23 -60 65 -89 95 -30 29 -58 66 -62 82 -11 37 -1 37 30 1
33 -38 64 -53 113 -58 32 -3 38 -1 29 8 -7 7 -12 20 -12 29 0 10 -13 38 -30
62 -33 50 -35 59 -18 86 10 16 7 26 -17 60 -18 27 -28 53 -27 74 2 47 -8 87
-21 87 -7 0 -30 -9 -52 -19z m5 -117 c0 -14 -3 -14 -15 -4 -8 7 -15 14 -15 16
0 2 7 4 15 4 8 0 15 -7 15 -16z"/>
<path d="M2045 936 c-17 -12 -17 -13 9 -20 15 -4 37 -4 49 0 20 6 20 7 -4 20
-30 17 -31 17 -54 0z"/>
<path d="M1834 914 c-17 -14 -17 -15 -1 -10 10 3 23 6 28 6 5 0 9 5 9 10 0 14
-13 12 -36 -6z"/>
<path d="M1987 892 c-19 -21 -22 -32 -7 -32 10 0 34 39 27 46 -2 2 -11 -4 -20
-14z"/>
<path d="M6011 899 c-47 -5 -86 -11 -88 -13 -2 -2 10 -31 27 -64 16 -32 30
-62 30 -64 0 -14 154 -234 225 -321 28 -34 63 -80 80 -102 16 -22 54 -65 85
-95 51 -51 110 -117 152 -169 10 -11 22 -21 27 -21 29 0 10 29 -89 130 -61 62
-110 116 -110 119 0 4 -25 33 -55 66 -30 32 -55 65 -55 73 0 14 -6 27 -48 108
-23 44 -21 54 11 54 18 0 19 5 14 53 -3 28 -11 66 -18 82 -6 17 -13 50 -15 75
-1 25 -3 53 -4 62 -1 15 -50 40 -74 37 -6 -1 -49 -6 -95 -10z"/>
<path d="M1795 872 c-12 -9 -24 -25 -27 -34 -4 -9 -17 -18 -30 -20 -12 -2 -24
-11 -26 -20 -3 -15 2 -17 30 -14 21 2 34 9 36 20 4 20 16 21 32 1 14 -17 14
-17 -15 -33 -17 -9 -10 -11 37 -12 69 0 71 -19 4 -44 -52 -20 -76 -44 -73 -74
1 -12 4 -22 7 -22 10 0 113 91 128 111 7 11 25 25 40 33 34 18 99 76 86 77 -5
1 -13 2 -19 4 -5 1 -20 3 -32 3 -13 1 -23 9 -23 17 0 9 -9 15 -24 15 -20 0
-23 -4 -19 -22 3 -13 11 -28 19 -34 23 -18 1 -34 -40 -27 -33 5 -37 9 -33 30
3 18 -1 25 -20 29 -15 4 -22 12 -19 20 7 17 6 17 -19 -4z"/>
<path d="M5730 855 c0 -8 4 -15 9 -15 4 0 16 -20 25 -45 10 -25 30 -59 44 -77
69 -84 265 -262 282 -256 19 6 -48 95 -85 112 -20 10 -39 25 -43 34 -3 9 -30
48 -59 85 -48 63 -73 116 -73 160 0 9 -5 17 -11 17 -5 0 -7 -4 -4 -10 3 -5 2
-10 -4 -10 -5 0 -13 5 -16 10 -10 16 -65 12 -65 -5z"/>
<path d="M4565 848 c-16 -5 -59 -11 -95 -12 -211 -10 -269 -18 -295 -42 -21
-20 -24 -27 -15 -44 13 -25 33 -26 25 -1 -8 25 14 40 53 34 48 -8 38 -33 -28
-65 -30 -16 -59 -28 -66 -28 -19 0 -34 -25 -42 -71 -4 -23 -13 -44 -20 -47 -9
-3 -11 6 -6 37 4 26 2 46 -5 55 -8 10 -9 21 -3 33 14 26 42 93 42 98 0 3 -11
5 -25 5 -27 0 -50 -31 -50 -69 0 -13 -6 -26 -12 -28 -7 -3 -13 2 -13 10 0 9
-7 23 -16 31 -9 9 -11 16 -4 16 6 0 9 4 6 9 -4 5 0 12 6 15 27 11 -482 -21
-532 -34 -19 -5 -47 -12 -62 -15 -18 -3 -28 -12 -28 -23 -1 -64 -84 -223 -109
-208 -24 15 -15 149 13 185 9 12 8 13 -3 7 -10 -7 -12 -3 -6 13 l7 22 -325 -4
c-392 -6 -380 -3 -431 -111 -33 -69 -71 -106 -94 -92 -15 9 -42 -4 -42 -20 0
-7 9 -18 20 -24 37 -20 15 -72 -35 -82 -36 -6 -13 -98 25 -98 11 0 20 -3 20
-8 0 -10 -43 -37 -54 -34 -24 7 -45 -11 -48 -41 l-3 -32 -99 0 c-94 0 -99 -1
-109 -23 -6 -13 -23 -26 -39 -29 -15 -3 -33 -12 -39 -19 -15 -18 -29 -18 -29
1 0 8 5 15 10 15 6 0 10 7 10 15 0 8 -9 15 -20 15 -17 0 -20 -7 -20 -41 l0
-41 -38 5 c-20 2 -51 9 -67 14 -27 9 -33 7 -49 -14 l-18 -25 63 4 c58 3 65 1
74 -19 8 -20 55 -39 55 -23 0 4 6 7 13 8 105 14 164 25 188 37 15 8 43 15 62
15 19 0 45 8 58 18 13 10 38 24 56 31 17 7 39 21 48 31 22 24 91 36 110 20 16
-13 65 -6 65 9 0 19 55 -6 58 -26 3 -20 5 -20 30 -7 35 18 41 68 7 60 -14 -4
-30 2 -43 14 -12 11 -25 20 -30 20 -4 0 -13 5 -20 12 -8 8 -3 19 24 43 38 35
72 39 103 11 10 -9 35 -16 58 -16 60 0 103 -11 103 -25 0 -8 -3 -15 -7 -18 -5
-2 -3 -2 4 -1 59 14 86 15 92 5 5 -8 15 -6 33 9 15 11 32 20 39 20 7 0 20 7
30 15 14 13 19 14 31 3 20 -19 38 -20 44 -3 4 8 17 15 29 15 13 0 27 4 30 10
3 6 19 10 34 10 15 0 32 5 38 11 17 17 25 -6 12 -33 -16 -34 -157 -103 -195
-95 -33 6 -99 -31 -135 -77 -12 -16 -31 -26 -46 -26 -22 0 -24 3 -20 35 4 30
3 34 -9 24 -8 -6 -14 -22 -14 -35 0 -17 -6 -24 -20 -24 -11 0 -37 -17 -58 -38
-20 -22 -49 -42 -64 -46 -26 -6 -28 -4 -28 24 0 38 -10 38 -39 -1 -13 -17 -37
-37 -54 -44 -28 -12 85 -14 794 -15 l825 0 15 32 c19 44 50 44 63 1 l9 -33
358 0 c281 0 359 3 359 13 0 8 3 7 10 -3 5 -8 13 -11 17 -6 4 4 1 13 -8 19 -9
7 -19 24 -23 40 -6 24 -4 27 20 27 25 0 26 -2 20 -35 -6 -31 -4 -35 14 -35 11
0 20 5 20 10 0 6 8 10 18 10 10 0 29 11 42 25 38 41 49 30 26 -25 -14 -35 46
-40 446 -40 l386 0 -6 25 c-4 13 -11 25 -15 24 -11 0 -32 23 -40 44 -3 9 -13
17 -22 17 -8 0 -15 7 -15 15 0 8 -5 15 -10 15 -6 0 -28 11 -50 25 -22 14 -43
24 -47 23 -5 -1 -23 3 -40 9 -37 13 -44 33 -13 33 15 0 20 7 20 24 0 22 -5 25
-46 28 -59 4 -76 25 -47 57 19 20 21 20 51 5 18 -8 32 -20 32 -25 0 -16 25
-10 43 11 9 11 21 20 26 20 20 0 61 -43 61 -64 0 -31 40 -66 76 -67 47 -1 87
-31 114 -87 18 -38 31 -52 46 -52 27 0 114 -48 121 -66 3 -9 22 -14 57 -14
l51 0 -25 20 c-14 11 -32 20 -40 20 -8 0 -28 14 -44 30 -16 17 -38 30 -48 30
-10 0 -18 5 -18 10 0 6 -8 14 -18 18 -62 25 -222 171 -222 202 0 26 -28 43
-136 79 -284 95 -371 182 -401 404 -5 38 -6 39 -42 32 -64 -11 -67 -14 -69
-48 -2 -68 -11 -97 -32 -97 -16 0 -17 51 -1 60 13 7 14 11 3 22 -22 22 -39
-22 -33 -84 1 -10 -2 -18 -7 -18 -14 0 -55 87 -47 100 11 17 -15 40 -46 40
-17 0 -34 -8 -43 -21 -17 -24 -52 -19 -42 6 6 18 5 18 -104 19 -49 1 -110 8
-145 19 -65 19 -200 22 -250 5z m-618 -104 c8 -21 -13 -42 -28 -27 -13 13 -5
43 11 43 6 0 13 -7 17 -16z m283 -64 c0 -5 -7 -10 -15 -10 -8 0 -15 5 -15 10
0 6 7 10 15 10 8 0 15 -4 15 -10z m-1573 -142 c-18 -71 -33 -98 -68 -117 -20
-12 -39 -21 -41 -21 -6 0 42 95 66 133 23 34 51 37 43 5z m2823 -4 c0 -17 -22
-14 -28 4 -2 7 3 12 12 12 9 0 16 -7 16 -16z m-977 -11 c-7 -2 -19 -2 -25 0
-7 3 -2 5 12 5 14 0 19 -2 13 -5z m-1460 -19 c9 -4 17 -10 17 -15 0 -16 -25
-20 -54 -9 -24 9 -26 13 -16 25 7 9 18 13 24 10 6 -3 19 -8 29 -11z m-145 -85
c30 -12 28 -22 -9 -38 -24 -10 -40 -11 -65 -3 -26 8 -36 7 -45 -4 -21 -25 -34
-15 -36 27 l-1 40 66 -7 c37 -3 77 -10 90 -15z m2656 4 c8 -19 -8 -38 -23 -29
-16 10 -13 46 3 46 8 0 17 -8 20 -17z m122 3 c23 -23 16 -28 -16 -11 -16 9
-30 18 -30 20 0 11 32 4 46 -9z m-3184 -68 c-18 -19 -22 -20 -22 -6 0 9 8 21
17 27 27 15 29 3 5 -21z m948 24 c0 -14 -39 -46 -47 -39 -3 4 2 16 12 27 19
21 35 26 35 12z m-70 -72 c-11 -20 -50 -28 -50 -10 0 5 10 21 22 35 18 21 23
23 30 10 5 -8 4 -23 -2 -35z m1040 16 c0 -8 -4 -18 -10 -21 -5 -3 -10 3 -10
14 0 12 5 21 10 21 6 0 10 -6 10 -14z m-1827 -26 c-7 -26 -13 -29 -38 -19 -15
6 -16 8 -4 8 9 1 19 8 23 16 8 23 25 18 19 -5z m1827 -52 c0 -5 -6 -8 -14 -8
-16 0 -31 -68 -21 -99 4 -14 0 -24 -14 -33 -12 -7 -21 -20 -21 -30 0 -28 -16
-29 -29 -2 -15 33 -14 64 2 103 10 24 16 28 25 19 9 -9 12 -6 12 16 0 46 59
79 60 34z m594 -3 c19 -14 18 -15 -11 -15 -18 0 -33 6 -37 15 -7 20 22 19 48
0z m-869 -75 c0 -18 -6 -26 -23 -28 -24 -4 -38 18 -28 44 3 9 15 14 28 12 17
-2 23 -10 23 -28z m935 -11 c0 -15 7 -19 33 -19 40 0 77 -23 57 -35 -11 -7
-72 -8 -126 -1 -28 3 -76 34 -70 45 3 5 24 11 46 15 22 3 40 11 40 17 0 5 5 7
10 4 6 -3 10 -15 10 -26z m-1997 14 c9 -9 -22 -43 -40 -43 -16 0 -16 5 -3 31
11 19 31 25 43 12z m-886 -25 c-3 -8 -6 -5 -6 6 -1 11 2 17 5 13 3 -3 4 -12 1
-19z m3333 -94 c0 -8 -7 -14 -15 -14 -10 0 -15 10 -15 26 0 22 2 25 15 14 8
-7 15 -19 15 -26z"/>
<path d="M5635 850 c3 -5 15 -10 26 -10 10 0 19 5 19 10 0 6 -12 10 -26 10
-14 0 -23 -4 -19 -10z"/>
<path d="M1707 723 c-4 -3 -7 -11 -7 -17 0 -6 5 -5 12 2 6 6 9 14 7 17 -3 3
-9 2 -12 -2z"/>
<path d="M1660 674 c0 -7 48 -54 56 -54 2 0 4 9 4 20 0 11 -7 20 -15 20 -8 0
-15 5 -15 10 0 6 -7 10 -15 10 -8 0 -15 -3 -15 -6z"/>
<path d="M1632 653 c-7 -2 -17 -13 -22 -23 -8 -14 -5 -19 14 -22 19 -4 23 0
23 24 0 15 -1 28 -1 27 -1 0 -7 -3 -14 -6z"/>
<path d="M2266 438 c-18 -26 -21 -71 -5 -66 8 3 38 68 39 86 1 11 -22 -2 -34
-20z"/>
<path d="M676 370 c-12 -9 -35 -22 -52 -29 -17 -7 -46 -28 -65 -47 -29 -30
-32 -37 -21 -54 17 -28 15 -33 -9 -27 -17 4 -30 -3 -55 -31 -26 -29 -30 -38
-17 -40 12 -3 10 -9 -12 -28 -15 -13 -31 -22 -35 -19 -4 2 -17 -6 -30 -20 -16
-17 -21 -31 -16 -49 6 -24 9 -22 89 57 46 45 89 92 96 105 6 12 17 22 23 22
12 0 155 147 162 167 7 17 -33 12 -58 -7z"/>
<path d="M7070 340 c0 -5 7 -10 16 -10 8 0 12 5 9 10 -3 6 -10 10 -16 10 -5 0
-9 -4 -9 -10z"/>
<path d="M7220 282 c0 -22 75 -54 135 -58 41 -2 55 0 45 6 -8 5 -25 10 -38 10
-12 0 -33 7 -46 15 -13 9 -32 17 -42 19 -11 3 -27 7 -36 11 -10 4 -18 3 -18
-3z"/>
<path d="M3090 260 c0 -24 15 -27 24 -4 9 22 8 24 -9 24 -8 0 -15 -9 -15 -20z"/>
<path d="M2794 238 c-2 -4 -1 -9 4 -12 11 -7 52 4 52 14 0 10 -50 8 -56 -2z"/>
<path d="M2920 226 c0 -24 16 -27 35 -6 18 19 17 20 -8 20 -17 0 -27 -5 -27
-14z"/>
<path d="M2742 203 c5 -25 25 -27 38 -4 10 19 8 21 -15 21 -19 0 -26 -5 -23
-17z"/>
<path d="M2597 173 c-12 -11 -8 -23 8 -23 8 0 15 7 15 15 0 16 -12 20 -23 8z"/>
<path d="M2404 124 c-12 -8 -31 -16 -42 -17 -10 0 -19 -8 -18 -16 1 -9 -23
-31 -51 -50 -29 -19 -51 -37 -49 -39 2 -2 25 0 50 3 36 6 49 13 59 33 9 20 22
28 52 33 21 4 41 12 43 18 2 6 12 11 21 11 23 0 31 9 24 26 -7 18 -62 17 -89
-2z"/>
<path d="M1722 49 c-29 -5 -62 -14 -72 -19 -10 -6 -32 -10 -49 -10 -16 0 -33
-5 -37 -11 -11 -19 155 -6 199 15 20 10 37 22 37 27 0 10 -5 10 -78 -2z"/>
</g>
</svg>
