<?xml version="1.0" standalone="no"?>
<!DOCTYPE svg PUBLIC "-//W3C//DTD SVG 20010904//EN"
 "http://www.w3.org/TR/2001/REC-SVG-20010904/DTD/svg10.dtd">
<svg version="1.0" xmlns="http://www.w3.org/2000/svg"
 width="2000.000000pt" height="2000.000000pt" viewBox="0 0 2000.000000 2000.000000"
 preserveAspectRatio="xMidYMid meet">

<g transform="translate(0.000000,2000.000000) scale(0.100000,-0.100000)"
fill="#000000" stroke="none">
<path d="M0 10000 l0 -10000 10000 0 10000 0 0 10000 0 10000 -10000 0 -10000
0 0 -10000z m10717 7816 c106 -8 196 -17 201 -20 4 -2 84 -12 178 -21 93 -9
232 -27 309 -41 272 -48 855 -200 1070 -279 55 -20 161 -58 235 -85 156 -56
204 -77 378 -164 323 -161 568 -340 628 -458 13 -27 31 -75 40 -108 14 -54 14
-66 0 -113 -28 -96 -122 -232 -229 -333 -203 -190 -240 -217 -524 -382 -246
-144 -425 -217 -768 -317 -273 -79 -671 -160 -935 -190 -141 -17 -723 -31
-762 -19 -10 3 -18 13 -18 23 0 28 -26 44 -59 38 l-30 -6 6 69 6 70 -47 0 -46
0 0 -44 c0 -24 -3 -64 -6 -90 -6 -39 -10 -46 -30 -46 -21 0 -22 3 -17 58 2 31
8 69 13 84 5 14 6 29 3 32 -11 11 -23 6 -23 -8 0 -7 -7 -36 -14 -62 -8 -27
-18 -61 -21 -76 -5 -26 -9 -28 -55 -28 -41 0 -50 3 -50 18 0 19 25 127 35 155
6 14 1 17 -33 17 -47 0 -50 -5 -60 -108 -8 -77 -30 -95 -52 -42 -15 37 -49 38
-65 3 -5 -13 -14 -24 -20 -26 -21 -7 -265 13 -385 32 -69 11 -165 25 -215 31
-102 12 -175 25 -430 74 -764 149 -1197 292 -1801 594 -233 117 -346 191 -460
299 -89 86 -102 122 -83 239 10 62 20 90 48 129 72 101 145 186 194 225 27 22
79 68 115 101 154 142 490 322 801 430 486 168 884 256 1406 313 248 27 612
50 654 42 14 -3 49 -1 76 4 67 12 599 3 842 -14z m3134 -4635 c-2 -2894 -4
-3238 -18 -3272 -8 -22 -19 -39 -23 -39 -5 0 -16 24 -26 53 -9 28 -26 66 -38
82 -47 69 -138 175 -145 170 -5 -2 -12 -37 -15 -76 -11 -105 -82 -307 -148
-416 -55 -92 -120 -165 -208 -236 -118 -95 -257 -187 -282 -187 -12 0 -67 -26
-122 -59 -56 -32 -130 -73 -166 -91 -85 -42 -403 -178 -438 -187 -15 -3 -52
-17 -82 -31 -30 -13 -84 -30 -120 -37 -36 -8 -114 -25 -175 -39 -409 -92 -611
-111 -1297 -122 -213 -3 -402 -10 -420 -15 -48 -13 -149 -11 -226 5 -37 8
-173 20 -302 26 -129 7 -273 18 -320 25 l-84 13 -54 -30 c-124 -70 -319 -102
-483 -79 -215 31 -440 138 -517 245 -28 39 -39 45 -99 60 -37 10 -86 25 -108
36 -81 37 -85 36 -85 -10 0 -52 -13 -76 -50 -95 -88 -45 -285 25 -530 190
-308 208 -403 304 -501 509 -41 85 -54 142 -80 349 -12 97 -12 97 -31 75 -10
-12 -32 -46 -49 -75 -17 -29 -34 -55 -38 -57 -4 -3 -11 486 -15 1087 -9 1552
-15 2274 -26 3057 -5 377 -12 867 -15 1090 -3 223 -8 508 -11 633 -5 201 8
575 22 616 3 10 12 4 28 -18 54 -73 321 -262 459 -325 40 -19 144 -68 232
-111 256 -123 436 -197 705 -288 244 -83 749 -203 1125 -267 299 -51 296 -50
650 -89 50 -6 120 -13 158 -17 l67 -6 0 -104 c0 -56 4 -115 10 -131 8 -24 8
-25 -3 -9 -28 44 -70 86 -86 86 -10 0 -26 -9 -37 -21 -21 -24 -26 -109 -11
-209 l8 -55 -20 22 c-18 19 -25 20 -50 12 -24 -9 -31 -19 -41 -61 -7 -28 -10
-81 -8 -119 5 -67 5 -69 -13 -53 -25 23 -47 11 -66 -33 -20 -48 -14 -236 10
-302 l15 -43 -27 26 c-48 46 -81 29 -81 -43 0 -38 37 -163 75 -256 8 -18 7
-18 -8 -6 -25 20 -64 -9 -72 -53 -6 -30 28 -150 70 -250 6 -14 5 -17 -3 -12
-6 4 -21 2 -32 -4 -16 -9 -20 -21 -20 -60 0 -60 50 -223 84 -273 21 -31 23
-40 13 -66 -8 -22 -8 -42 1 -81 14 -58 66 -173 88 -191 12 -10 11 -14 -8 -23
-20 -11 -23 -19 -22 -71 1 -47 8 -74 33 -124 20 -39 29 -67 23 -73 -5 -5 -22
25 -42 79 -45 123 -66 154 -97 151 -22 -3 -27 3 -42 52 -10 30 -30 79 -45 109
-25 49 -30 53 -58 49 -27 -4 -32 -1 -45 31 -8 20 -38 78 -66 128 -41 74 -57
93 -74 93 -16 0 -29 12 -44 43 -32 62 -149 228 -167 234 -8 4 -23 1 -33 -5
-25 -16 -25 -16 -40 21 -16 39 -63 113 -97 150 -30 32 -56 35 -75 7 -13 -19
-16 -17 -51 34 -48 69 -129 146 -155 146 -11 0 -22 -9 -26 -20 -5 -17 -14 -8
-54 52 -96 146 -162 199 -189 152 -8 -14 -19 -9 -73 35 -84 68 -138 67 -143
-2 -1 -23 -2 -23 -35 12 l-34 36 6 -51 c6 -53 63 -165 100 -195 11 -8 28 -37
38 -65 18 -49 18 -49 -1 -24 -11 14 -20 30 -20 36 0 6 -8 21 -19 33 -10 12
-29 37 -42 56 -13 19 -27 35 -31 35 -16 0 -7 -58 15 -103 20 -39 21 -44 6 -37
-19 11 -29 -11 -29 -67 0 -28 7 -37 43 -59 104 -65 259 -191 190 -156 -10 5
-49 15 -88 22 -38 7 -80 17 -92 21 -13 5 -25 4 -28 -2 -4 -5 7 -14 24 -20 17
-6 31 -15 31 -19 0 -8 101 -49 160 -65 39 -12 164 -89 151 -93 -7 -2 -73 4
-146 13 -128 17 -179 15 -159 -5 5 -5 27 -13 49 -19 210 -52 345 -90 370 -104
29 -16 25 -16 -95 -10 -70 3 -132 11 -140 17 -8 7 -33 20 -55 30 -22 10 -83
42 -137 72 -80 45 -95 57 -91 74 3 11 6 20 7 20 0 0 24 -9 51 -19 71 -27 115
-33 115 -15 0 8 -6 14 -14 14 -7 0 -48 23 -91 51 -42 27 -79 48 -82 45 -9 -9
-63 -170 -63 -188 0 -29 84 -113 144 -144 45 -23 52 -31 43 -44 -27 -45 32
-122 147 -190 61 -36 75 -49 72 -64 -8 -32 33 -86 97 -127 32 -21 68 -41 79
-45 18 -6 19 -6 1 -19 -17 -12 -17 -15 -1 -48 27 -57 124 -124 231 -161 13 -4
16 -12 11 -30 -9 -39 41 -83 171 -150 111 -57 119 -63 131 -101 7 -22 26 -50
41 -63 34 -28 209 -114 280 -137 44 -14 54 -22 63 -50 6 -18 25 -44 43 -57 61
-46 222 -142 352 -210 131 -69 131 -76 -3 -32 -144 47 -340 163 -497 293 -127
105 -115 98 -131 76 -14 -18 -15 -18 -41 7 -16 14 -48 37 -73 52 -25 15 -53
32 -62 39 -14 9 -22 9 -39 -1 -18 -11 -25 -10 -52 10 -98 74 -170 104 -179 76
-3 -8 -32 5 -84 39 -43 28 -95 59 -116 69 -43 20 -73 13 -65 -16 7 -26 3 -25
-36 4 -40 30 -132 76 -151 76 -35 0 -27 -37 18 -90 24 -28 14 -21 -67 43 -61
49 -126 87 -151 87 -24 0 -24 -23 -1 -55 42 -58 38 -59 -23 -10 -57 46 -130
95 -142 95 -3 0 -11 -4 -19 -9 -17 -11 1 -70 29 -96 46 -41 14 -32 -57 18 -80
55 -123 77 -148 77 -27 0 -16 -47 21 -95 37 -50 35 -50 -36 1 -59 41 -177 97
-190 89 -19 -11 -10 -41 20 -70 16 -16 28 -30 26 -32 -2 -2 -36 12 -77 32 -78
37 -146 47 -135 20 3 -8 9 -22 12 -31 5 -11 -13 -6 -62 19 -164 82 -275 128
-294 122 -29 -9 -26 -56 5 -94 53 -63 299 -243 410 -300 l110 -56 -42 -3 c-37
-3 -43 -6 -43 -25 0 -12 7 -30 14 -39 19 -26 114 -66 211 -90 47 -12 82 -24
78 -28 -4 -4 -30 -12 -58 -18 -99 -21 -118 -35 -96 -71 11 -16 124 -40 201
-41 l55 -2 -35 -12 c-73 -26 -35 -115 57 -132 20 -4 88 -4 152 -1 90 4 112 3
100 -6 -29 -21 -31 -51 -7 -74 39 -36 93 -44 185 -30 l81 13 -5 -31 c-3 -21 0
-35 10 -44 23 -19 165 -16 216 5 42 16 42 16 58 -6 15 -21 21 -22 90 -17 44 3
71 2 67 -4 -11 -19 8 -48 36 -54 26 -6 175 16 215 31 11 5 15 -1 15 -20 0 -39
34 -42 163 -12 135 31 449 123 567 167 54 19 112 33 160 36 89 7 88 -3 -4 -22
-36 -8 -105 -29 -153 -49 -48 -19 -103 -37 -120 -41 -18 -4 -33 -13 -33 -20 0
-9 -17 -16 -47 -19 -207 -25 -283 -44 -283 -72 0 -8 -29 -21 -72 -34 -166 -48
-170 -50 -164 -75 5 -19 1 -24 -22 -30 -52 -12 -252 -110 -252 -122 0 -7 -18
-24 -40 -38 -28 -18 -40 -32 -40 -49 0 -17 -8 -27 -27 -34 -37 -13 -125 -91
-117 -104 3 -5 -6 -22 -21 -38 -16 -17 -25 -35 -22 -44 8 -21 -74 -86 -110
-86 -15 0 -75 -12 -133 -26 -58 -14 -166 -38 -240 -54 -405 -88 -719 -195
-1025 -349 -195 -99 -177 -72 -156 -245 15 -130 20 -146 37 -139 12 4 13 -6 8
-64 -7 -76 11 -182 48 -282 19 -50 109 -169 151 -200 15 -11 16 -15 6 -23 -11
-7 -9 -8 4 -4 12 4 32 -4 56 -23 68 -54 213 -119 401 -180 202 -66 349 -111
361 -111 4 0 13 17 19 38 15 44 66 131 89 150 45 37 129 86 171 101 l47 17
-111 29 c-247 63 -466 141 -595 211 -39 21 -40 22 -99 67 -85 66 -106 137 -56
196 46 55 197 147 339 206 17 7 44 18 60 25 71 29 216 73 338 101 286 67 343
79 372 79 16 0 66 6 110 14 169 31 344 54 470 61 39 3 129 9 200 15 118 9 276
16 550 25 55 2 116 1 137 -2 33 -4 37 -9 43 -41 10 -59 104 -339 146 -433 86
-197 189 -303 293 -303 43 0 52 4 78 33 37 42 34 69 -22 161 -66 110 -129 253
-181 412 -27 84 -49 156 -49 161 0 10 157 4 355 -12 255 -21 375 -32 450 -41
112 -13 416 -60 425 -65 4 -2 40 -9 81 -16 140 -21 384 -89 559 -156 108 -41
245 -107 255 -123 4 -6 16 -8 27 -4 34 10 87 -6 123 -38 31 -27 35 -36 35 -79
0 -81 -40 -128 -160 -188 -41 -20 -113 -58 -160 -83 -161 -88 -540 -195 -855
-242 -56 -9 -132 -22 -170 -30 -39 -8 -101 -17 -140 -21 -38 -3 -97 -10 -130
-15 -148 -24 -636 -50 -960 -51 -353 -1 -893 21 -1094 46 l-34 4 49 -30 c73
-46 121 -96 162 -169 32 -57 36 -72 37 -137 l0 -73 46 0 c26 0 68 -4 95 -9 27
-5 105 -11 174 -12 117 -3 125 -2 130 16 10 39 41 72 93 101 46 25 62 28 142
28 77 0 99 -4 153 -29 69 -31 104 -66 122 -120 9 -28 16 -34 34 -31 12 2 91 7
176 10 85 4 209 11 275 17 66 5 181 14 255 19 178 12 476 46 743 86 54 8 102
12 106 10 4 -3 8 14 10 36 2 37 21 104 46 162 7 15 5 17 -6 11 -8 -4 -12 -6
-9 -2 3 3 7 5 10 4 3 -1 17 6 32 15 38 25 146 58 191 58 89 0 147 -53 147
-135 l0 -51 88 28 c48 15 122 42 164 59 l77 31 -46 43 c-43 42 -45 47 -40 86
8 58 53 101 161 156 102 51 169 101 162 119 -3 7 0 11 7 9 25 -9 137 169 189
300 11 28 26 64 34 80 18 39 74 223 74 243 0 9 12 59 27 110 26 92 26 95 7
105 -31 18 -283 125 -359 153 -90 33 -463 130 -535 139 -88 12 -121 30 -160
87 -19 28 -67 79 -106 112 -52 44 -71 66 -67 79 7 27 -20 61 -92 118 -35 27
-66 58 -69 67 -3 9 -27 28 -52 41 -25 14 -51 35 -56 47 -6 12 -33 31 -65 44
-35 14 -58 31 -63 45 -9 23 -58 44 -140 61 -19 3 -39 13 -45 20 -15 19 -160
74 -198 74 -17 1 -59 14 -92 30 l-60 29 66 -5 c55 -5 68 -3 76 10 8 15 16 15
93 1 115 -20 131 -19 137 6 6 20 10 20 113 14 117 -8 156 1 145 34 -7 24 5 28
110 37 82 6 107 16 117 45 2 6 41 15 90 19 90 8 158 33 158 56 0 9 12 14 35
14 53 0 134 20 151 37 10 11 14 26 10 45 -5 28 -5 28 42 28 54 0 146 23 168
41 9 8 13 21 10 35 -6 22 13 34 58 34 10 0 45 12 77 26 47 21 59 31 59 50 0
12 -9 29 -20 37 -20 14 -19 15 23 25 53 14 97 52 97 85 0 29 -14 43 -54 53
l-29 7 34 18 c19 9 47 31 63 48 28 29 28 31 12 56 -14 21 -14 25 -2 25 19 0
76 48 76 65 0 7 -10 19 -21 27 -21 13 -20 15 37 58 33 24 83 67 113 94 136
130 151 146 151 171 0 23 -4 25 -43 25 -64 0 -208 -54 -294 -110 l-32 -21 17
42 c16 41 16 42 -7 60 -13 11 -30 19 -38 19 -27 0 -83 -32 -132 -76 l-49 -44
0 44 c1 50 -14 76 -44 76 -35 0 -88 -32 -112 -66 l-22 -33 -11 30 c-6 16 -18
32 -27 35 -22 8 -73 -14 -113 -49 -18 -16 -33 -25 -34 -21 -3 36 -12 62 -28
78 -19 18 -20 18 -57 0 -22 -11 -57 -44 -82 -77 l-44 -57 -17 21 c-29 37 -83
12 -134 -60 -16 -24 -17 -24 -36 -7 -17 15 -22 16 -52 3 -33 -14 -129 -102
-129 -119 0 -4 -4 -8 -10 -8 -5 0 -10 7 -10 15 0 22 -30 34 -63 24 -36 -10
-58 -29 -107 -90 -34 -43 -38 -45 -48 -28 -27 42 -109 4 -145 -67 -9 -17 -23
-36 -31 -43 -13 -11 -17 -11 -22 3 -16 41 -77 4 -134 -80 -27 -40 -46 -60 -51
-53 -4 7 -19 9 -40 5 -26 -5 -68 -40 -184 -154 -170 -167 -404 -358 -462 -376
-40 -13 -15 23 87 124 111 110 190 180 339 299 58 48 131 111 161 142 30 31
70 66 88 78 17 12 32 28 32 34 0 7 39 31 88 54 109 53 272 192 272 233 0 14 8
30 19 37 47 29 191 167 191 182 0 9 -6 23 -12 30 -10 10 -10 15 -1 18 6 2 49
30 95 62 89 61 105 88 68 114 -20 14 -20 15 17 39 21 14 62 46 90 72 44 40 51
51 43 66 -15 27 -15 27 46 61 30 17 62 42 70 55 20 30 14 67 -12 78 -19 9 -16
13 35 54 120 96 155 146 119 168 -7 5 -1 16 20 33 32 27 132 158 132 172 0 5
-9 18 -19 28 -20 20 -19 20 21 63 76 82 92 129 47 143 -26 9 -24 16 12 51 33
31 117 138 125 159 7 18 -26 47 -47 42 -11 -3 -19 -3 -19 -1 0 2 35 48 78 101
116 145 116 144 101 192 -7 23 -16 40 -20 39 -10 -4 -241 -297 -276 -350 -14
-20 -50 -53 -81 -73 -56 -36 -99 -81 -89 -92 3 -3 30 9 60 26 30 17 61 31 70
31 8 0 36 9 62 20 l46 20 -45 -53 c-64 -75 -158 -155 -192 -163 -16 -4 -61
-29 -100 -55 -60 -42 -77 -49 -119 -49 l-48 0 69 73 c38 41 100 108 137 151
38 42 74 73 79 69 6 -3 8 -1 5 4 -4 6 17 29 46 51 67 52 201 182 194 188 -14
14 -106 -50 -297 -205 -58 -48 -122 -99 -143 -114 -20 -16 -49 -40 -62 -53
-14 -14 -25 -24 -25 -22 0 2 9 27 20 56 11 29 20 57 20 62 0 22 -19 8 -34 -25
-9 -19 -21 -35 -25 -35 -4 0 -27 -41 -51 -92 -23 -50 -53 -102 -66 -115 -13
-13 -24 -30 -24 -37 0 -15 -38 -52 -45 -44 -3 2 4 31 15 63 11 32 20 68 20 80
0 26 33 79 146 232 97 132 124 163 206 235 l58 50 -31 -74 c-16 -40 -45 -89
-64 -108 -38 -40 -75 -103 -75 -128 0 -12 13 -3 43 28 132 138 360 346 428
391 20 13 62 41 93 62 31 20 60 37 65 37 12 0 21 26 21 62 0 38 -3 37 -122
-43 -128 -86 -194 -137 -256 -200 -40 -41 -51 -48 -44 -28 13 32 4 76 -15 83
-50 19 -212 -109 -291 -229 l-48 -73 -1 48 c-1 57 -7 70 -34 70 -46 0 -133
-117 -174 -235 -7 -19 -7 -19 -18 3 -8 17 -18 22 -47 22 -54 0 -84 -29 -120
-117 -51 -123 -50 -122 -66 -85 -33 79 -125 -2 -180 -160 -13 -37 -24 -76 -24
-85 0 -13 -4 -12 -13 7 -17 35 -57 37 -94 6 -44 -37 -73 -112 -109 -281 l-7
-30 -13 33 c-28 64 -99 32 -123 -56 -6 -19 -16 -76 -23 -127 -12 -91 -12 -93
-44 -104 -37 -13 -69 -69 -80 -138 -5 -33 -11 -43 -25 -43 -23 0 -23 7 -3 65
21 63 16 89 -18 93 -23 3 -26 7 -19 20 5 9 20 59 34 110 30 107 25 142 -18
142 -29 0 -29 -1 -14 37 6 15 17 60 25 100 16 76 9 113 -21 113 -8 0 -15 4
-15 9 0 21 31 158 41 183 15 37 4 78 -21 78 -11 0 -20 4 -20 9 0 6 16 61 35
124 36 121 36 152 1 161 l-23 6 25 109 c22 96 24 113 12 141 -11 27 -17 31
-39 27 l-27 -6 13 82 c15 101 8 164 -19 172 -10 4 -26 1 -34 -6 -12 -10 -14 0
-13 74 1 47 -2 91 -6 97 -4 7 -21 10 -37 8 -23 -4 -28 -2 -23 11 4 9 12 49 18
89 l12 73 180 -6 c187 -7 618 15 682 34 18 5 108 19 200 31 93 12 206 30 253
39 178 38 509 121 605 151 185 60 521 216 732 341 206 123 262 168 464 369 88
89 113 121 154 200 45 88 49 92 58 70 6 -16 9 -1154 8 -3259z m-3631 2032 c0
-5 -9 -37 -20 -73 -56 -180 -89 -328 -99 -440 l-7 -75 -15 30 c-16 29 -52 218
-64 337 -4 31 -3 90 1 130 l7 73 18 -80 c10 -44 19 -103 19 -132 0 -28 5 -55
10 -58 13 -8 18 6 29 80 5 33 15 95 22 138 l14 77 42 0 c24 0 43 -3 43 -7z
m100 -35 c-4 -18 -15 -50 -24 -70 -18 -42 -21 -78 -6 -78 5 0 29 30 54 68 67
100 83 119 95 106 26 -25 -23 -183 -103 -339 -25 -49 -46 -98 -46 -109 0 -18
3 -17 30 9 17 16 30 35 30 42 0 8 16 23 35 34 19 11 37 28 40 38 6 20 42 61
54 61 10 0 -5 -95 -24 -150 -8 -23 -15 -50 -15 -59 0 -9 -15 -47 -34 -86 -57
-116 -59 -169 -3 -87 14 20 38 51 54 67 15 17 43 53 60 80 32 49 33 49 33 20
0 -54 -40 -198 -75 -270 -53 -109 -65 -144 -54 -151 6 -3 11 -4 13 -3 1 2 13
20 26 39 27 39 150 183 150 175 0 -3 -9 -40 -20 -83 -26 -98 -76 -227 -106
-272 -27 -39 -59 -128 -50 -137 8 -8 36 17 36 31 0 6 27 41 60 76 l60 65 -39
-110 c-21 -60 -60 -154 -86 -208 -26 -55 -43 -103 -39 -107 5 -5 38 28 74 72
93 116 108 116 69 -3 -40 -123 -174 -368 -152 -277 5 21 3 21 -29 -9 -18 -18
-39 -33 -45 -33 -11 0 -47 -38 -91 -95 -22 -28 -21 -27 3 20 13 28 36 68 50
90 33 54 56 107 50 113 -9 9 -62 -58 -110 -138 -27 -44 -45 -66 -45 -55 0 30
60 150 114 229 26 38 63 101 83 140 19 39 42 78 50 88 10 12 11 18 3 23 -7 4
-25 -8 -43 -30 -18 -20 -51 -56 -74 -80 -24 -24 -43 -47 -43 -52 0 -4 -12 -21
-26 -38 -15 -16 -38 -47 -52 -68 -35 -53 -40 -38 -6 20 44 75 114 217 109 221
-8 8 -27 -11 -56 -56 -34 -53 -31 -20 4 38 21 36 107 161 117 170 7 7 40 67
40 74 0 21 -37 -2 -92 -56 -57 -58 -60 -59 -24 -15 21 26 36 51 32 54 -11 11
-58 -29 -102 -90 -54 -73 -61 -81 -44 -47 7 14 32 50 55 80 23 30 45 65 49 76
4 12 15 29 26 39 11 10 20 22 20 27 0 17 -21 7 -60 -28 -22 -20 -40 -34 -40
-30 0 3 33 52 74 108 115 161 138 222 53 142 -23 -22 -69 -62 -101 -89 -50
-42 -56 -45 -40 -20 10 17 31 44 47 60 16 17 39 51 52 77 14 26 29 49 35 53
13 8 13 25 0 25 -12 0 -90 -79 -90 -91 0 -5 -4 -9 -10 -9 -14 0 25 85 70 153
22 33 40 65 40 72 0 7 11 29 25 49 32 48 32 60 -2 42 -43 -22 -80 -61 -129
-136 -15 -22 -29 -39 -30 -37 -2 2 7 31 21 65 20 50 25 78 25 155 0 77 5 108
30 182 16 49 28 91 25 93 -12 12 -56 -44 -71 -90 -9 -27 -18 -47 -21 -44 -5 5
13 209 24 274 4 27 9 32 33 32 26 0 27 -2 20 -32z m-330 -368 c13 0 26 -28 34
-70 l7 -35 -20 23 c-46 53 -42 3 9 -98 36 -72 40 -87 39 -152 0 -40 -3 -90 -7
-112 l-7 -38 -33 46 c-29 40 -98 96 -118 96 -15 0 11 -61 58 -133 28 -42 55
-96 60 -120 17 -81 20 -125 11 -142 -9 -15 -15 -11 -48 29 -40 49 -132 122
-142 113 -3 -3 6 -30 21 -59 14 -29 30 -73 35 -98 6 -25 24 -80 41 -122 17
-42 32 -95 33 -116 2 -35 0 -39 -15 -31 -38 20 -37 5 2 -40 23 -26 30 -43 30
-74 l0 -41 -50 81 c-62 102 -75 112 -67 52 6 -40 59 -181 77 -204 5 -5 13 -36
19 -68 6 -32 13 -62 16 -68 15 -23 -10 -5 -49 35 -92 94 -117 75 -43 -34 64
-96 78 -128 88 -200 5 -36 12 -74 16 -85 5 -16 -3 -12 -38 16 -24 19 -61 45
-81 57 -37 21 -38 21 -38 2 0 -15 36 -66 70 -100 80 -78 114 -138 135 -235 l6
-30 -30 35 c-32 38 -40 30 -16 -16 8 -16 12 -38 9 -49 -3 -13 1 -27 10 -34 26
-22 55 -116 60 -198 3 -43 2 -71 -1 -63 -3 8 -14 27 -24 42 -11 14 -19 35 -19
46 0 11 -45 88 -101 172 -90 136 -187 315 -176 326 2 3 27 -28 55 -68 84 -122
155 -173 104 -75 -24 45 -33 61 -126 212 -62 102 -120 227 -130 283 l-6 33 29
-20 c16 -12 51 -49 78 -83 52 -66 112 -128 125 -128 16 0 7 28 -23 69 -35 50
-110 174 -147 246 -26 51 -84 236 -77 244 9 8 77 -52 126 -112 66 -80 149
-167 160 -167 15 0 10 15 -15 51 -43 59 -163 252 -185 297 -27 52 -67 165 -75
211 l-6 34 41 -51 c22 -29 52 -57 67 -64 14 -7 40 -38 58 -68 34 -58 99 -128
110 -117 4 3 -12 41 -35 84 -131 248 -162 333 -175 478 l-7 70 33 -52 c56 -88
163 -233 172 -233 14 0 -2 73 -40 183 -42 124 -64 221 -64 290 l0 52 23 -34
c12 -18 44 -58 71 -88 26 -31 54 -70 62 -87 16 -39 60 -93 68 -85 9 8 -15 95
-59 214 -21 55 -41 132 -45 170 -5 39 -12 84 -16 100 -5 23 3 16 35 -32 24
-35 47 -63 51 -63z m1796 -488 c-3 -5 -10 -40 -16 -78 -10 -66 -44 -178 -59
-199 -4 -5 -22 -48 -41 -95 -41 -106 -82 -180 -127 -227 l-34 -37 6 84 c4 48
3 96 -3 110 l-9 25 -15 -35 c-8 -19 -22 -77 -32 -129 -19 -104 -40 -152 -84
-194 l-30 -28 -6 35 c-4 20 -17 45 -29 56 l-21 21 -9 -23 c-5 -13 -13 -61 -18
-108 -8 -72 -16 -95 -49 -150 -49 -81 -68 -105 -76 -98 -3 4 -14 39 -24 78
-32 123 -43 110 -46 -50 -2 -111 -4 -125 -33 -186 -17 -36 -39 -77 -50 -90
l-20 -26 -16 39 c-9 21 -22 55 -28 76 -7 20 -18 37 -26 37 -11 0 -12 -12 -7
-62 4 -35 10 -85 13 -113 3 -37 -1 -65 -17 -107 -12 -32 -25 -58 -29 -58 -5 0
-19 32 -32 72 -35 105 -47 99 -48 -27 -1 -57 -6 -115 -11 -127 -7 -16 -9 39
-6 167 4 183 17 285 37 285 5 0 9 -33 9 -72 0 -142 24 -161 34 -28 4 49 16
131 27 182 11 51 24 120 30 153 16 100 19 103 38 47 13 -38 16 -72 13 -142 -6
-114 9 -140 32 -54 51 190 99 350 129 429 l35 90 8 -40 c10 -51 10 -86 -1
-157 -8 -57 0 -128 14 -128 4 0 15 30 23 68 41 179 83 314 128 406 l48 101 1
-76 c1 -42 -5 -94 -13 -116 -18 -51 -24 -135 -11 -140 6 -2 18 16 27 39 64
165 167 390 195 428 l35 45 -6 -95 c-3 -52 -8 -130 -12 -172 -4 -55 -3 -78 5
-78 13 0 18 10 67 150 73 212 124 330 141 330 2 0 2 -4 -1 -8z m-3502 -203
c25 -22 46 -48 46 -56 0 -8 18 -69 40 -135 23 -67 42 -145 44 -177 2 -32 7
-65 11 -72 5 -8 -10 6 -33 31 -65 70 -114 184 -148 348 -8 40 -18 80 -21 88
-9 25 13 15 61 -27z m4025 -56 c-13 -15 -29 -33 -35 -40 -7 -6 -14 -9 -18 -6
-3 4 -6 2 -6 -4 0 -18 -73 -62 -165 -98 -50 -19 -101 -43 -115 -53 -17 -13
-50 -21 -107 -24 -46 -4 -83 -5 -83 -3 0 2 21 19 48 38 50 37 132 66 246 87
59 11 106 35 106 55 0 3 -15 5 -32 5 l-33 1 28 15 c24 13 156 52 181 53 5 1
-1 -11 -15 -26z m-3811 -87 c15 -31 65 -264 68 -316 3 -45 3 -45 -8 -12 -14
41 -28 41 -28 0 0 -28 -2 -31 -15 -18 -8 9 -17 31 -19 50 -2 19 -9 49 -15 65
l-11 30 18 -24 c25 -32 38 -11 17 28 -21 41 -65 209 -65 246 l1 30 24 -29 c13
-16 28 -39 33 -50z m3687 -153 c-94 -88 -121 -103 -255 -146 -83 -26 -139 -37
-203 -41 -84 -4 -87 -4 -65 12 50 37 108 62 203 87 55 15 108 31 118 36 21 12
13 30 -11 23 -9 -2 -6 1 8 7 14 7 48 23 75 37 51 25 186 63 195 55 3 -3 -26
-34 -65 -70z m-3454 -30 c29 -38 66 -99 81 -137 16 -39 32 -75 37 -80 4 -6 15
-34 24 -63 19 -57 75 -153 90 -153 11 0 1 77 -18 135 -8 22 -16 63 -20 90 -3
28 -8 61 -11 75 -4 18 4 10 26 -24 48 -74 52 -91 54 -221 2 -66 6 -151 10
-190 l8 -70 -21 25 c-11 14 -35 61 -52 105 -17 44 -43 100 -57 125 l-27 45 -3
-32 c-2 -17 4 -55 12 -84 9 -29 14 -54 12 -56 -2 -2 -18 13 -35 34 -21 25 -31
48 -31 70 0 107 -57 350 -92 393 l-20 25 7 -30 c4 -16 15 -84 25 -149 18 -125
12 -196 -16 -196 -8 0 -14 1 -14 3 0 15 -75 252 -90 284 -25 55 -25 66 0 28
11 -16 24 -37 30 -45 5 -8 17 -33 26 -55 22 -52 29 -26 15 51 -11 56 -15 164
-7 164 2 0 28 -30 57 -67z m1855 -175 c-8 -49 -70 -176 -129 -263 -23 -33 -53
-82 -68 -110 -15 -28 -34 -50 -43 -50 -8 0 -37 -20 -63 -45 -44 -42 -45 -43
-22 -10 37 52 92 170 84 178 -4 4 -22 -11 -41 -32 -19 -22 -34 -33 -34 -25 0
18 40 82 98 159 23 30 42 61 42 68 0 6 6 12 14 12 7 0 26 17 42 37 29 38 113
123 122 123 3 0 2 -19 -2 -42z m1422 -29 c-94 -78 -113 -87 -208 -104 -44 -8
-98 -20 -122 -28 -24 -8 -72 -18 -108 -21 l-64 -7 19 21 c35 38 79 57 164 69
61 8 90 17 103 31 10 11 27 20 37 20 10 0 46 14 80 31 72 36 105 47 144 48 26
1 22 -4 -45 -60z m-2833 -204 c61 -113 91 -196 100 -278 8 -81 41 -206 59
-227 8 -8 16 -34 20 -57 l6 -43 -41 45 c-46 50 -58 88 -59 195 -1 113 -48 290
-77 290 -2 0 -2 -87 2 -192 l6 -193 -40 45 c-31 34 -43 58 -51 100 -6 30 -18
75 -26 100 -16 47 -55 262 -49 268 1 2 8 -12 14 -31 7 -19 20 -42 31 -52 11
-10 22 -34 26 -54 8 -53 47 -141 62 -141 15 0 16 -6 -9 113 -27 131 -38 207
-28 201 4 -2 28 -42 54 -89z m2775 45 c-57 -44 -204 -120 -243 -126 -52 -8
-136 -40 -159 -61 -18 -16 -160 -24 -175 -10 -4 5 14 28 40 51 48 41 137 82
240 108 26 7 47 15 47 19 0 3 48 12 108 18 59 7 114 14 122 16 39 7 44 4 20
-15z m-3720 -35 c63 -25 130 -47 150 -50 88 -12 366 -90 376 -107 5 -8 2 -9
-9 -5 -18 7 -150 31 -225 41 -127 18 58 -67 238 -110 98 -23 120 -32 150 -60
l34 -34 -54 6 c-30 3 -88 10 -128 15 -92 11 -182 12 -182 1 0 -12 33 -25 130
-51 47 -13 121 -34 165 -46 44 -13 98 -27 120 -30 42 -8 76 -25 110 -58 20
-19 20 -19 -65 -13 -309 23 -318 22 -217 -27 48 -24 111 -39 327 -78 62 -11
81 -19 110 -47 33 -32 34 -33 10 -28 -99 21 -172 28 -182 18 -8 -8 -1 -13 23
-21 29 -8 21 -10 -50 -9 -70 1 -91 5 -135 28 -28 15 -114 60 -191 100 -77 40
-155 85 -174 99 -31 23 -32 26 -14 29 12 2 55 -8 97 -22 79 -27 118 -33 101
-17 -6 5 -59 35 -120 67 -153 80 -170 90 -228 133 -52 38 -116 101 -105 101 4
0 60 -17 125 -39 237 -78 239 -66 11 51 -99 50 -192 106 -241 145 -44 35 -78
63 -75 63 2 0 56 -20 118 -45z m2373 -7 c-8 -29 -27 -80 -42 -113 -15 -33 -31
-73 -35 -89 -7 -27 -52 -74 -67 -69 -4 1 -6 -3 -6 -10 1 -7 -16 -47 -36 -90
-43 -91 -48 -120 -17 -92 12 11 28 33 36 51 20 43 168 189 172 170 6 -26 -54
-140 -140 -267 -87 -129 -172 -278 -164 -286 9 -10 27 9 47 50 24 47 146 212
177 240 20 18 20 18 15 -25 -3 -24 -12 -52 -19 -63 -8 -11 -21 -30 -29 -41 -9
-12 -20 -47 -25 -79 -5 -32 -25 -90 -43 -129 -19 -39 -42 -94 -51 -122 -33
-102 -73 -186 -80 -169 -17 45 -5 119 39 237 25 67 43 124 40 127 -7 6 -31
-26 -52 -69 -9 -19 -26 -48 -36 -65 l-19 -30 6 70 c6 84 36 167 106 298 29 54
50 101 46 104 -3 3 -21 -10 -40 -29 -18 -18 -38 -32 -43 -31 -5 2 -19 -6 -31
-17 -12 -12 -22 -18 -22 -15 0 7 76 182 96 219 8 16 12 31 9 35 -13 12 -42
-20 -79 -89 -22 -41 -42 -68 -44 -62 -4 14 72 159 129 245 22 32 39 63 39 69
0 24 149 188 171 188 4 0 1 -24 -8 -52z m1180 -159 c-76 -63 -131 -91 -207
-105 -39 -8 -100 -25 -134 -39 -52 -21 -182 -55 -210 -55 -3 0 11 18 33 40 47
48 96 72 195 95 73 17 160 50 170 65 4 6 133 33 183 37 11 1 -1 -14 -30 -38z
m-2391 -167 c17 -42 37 -115 45 -162 15 -94 31 -142 43 -135 9 6 24 -130 18
-161 -3 -16 -6 -14 -26 13 -15 21 -32 79 -52 177 -27 128 -46 189 -83 261 -5
11 -12 51 -14 90 l-4 70 21 -38 c12 -21 35 -73 52 -115z m2262 -10 c-21 -15
-57 -39 -79 -52 -22 -13 -49 -31 -60 -41 -11 -10 -54 -25 -95 -34 -71 -16
-240 -91 -240 -107 0 -5 8 -8 18 -9 9 0 -10 -7 -43 -14 -33 -7 -73 -16 -90
-20 -29 -6 -29 -6 14 32 24 21 69 61 101 89 36 32 76 58 109 69 39 13 51 21
47 32 -4 11 -2 13 9 9 8 -3 36 4 62 15 53 23 198 57 252 58 l34 1 -39 -28z
m-971 -182 c3 -47 10 -136 17 -199 18 -177 -15 -170 -43 9 l-14 85 -11 -39
c-7 -26 -10 -88 -6 -175 4 -120 3 -141 -14 -176 l-19 -40 -4 36 c-4 28 -1 35
8 32 11 -4 13 27 8 168 -5 183 -7 169 47 362 15 55 25 35 31 -63z m-1121 -80
c11 -47 21 -101 23 -120 4 -33 4 -33 -6 5 -11 47 -70 178 -81 183 -10 4 -10
48 -1 82 6 24 8 22 26 -20 11 -25 29 -83 39 -130z m1988 95 c0 -4 -47 -38
-199 -142 -25 -18 -55 -32 -66 -33 -33 -1 -188 -46 -225 -65 -19 -9 -51 -28
-70 -42 -20 -14 -8 2 30 39 62 60 75 67 205 117 17 7 41 20 55 31 l25 20 -45
0 c-31 0 -40 3 -30 9 23 14 177 52 245 61 33 4 63 8 68 9 4 0 7 -1 7 -4z
m1523 -68 c-15 -18 -47 -49 -71 -68 -24 -19 -56 -46 -71 -60 -47 -44 -139 -99
-197 -116 -30 -10 -54 -20 -54 -24 0 -8 63 -19 120 -19 l45 0 -25 -20 c-29
-23 -139 -60 -172 -59 -16 1 -12 4 15 11 20 6 37 15 37 21 0 7 -32 8 -97 4
l-98 -6 60 31 c67 34 105 65 105 85 0 16 -10 16 -44 3 -50 -19 -25 -1 97 68
187 107 319 171 375 181 2 1 -9 -14 -25 -32z m-524 -34 c-12 -63 -26 -97 -67
-161 -18 -30 -31 -57 -27 -60 4 -4 52 41 108 99 99 104 157 150 206 164 23 7
22 4 -15 -47 -36 -52 -89 -103 -159 -155 -25 -19 -28 -24 -15 -33 8 -5 11 -10
5 -11 -20 -1 -42 -8 -125 -39 -47 -18 -103 -38 -125 -45 -22 -7 -48 -16 -58
-20 -28 -11 31 80 87 135 42 41 65 79 31 50 -8 -7 -15 -9 -15 -4 0 12 157 174
168 174 6 0 6 -20 1 -47z m-173 -16 c-3 -18 -29 -67 -56 -109 -28 -42 -50 -81
-50 -87 0 -14 -133 -140 -166 -157 l-25 -13 18 32 c10 17 42 56 72 85 29 29
51 56 48 58 -7 7 -67 -24 -96 -50 -23 -20 -23 -20 -13 -1 12 23 265 283 271
279 2 -2 1 -18 -3 -37z m-2407 -138 c7 -22 30 -84 52 -137 34 -84 79 -276 66
-288 -2 -2 -23 45 -46 104 -34 83 -198 432 -229 487 -4 6 28 -21 69 -58 57
-50 79 -78 88 -108z m2211 116 c0 -50 -4 -59 -39 -98 -21 -23 -46 -58 -56 -77
-9 -19 -28 -49 -41 -67 -13 -17 -24 -38 -24 -47 0 -20 -61 -69 -138 -112 l-62
-34 14 33 c28 67 50 107 58 107 4 0 15 15 24 33 41 78 233 312 262 317 1 0 2
-25 2 -55z m-3406 5 c20 0 64 -13 98 -29 113 -53 170 -68 347 -90 51 -7 96
-19 115 -31 l31 -20 -80 6 c-71 5 -78 4 -62 -9 10 -8 61 -23 115 -32 72 -13
109 -26 145 -49 26 -17 47 -33 47 -37 0 -3 -37 3 -82 13 -135 31 -248 45 -248
31 0 -11 130 -67 215 -93 152 -48 202 -72 246 -116 24 -24 41 -45 38 -48 -2
-2 -56 12 -119 30 -119 35 -155 41 -145 24 9 -14 -144 60 -245 119 -19 11 -67
36 -107 55 -40 19 -83 42 -95 51 -22 15 -22 16 22 11 25 -3 74 -15 110 -26 76
-23 70 -22 70 -11 0 10 -103 61 -287 141 -73 32 -148 70 -167 86 -38 32 -47
51 -17 34 11 -5 36 -10 55 -10z m927 -105 c26 -58 42 -117 48 -182 4 -40 4
-69 0 -65 -10 11 -69 247 -68 273 0 14 3 18 6 9 2 -8 9 -24 14 -35z m2229 -49
c-36 -106 -46 -126 -69 -126 -26 0 -78 -56 -108 -115 -36 -71 -67 -109 -108
-133 -34 -21 -35 -21 -35 -2 0 20 51 132 71 156 18 22 4 27 -28 11 -37 -20
-70 -57 -123 -137 -50 -76 -115 -142 -104 -107 4 12 13 34 20 49 8 15 14 36
14 48 0 20 -1 20 -30 5 -17 -9 -42 -37 -57 -63 -14 -26 -43 -59 -65 -74 -21
-15 -38 -27 -38 -25 0 1 4 17 9 34 13 46 -4 52 -37 12 -81 -98 -171 -165 -187
-139 -3 5 0 20 6 34 7 14 10 29 7 32 -11 10 -63 -24 -91 -59 -16 -20 -43 -41
-62 -47 -18 -6 -41 -22 -50 -36 -9 -14 -19 -23 -22 -20 -3 3 0 12 7 21 10 12
9 15 -6 15 -12 0 -15 3 -8 8 6 4 15 18 19 30 6 22 5 23 -17 12 -12 -7 -52 -33
-88 -58 -36 -25 -58 -38 -50 -30 8 8 82 79 163 159 l149 144 -27 -70 c-14 -38
-33 -80 -40 -92 -18 -27 -19 -33 -2 -33 6 0 53 62 104 138 50 75 102 147 116
160 l25 23 -8 -38 c-4 -21 -23 -67 -41 -104 -56 -107 -60 -121 -42 -117 9 2
61 68 115 148 54 80 112 161 129 180 46 50 50 21 6 -43 -29 -43 -77 -133 -77
-144 0 -2 6 -3 14 -3 8 0 36 28 62 63 63 82 158 192 211 244 41 40 43 41 37
15 -7 -31 -49 -108 -64 -117 -14 -8 -51 -96 -45 -106 6 -9 140 128 229 233 32
38 66 72 76 78 18 10 18 8 8 -22 -7 -18 -28 -59 -49 -90 -75 -116 -60 -167 16
-55 77 113 177 237 191 237 2 0 -10 -38 -26 -84z m-1379 -75 c0 -153 -13 -237
-46 -300 l-24 -46 -1 100 c0 59 8 141 19 202 21 109 42 186 48 179 2 -2 4 -63
4 -135z m744 103 c-22 -20 -71 -52 -109 -71 -38 -19 -92 -50 -120 -68 -28 -18
-76 -38 -106 -44 -51 -11 -90 -34 -90 -53 0 -4 20 -8 45 -8 l44 0 -63 -57
c-35 -32 -88 -75 -117 -96 -30 -20 -70 -52 -89 -70 -43 -41 -110 -91 -110 -84
0 6 83 108 132 162 14 17 37 42 50 56 13 14 38 36 56 49 23 15 32 28 29 41 -7
27 72 94 136 115 28 9 63 25 77 34 14 10 47 27 73 38 27 12 46 25 43 30 -3 5
-33 5 -68 1 -35 -4 -64 -6 -66 -5 -5 6 122 34 183 42 33 4 69 10 80 15 33 13
32 10 -10 -27z m-1481 -166 c-3 -40 -7 -78 -9 -84 -2 -6 0 -29 5 -50 11 -47 5
-56 -12 -18 -7 16 -17 32 -23 36 -6 5 -6 11 3 20 6 6 12 33 12 59 0 59 10 109
21 109 5 0 6 -33 3 -72z m-2518 42 c27 -12 63 -27 79 -34 17 -8 45 -20 64 -27
18 -7 45 -22 60 -34 36 -30 145 -88 211 -113 31 -11 92 -38 135 -60 44 -22 97
-45 118 -52 20 -6 37 -15 37 -20 0 -5 -16 -18 -36 -30 -47 -29 -31 -49 20 -25
19 9 40 23 46 30 9 11 18 10 50 -3 22 -10 40 -20 40 -23 0 -6 -100 -39 -118
-39 -7 0 -35 -11 -62 -24 l-51 -24 -115 45 c-63 25 -114 46 -112 48 2 2 39 -4
84 -13 150 -28 183 10 48 57 -78 28 -124 48 -134 60 -3 3 -30 18 -60 32 -53
26 -101 58 -214 144 -61 46 -151 125 -144 125 3 0 27 -9 54 -20z m691 -82 c65
-43 153 -111 180 -140 26 -26 93 -116 93 -123 0 -16 -29 4 -104 73 -47 42
-112 100 -145 127 -50 42 -93 95 -76 95 2 0 26 -14 52 -32z m-96 -61 c59 -39
114 -83 124 -100 l17 -29 -23 7 c-57 18 -95 37 -111 58 -15 19 -18 20 -18 4 0
-15 -3 -16 -20 -7 -11 6 -20 19 -20 30 0 11 -16 34 -36 52 -20 18 -40 41 -45
50 -15 27 12 14 132 -65z m4686 77 c-3 -3 -12 -4 -19 -1 -8 3 -5 6 6 6 11 1
17 -2 13 -5z m-4888 -49 c49 -24 92 -49 96 -55 8 -13 4 -13 -37 5 -20 8 -46
16 -59 19 -46 8 -76 24 -92 50 -10 14 -13 26 -7 26 6 0 50 -20 99 -45z m558
-56 c23 -21 60 -65 82 -98 23 -33 45 -62 50 -66 6 -3 20 -20 33 -38 16 -23 4
-16 -42 27 -36 32 -69 65 -73 73 -5 8 -42 49 -82 91 -41 41 -76 84 -78 94 -5
19 12 6 110 -83z m104 55 c30 -25 61 -53 69 -62 8 -10 27 -27 43 -39 15 -11
45 -47 66 -80 22 -32 66 -87 98 -122 32 -36 50 -62 40 -58 -10 4 -23 7 -29 7
-22 0 -296 288 -326 344 -16 31 -27 56 -23 56 4 0 32 -21 62 -46z m4168 26
c-13 -10 -19 -20 -14 -20 24 -3 154 1 195 6 l45 5 -70 -37 c-38 -20 -88 -38
-110 -40 -70 -5 -140 -16 -150 -24 -5 -4 -26 -2 -45 4 l-35 11 45 3 c81 5 150
22 150 38 0 11 -16 14 -67 14 -67 1 -67 1 -33 14 19 7 49 20 65 29 41 22 52
21 24 -3z m-3875 -137 c33 -29 63 -53 68 -53 4 0 8 -10 8 -23 0 -24 69 -127
123 -184 17 -18 29 -35 26 -37 -25 -25 -277 211 -316 296 -12 27 -32 62 -43
78 -11 15 -20 31 -20 35 0 10 92 -56 154 -112z m1361 -98 c66 -184 96 -248
154 -325 23 -30 41 -57 40 -60 -6 -48 -20 -32 -92 112 -66 132 -178 426 -176
461 1 16 9 -5 74 -188z m-1173 72 c44 -33 86 -74 95 -91 8 -17 35 -58 58 -91
41 -58 75 -117 75 -130 0 -4 -10 -3 -22 1 -27 8 -94 65 -91 76 2 4 0 7 -5 6
-12 -5 -164 160 -153 166 15 10 -5 54 -44 98 -19 21 -35 40 -35 43 0 10 42
-17 122 -78z m697 -22 c24 -2 48 -11 55 -20 12 -17 150 -71 206 -81 19 -4 40
-9 47 -13 9 -5 85 -103 106 -137 8 -13 -38 9 -98 48 -34 22 -149 78 -159 78
-2 0 -64 28 -137 63 -74 35 -165 76 -202 92 -103 43 -89 47 31 8 59 -19 127
-36 151 -38z m2790 35 c68 -11 127 -22 130 -25 4 -2 13 1 21 6 13 8 12 12 -5
25 -19 16 -18 16 20 10 22 -3 80 -9 128 -13 48 -3 90 -10 93 -14 9 -16 -171
-54 -306 -64 -56 -4 -80 -3 -71 3 17 12 2 21 -85 53 -62 23 -89 39 -63 39 7 0
70 -9 138 -20z m-3220 -134 c102 -95 221 -223 221 -239 0 -4 -80 9 -112 19
-22 7 -165 190 -206 266 l-34 61 33 -23 c17 -13 62 -51 98 -84z m3035 79 c120
-22 129 -23 153 -24 16 -1 21 -6 17 -16 -5 -12 2 -15 32 -15 22 0 73 -6 114
-14 41 -8 88 -17 104 -20 16 -3 31 -7 33 -10 7 -6 -123 -20 -187 -20 -225 2
-352 25 -446 80 l-47 28 34 12 c46 17 98 17 193 -1z m-3364 -21 c0 -2 -9 0
-20 6 -11 6 -20 13 -20 16 0 2 9 0 20 -6 11 -6 20 -13 20 -16z m3187 -95 c81
-19 148 -29 202 -29 58 0 103 -7 163 -26 46 -14 88 -27 93 -29 32 -8 -191 -17
-302 -11 -87 4 -133 3 -133 -4 0 -5 12 -12 28 -15 38 -9 162 -53 192 -70 l25
-13 -40 -8 c-21 -4 -98 -2 -170 5 -157 13 -242 14 -249 2 -4 -5 8 -12 26 -16
18 -4 73 -19 123 -33 112 -33 96 -40 -105 -41 -142 0 -213 8 -257 31 -24 12
-43 4 -27 -11 8 -8 164 -72 204 -84 8 -2 -7 -8 -34 -12 -50 -8 -193 5 -276 25
-66 16 -72 16 -77 5 -2 -6 9 -16 24 -22 16 -7 53 -26 83 -43 l55 -30 -45 6
c-103 14 -182 34 -209 54 -16 11 -44 23 -63 26 -18 4 -58 21 -88 38 -47 26
-51 31 -32 34 13 2 61 -14 107 -36 45 -22 97 -43 115 -47 l32 -7 -18 31 c-10
17 -21 31 -24 31 -11 0 -90 71 -90 81 0 20 49 6 154 -45 136 -67 154 -73 162
-51 7 18 -6 31 -105 100 -39 28 -71 53 -71 56 0 4 10 9 23 13 48 13 100 5 165
-25 37 -17 91 -39 120 -49 51 -17 53 -17 63 1 8 15 3 21 -29 38 -48 25 -144
110 -136 122 15 24 205 -9 339 -59 28 -11 67 -22 88 -26 59 -11 47 18 -20 45
-72 29 -205 117 -197 130 7 13 50 6 211 -32z m-3763 -88 c-55 -26 -123 -56
-150 -66 -27 -10 -54 -22 -60 -27 -14 -10 -159 2 -147 12 4 4 40 15 78 25 39
10 75 24 81 32 14 16 215 71 264 72 30 0 22 -6 -66 -48z m1254 -52 c1 1 14 -7
28 -18 16 -13 20 -21 12 -24 -9 -3 -2 -16 20 -40 l34 -35 -47 15 c-36 12 -55
27 -85 67 -21 28 -47 61 -59 73 -35 37 -24 36 37 -3 31 -20 58 -36 60 -35z
m-1024 55 c9 -3 16 -9 16 -13 0 -4 -54 -36 -120 -71 -65 -36 -116 -67 -112
-71 4 -3 56 0 116 7 95 11 121 18 191 53 l81 42 39 -17 39 -16 -52 -26 c-29
-15 -74 -43 -100 -63 -47 -34 -54 -36 -200 -54 -166 -20 -297 -17 -332 8 -20
14 -18 15 28 21 48 6 142 56 142 76 0 6 -29 10 -67 10 l-68 1 153 39 c85 22
168 48 185 59 37 22 40 23 61 15z m1877 -111 c-6 -36 -15 -71 -22 -77 -13 -12
-8 37 14 134 16 72 22 32 8 -57z m-770 -10 c13 -16 12 -17 -3 -4 -10 7 -18 15
-18 17 0 8 8 3 21 -13z m-697 -9 c20 -8 5 -24 -44 -48 -19 -9 -75 -46 -124
-82 -73 -54 -98 -67 -145 -75 -64 -10 -227 -16 -235 -8 -3 2 41 20 97 39 56
19 107 39 112 45 14 15 94 42 130 44 17 1 62 21 100 45 73 46 83 50 109 40z
m228 -61 l47 -17 -55 -42 c-58 -46 -87 -59 -104 -49 -5 3 -29 -7 -53 -24 -48
-35 -134 -67 -216 -80 -31 -6 -72 -13 -91 -17 -27 -5 -17 3 40 32 42 22 79 48
84 61 10 21 74 59 83 49 7 -7 69 26 128 68 57 41 71 43 137 19z m232 -56 l39
-12 -89 -42 c-49 -23 -124 -57 -166 -77 -46 -21 -100 -38 -135 -42 l-58 -6 68
35 c37 20 80 45 96 56 16 12 33 21 38 21 5 0 35 18 68 40 64 42 78 45 139 27z
m1763 -32 c58 -14 113 -23 122 -20 10 3 37 -12 66 -36 l49 -41 -39 7 c-22 4
-98 26 -170 50 -71 23 -142 45 -157 49 -46 11 -32 -11 25 -38 60 -29 116 -71
82 -62 -11 2 -40 8 -65 12 -48 7 -100 39 -78 47 12 4 -53 37 -73 37 -5 0 -9 5
-9 10 0 19 139 10 247 -15z m-1513 -23 c2 -4 -48 -36 -112 -70 -104 -56 -129
-65 -229 -82 -141 -25 -148 -25 -90 5 27 14 63 35 80 48 18 13 70 38 117 56
47 17 94 36 105 41 25 11 122 13 129 2z m1096 -82 l25 -8 -25 0 c-14 0 -34 3
-45 8 l-20 9 20 -1 c11 0 31 -4 45 -8z m255 -49 c106 -35 115 -40 78 -40 -24
-1 -43 -5 -43 -9 0 -10 118 -38 215 -51 39 -5 83 -14 100 -21 l30 -11 -55 -19
c-35 -12 -60 -15 -70 -10 -10 6 -11 9 -2 10 6 0 12 5 12 11 0 7 -11 9 -27 6
-28 -5 -122 21 -200 56 -23 10 -68 21 -100 24 -57 6 -57 6 -26 17 53 18 42 31
-30 38 -86 8 -107 15 -87 28 28 18 85 10 205 -29z m-2022 2 c-7 -2 -21 -2 -30
0 -10 3 -4 5 12 5 17 0 24 -2 18 -5z m1569 -144 c75 -98 165 -188 194 -195 14
-4 34 -4 46 -1 16 5 31 -4 62 -38 44 -46 88 -65 116 -47 13 8 22 3 44 -25 52
-64 127 -93 155 -59 10 12 16 10 39 -13 47 -47 89 -71 126 -71 21 0 50 -10 72
-25 48 -32 82 -41 105 -27 15 10 25 6 56 -23 37 -34 37 -35 13 -35 -14 1 -56
5 -95 10 -161 22 -791 56 -952 51 -102 -2 -103 -2 -103 21 0 13 -5 77 -10 143
-6 78 -6 158 0 230 6 61 13 139 16 175 l6 65 27 -32 c14 -17 52 -64 83 -104z
m-416 59 c-20 -24 -45 -55 -54 -70 -20 -32 -32 -36 -32 -10 0 33 81 115 119
121 2 1 -13 -18 -33 -41z m103 -45 c-4 -38 -15 -100 -23 -140 -9 -39 -19 -139
-22 -221 l-7 -148 -321 -16 c-177 -8 -323 -14 -325 -12 -11 10 45 54 69 54 36
0 72 29 111 90 27 42 33 47 46 34 8 -8 20 -14 27 -14 23 0 76 56 88 94 11 32
18 39 42 42 34 3 60 25 76 65 10 22 17 28 31 24 22 -7 36 6 144 133 38 45 70
82 71 82 0 0 -3 -30 -7 -67z m566 -26 c24 -21 47 -47 50 -58 5 -13 12 -18 22
-14 12 4 13 2 5 -8 -8 -10 -5 -26 13 -65 13 -29 22 -52 20 -52 -9 0 -50 48
-83 100 -37 57 -111 140 -125 140 -5 0 -5 -10 -2 -22 3 -13 -5 -3 -19 21 -14
23 -26 45 -26 46 0 10 108 -55 145 -88z m-446 -72 c-24 -250 17 -569 115 -912
65 -223 104 -337 157 -451 21 -47 39 -87 39 -89 0 -23 -143 184 -174 252 -77
169 -142 407 -166 609 -21 171 -17 284 15 571 8 72 15 139 15 149 0 11 3 17 6
13 4 -3 0 -67 -7 -142z m343 57 c8 4 21 -12 35 -43 12 -27 18 -49 14 -49 -9 0
-59 53 -98 105 -46 62 -49 75 -5 26 23 -25 46 -42 54 -39z m-832 63 c0 -6
-109 -75 -119 -75 -5 0 -8 8 -7 17 0 9 -10 22 -24 29 -18 10 -20 14 -10 18 33
11 160 20 160 11z m1130 -188 c0 -10 26 -37 34 -37 11 0 6 29 -14 74 -10 25
-17 46 -14 46 20 0 131 -81 164 -119 44 -50 59 -49 42 6 l-11 36 35 -34 c20
-19 51 -56 68 -84 63 -96 83 -95 46 4 -12 29 -20 57 -18 62 5 15 158 -122 197
-177 21 -29 41 -51 44 -48 3 4 -3 29 -13 58 -11 28 -20 52 -20 53 0 2 37 -33
81 -77 81 -79 107 -92 89 -44 -18 47 -10 49 18 4 26 -43 27 -44 30 -19 l3 27
45 -25 c24 -14 42 -29 39 -34 -4 -5 0 -7 7 -4 7 3 29 -9 48 -26 45 -41 124
-83 128 -69 6 17 -36 72 -84 109 -67 51 -44 50 33 -2 84 -56 182 -153 223
-218 16 -27 28 -49 26 -49 -30 0 -173 86 -279 168 -74 57 -144 98 -153 89 -4
-4 5 -25 20 -47 14 -22 24 -40 21 -40 -19 0 -91 46 -129 83 -46 44 -103 90
-117 95 -18 7 -8 -17 27 -68 30 -43 32 -50 13 -39 -23 12 -194 171 -217 202
-7 9 -17 17 -23 17 -18 0 -9 -28 24 -71 83 -110 40 -98 -78 22 -74 74 -115
105 -115 85 0 -15 34 -79 56 -105 l26 -32 -36 22 c-20 12 -56 46 -79 76 -72
95 -140 173 -145 169 -9 -9 8 -53 34 -92 15 -21 33 -54 41 -71 21 -52 -5 -42
-73 28 -32 34 -78 79 -102 102 -29 28 -40 46 -37 58 4 10 1 29 -5 41 -6 13 14
-4 44 -37 31 -33 56 -64 56 -68z m-1355 87 c-49 -13 -99 -26 -110 -29 -25 -6
-85 4 -85 15 0 10 170 38 235 38 49 1 47 0 -40 -24z m305 6 c-6 -11 -13 -20
-16 -20 -2 0 0 9 6 20 6 11 13 20 16 20 2 0 0 -9 -6 -20z m1505 11 c45 0 123
-19 85 -20 -31 -2 -90 -22 -90 -31 0 -6 39 -10 88 -10 53 -1 96 -6 111 -14 22
-12 21 -13 -28 -20 -72 -9 -61 -29 20 -37 35 -4 79 -13 98 -22 l34 -15 -44 -4
c-66 -6 -134 8 -176 36 -35 24 -36 26 -13 26 24 1 24 1 6 15 -11 8 -34 15 -52
15 -33 0 -113 29 -81 30 29 0 20 30 -10 31 -16 0 -44 7 -63 15 l-35 14 50 -5
c28 -2 73 -4 100 -4z m-1540 -29 c-5 -4 -30 -47 -54 -96 -37 -75 -45 -86 -54
-70 -6 11 -14 21 -18 24 -10 7 77 133 98 142 25 9 41 10 28 0z m-370 -62 c-17
-11 -60 -27 -95 -36 -36 -9 -73 -20 -82 -25 -10 -6 -19 -5 -23 1 -3 5 -23 10
-43 11 l-37 1 50 18 c28 10 75 19 105 19 30 1 66 8 80 15 14 8 36 14 50 15 25
1 25 0 -5 -19z m160 -115 c-30 -68 -31 -77 -8 -68 12 5 6 -8 -17 -37 l-35 -44
-3 32 c-5 48 -28 39 -57 -21 -24 -52 -86 -124 -72 -84 4 11 10 31 13 45 8 35
107 187 112 173 6 -18 20 -12 27 12 8 24 58 70 63 57 2 -4 -9 -33 -23 -65z
m-276 21 c-29 -29 -85 -55 -116 -54 -59 1 -73 -1 -73 -11 0 -5 15 -12 33 -15
24 -5 28 -9 17 -15 -25 -14 -100 -20 -97 -9 3 16 -62 31 -107 25 l-39 -6 43
26 c56 34 109 46 126 28 14 -14 52 -9 149 19 54 15 71 18 64 12z m2331 -26
c35 -7 75 -17 89 -24 23 -13 23 -13 -23 -25 -25 -6 -46 -16 -46 -22 0 -10 -68
40 -110 80 -12 12 -11 13 5 8 11 -3 49 -11 85 -17z m-2243 -77 c-6 -16 -22
-43 -34 -62 -13 -19 -23 -38 -23 -43 0 -14 -75 -120 -104 -147 -30 -29 -31
-23 -10 49 10 35 19 49 24 40 6 -9 11 -7 20 11 7 12 20 31 30 41 10 11 28 40
41 66 29 57 40 71 56 72 10 0 10 -6 0 -27z m2406 -25 l42 -22 -49 -7 c-42 -7
-53 -4 -87 18 -22 14 -39 27 -39 29 0 14 97 1 133 -18z m-2858 -19 c-49 -15
-95 -35 -101 -44 -6 -8 -20 -15 -30 -15 -33 0 93 69 144 79 83 16 79 10 -13
-20z m282 -47 c-9 -10 -26 -44 -36 -75 -22 -63 -85 -154 -126 -181 l-26 -17
15 28 c8 15 25 38 38 49 13 12 39 53 57 90 40 78 80 138 89 130 3 -3 -2 -14
-11 -24z m-251 -36 c-36 -29 -45 -33 -84 -28 -32 4 -43 2 -38 -7 4 -6 19 -11
34 -11 21 0 24 -2 13 -12 -11 -12 -141 -19 -141 -8 0 7 126 60 144 60 21 0 46
11 46 20 0 5 -12 11 -27 13 -16 2 -1 5 32 5 l60 2 -39 -34z m285 -3 c-12 -20
-14 -14 -5 12 4 9 9 14 11 11 3 -2 0 -13 -6 -23z m-188 -89 c-33 -72 -132
-187 -186 -215 l-22 -12 22 24 c12 13 26 37 32 52 15 39 -11 48 -47 15 -15
-14 -42 -35 -60 -47 -41 -28 -261 -141 -275 -141 -23 0 41 53 93 78 30 14 84
45 120 67 36 23 85 54 110 69 25 15 68 45 95 66 53 42 79 51 68 24 -4 -12 -2
-15 8 -12 8 2 16 15 17 28 3 21 32 54 40 46 1 -2 -6 -21 -15 -42z m-243 -21
c-14 -9 -30 -22 -36 -28 -47 -43 -65 -53 -113 -57 l-51 -5 57 35 c69 42 132
71 153 72 9 0 5 -7 -10 -17z m5385 -233 c236 -16 322 -37 473 -119 155 -84
306 -276 356 -452 19 -69 51 -261 67 -407 17 -159 2 -418 -30 -539 -11 -40
-58 -109 -68 -99 -2 2 3 28 12 58 13 41 19 124 26 365 l9 313 -25 105 c-36
155 -96 263 -230 414 -54 61 -173 149 -231 170 -31 12 -59 20 -61 17 -3 -2 26
-19 63 -38 78 -39 143 -101 196 -189 88 -145 116 -357 78 -594 -6 -33 -15 -91
-20 -129 -7 -41 -25 -95 -45 -135 -35 -69 -83 -141 -70 -106 4 11 19 49 32 85
71 188 90 380 52 531 -48 189 -138 305 -299 382 -112 53 -272 97 -357 97 l-60
0 6 33 c8 42 57 66 162 80 44 5 77 13 72 17 -19 18 -84 31 -120 24 -51 -10
-66 -8 -109 12 -24 12 -38 14 -42 6 -10 -14 -62 -10 -62 6 0 15 12 16 27 1 8
-8 13 -8 17 0 4 6 2 11 -4 11 -11 0 -22 24 -34 74 -7 28 -6 28 26 22 18 -3
105 -11 193 -16z m-7786 -137 l2 -146 -91 6 c-157 12 -355 -48 -495 -148 -109
-77 -163 -168 -200 -332 -13 -58 -26 -107 -28 -109 -9 -9 -28 130 -22 164 13
71 58 186 92 236 57 83 158 171 232 202 88 36 99 48 36 39 -98 -13 -301 -135
-289 -173 5 -14 4 -15 -5 -2 -8 12 -17 8 -52 -30 -23 -25 -60 -72 -80 -105
-21 -33 -47 -69 -57 -80 -22 -23 -45 -91 -62 -180 -18 -96 -8 -574 13 -650 34
-119 109 -185 209 -185 26 0 48 -3 48 -7 -1 -5 -11 -21 -24 -37 -21 -25 -29
-28 -58 -22 -49 9 -169 69 -195 97 -33 37 -53 128 -64 294 -16 255 9 548 62
727 44 151 140 299 253 390 150 120 401 193 677 197 l96 1 2 -147z m2888 32
c9 -24 -1 -27 -15 -5 -8 13 -8 20 -2 20 6 0 13 -7 17 -15z m-47 -21 c0 -2 -13
-4 -30 -4 -16 0 -30 4 -30 8 0 5 14 7 30 4 17 -2 30 -6 30 -8z m-200 -4 c0 -5
-7 -10 -16 -10 -8 0 -12 5 -9 10 3 6 10 10 16 10 5 0 9 -4 9 -10z m5052 -21
c-12 -5 -32 -5 -44 0 -18 6 -13 8 22 8 35 0 40 -2 22 -8z m-5127 -31 c-6 -25
-45 -35 -45 -11 0 7 6 13 14 13 8 0 17 7 20 16 9 25 18 10 11 -18z m119 8 c-7
-18 -20 -21 -29 -6 -3 6 1 10 9 10 9 0 16 5 16 12 0 6 2 9 5 6 3 -3 3 -13 -1
-22z m171 -26 c18 -20 17 -20 -18 -20 -30 0 -37 4 -37 20 0 13 7 20 18 20 11
0 27 -9 37 -20z m-218 -36 c-3 -3 -12 -4 -19 -1 -8 3 -5 6 6 6 11 1 17 -2 13
-5z m5270 -326 c133 -51 217 -185 218 -349 0 -67 -4 -83 -37 -150 -43 -87
-131 -189 -196 -226 -26 -14 -54 -33 -64 -40 -23 -20 -24 -12 -43 207 -9 102
-23 214 -31 250 -16 64 -56 146 -100 205 -13 17 -27 42 -33 56 -9 25 -7 28 37
47 26 12 56 23 67 26 36 9 122 -4 182 -26z m-7928 -35 c21 -5 23 -10 19 -57
-14 -173 -249 -426 -394 -426 -80 0 -89 8 -102 97 -16 104 -15 148 4 184 39
76 140 157 238 190 51 18 188 25 235 12z m7579 -146 c8 -9 7 -21 -3 -41 -8
-16 -15 -37 -15 -48 0 -25 -38 -101 -85 -172 -38 -58 -115 -141 -190 -207 -48
-42 -46 -34 4 20 13 14 35 43 49 64 19 28 28 35 34 25 6 -9 7 -6 4 8 -4 13 1
27 14 39 11 10 20 21 20 25 0 3 25 50 55 105 30 54 62 121 72 147 18 51 24 56
41 35z m-7525 -387 c10 -22 36 -61 57 -87 22 -25 37 -50 34 -55 -3 -5 0 -7 7
-6 7 2 21 -15 31 -37 10 -22 23 -47 28 -55 22 -33 75 -125 75 -130 0 -3 8 -16
17 -30 29 -43 106 -211 137 -300 51 -145 91 -374 90 -509 -1 -64 -5 -129 -8
-146 -7 -29 -8 -29 -15 15 -4 25 -16 92 -26 150 -11 58 -24 141 -29 186 -9 75
-30 144 -71 239 -82 188 -118 262 -146 295 -7 8 -20 35 -30 60 -9 25 -31 65
-48 90 -17 25 -32 47 -33 49 -14 21 -9 -34 16 -185 16 -99 32 -222 35 -274 l6
-95 -20 80 c-11 44 -29 121 -40 170 -29 124 -112 339 -149 386 -17 21 -31 43
-31 49 0 25 52 120 62 114 6 -4 8 -3 5 3 -6 10 13 63 23 63 3 0 13 -18 23 -40z
m-253 -446 c82 -44 133 -121 167 -247 26 -95 23 -307 -5 -417 -18 -70 -66
-203 -78 -219 -7 -8 -32 21 -37 42 -52 222 -199 627 -228 627 -16 0 -10 -47
16 -118 14 -38 27 -97 30 -133 3 -35 11 -95 17 -134 7 -41 12 -186 12 -350 l1
-280 -26 -45 c-28 -51 -44 -54 -103 -19 l-36 21 34 38 c89 98 87 426 -5 685
-49 139 -84 195 -136 216 -20 7 -21 11 -11 46 6 21 30 77 54 124 33 67 57 99
106 143 l63 57 57 -4 c36 -3 75 -15 108 -33z m-744 -443 c-3 -123 -6 -260 -6
-304 0 -44 -3 -77 -7 -74 -3 4 -11 0 -17 -8 -6 -7 -23 -17 -38 -21 -33 -7 -32
-34 -13 266 8 124 15 264 15 312 l0 88 36 -18 37 -17 -7 -224z m7418 187 c-4
-7 -21 -33 -37 -57 -23 -33 -32 -40 -39 -30 -8 11 -8 10 -4 -4 3 -10 -4 -33
-19 -55 -24 -38 -66 -113 -106 -192 -25 -49 -32 -59 -67 -97 -26 -28 -41 -26
-61 9 -13 23 -12 31 8 86 13 33 38 84 57 112 19 29 32 55 30 58 -3 2 -34 -12
-69 -32 -53 -29 -105 -77 -145 -131 -4 -5 -38 -47 -75 -93 -80 -99 -88 -116
-137 -302 l-38 -145 -1 75 c-1 53 7 102 25 165 36 128 35 125 47 118 6 -3 7
-1 3 6 -9 14 14 82 26 75 4 -3 5 2 2 10 -3 9 -2 16 3 16 5 0 10 6 10 13 0 21
69 131 110 174 27 29 56 47 103 63 36 12 115 45 175 73 61 28 118 50 129 49
10 0 15 2 12 6 -4 3 8 14 26 24 40 21 41 21 32 6z m782 -39 c32 -12 76 -39
100 -61 41 -37 90 -130 79 -148 -3 -4 -19 -11 -35 -15 -49 -11 -149 -118 -192
-205 -43 -88 -83 -207 -100 -297 -10 -57 -17 -69 -52 -99 -56 -48 -130 -68
-220 -59 -79 8 -215 47 -263 77 l-33 20 0 88 c0 152 43 313 115 435 35 60 114
149 168 190 115 88 308 121 433 74z m-10042 -49 c11 -10 -20 -27 -97 -52 -124
-40 -241 -127 -273 -203 -37 -90 -4 -152 115 -214 105 -54 205 -76 456 -96
337 -27 471 -66 552 -159 110 -128 159 -292 203 -686 16 -139 26 -125 -97
-140 -60 -7 -144 -16 -188 -21 -44 -4 -138 -13 -210 -21 -72 -7 -241 -13 -380
-13 -225 0 -259 3 -339 23 -166 42 -290 127 -361 247 -68 115 -88 232 -75 451
16 294 110 528 276 690 121 118 229 188 314 204 38 7 90 2 104 -10z m11250
-42 c4 -18 9 -81 13 -140 12 -218 -46 -398 -130 -398 -94 0 -153 134 -145 327
5 109 27 174 74 218 24 22 36 25 104 25 l78 0 6 -32z m-9058 -23 c40 -28 117
-211 126 -300 3 -29 -39 -145 -53 -145 -12 0 -58 108 -78 181 -21 80 -22 82
-44 73 -24 -9 -30 -55 -12 -97 9 -21 15 -66 15 -110 0 -51 8 -97 24 -148 50
-153 72 -189 118 -189 28 0 28 0 13 -30 -44 -86 -124 28 -177 253 -30 127 -33
388 -5 457 19 47 35 70 46 70 4 0 16 -7 27 -15z m1734 5 c8 -5 11 -10 5 -10
-5 0 -17 5 -25 10 -8 5 -10 10 -5 10 6 0 17 -5 25 -10z m85 -40 c28 -13 78
-33 112 -46 35 -13 71 -28 80 -33 23 -12 398 -138 483 -162 36 -10 139 -34
230 -53 91 -19 197 -42 235 -50 76 -16 196 -32 315 -40 41 -3 95 -10 120 -16
25 -5 95 -14 155 -20 61 -5 142 -14 180 -20 160 -22 1074 1 1205 30 25 5 104
17 177 25 73 8 163 21 200 29 37 8 95 17 128 21 33 4 175 36 315 72 341 87
311 82 270 47 -54 -46 -117 -94 -124 -94 -3 0 -25 -9 -49 -20 -57 -26 -160
-50 -347 -80 -36 -5 -78 -15 -95 -20 -16 -6 -86 -15 -155 -20 -69 -6 -192 -17
-275 -25 -82 -8 -193 -17 -245 -20 -52 -3 -142 -10 -200 -15 -58 -5 -244 -14
-415 -21 -273 -10 -330 -10 -475 5 -556 55 -880 128 -1345 301 -206 77 -526
223 -541 247 -4 6 -3 9 2 6 5 -3 32 -16 59 -28z m6323 -159 c56 -40 111 -222
119 -397 10 -207 -33 -397 -122 -539 -62 -99 -103 -136 -158 -142 -40 -5 -48
-2 -85 32 -46 41 -91 142 -112 253 -21 103 -7 355 25 477 58 220 160 353 262
342 22 -2 55 -14 71 -26z m-6849 -25 c15 -13 242 -133 423 -223 242 -120 795
-314 1008 -353 36 -6 97 -18 135 -25 78 -16 341 -52 480 -67 460 -47 1032 -48
1485 -3 80 8 190 19 245 24 154 15 325 40 490 71 83 15 193 35 245 45 52 9
166 36 252 61 87 24 162 44 168 44 5 0 10 -13 10 -28 0 -33 23 -23 -245 -107
-168 -52 -519 -145 -610 -161 -22 -4 -47 -10 -56 -15 -9 -5 -72 -18 -140 -29
-68 -11 -162 -27 -209 -35 -47 -8 -164 -20 -260 -25 -194 -12 -221 -16 -214
-34 6 -14 -134 -26 -308 -26 -54 0 -98 -4 -98 -9 0 -22 149 -42 297 -40 382 6
592 -5 690 -36 45 -15 109 -75 119 -111 7 -26 -15 -71 -48 -100 -32 -29 -137
-98 -184 -122 -98 -49 -330 -110 -474 -123 -58 -5 -134 -13 -168 -17 -81 -10
-348 3 -472 23 -52 8 -147 19 -210 25 -146 13 -181 20 -428 86 -303 81 -676
212 -827 290 -121 63 -352 239 -422 322 -61 71 -75 109 -48 128 22 17 55 11
180 -33 54 -20 135 -42 180 -50 44 -8 152 -32 240 -53 88 -22 194 -46 235 -54
41 -9 118 -25 170 -36 182 -40 204 -42 324 -37 66 4 123 10 128 15 11 11 -84
39 -178 52 -181 24 -201 29 -454 119 -173 62 -257 89 -410 130 -63 17 -146 42
-185 55 -277 96 -504 187 -585 235 -36 21 -87 51 -115 66 -116 65 -150 94
-173 148 -13 30 -7 34 17 13z m9388 -130 c40 -19 87 -45 105 -58 52 -36 152
-121 168 -142 8 -11 34 -44 57 -73 69 -85 110 -169 148 -308 30 -108 38 -155
44 -279 16 -287 -24 -432 -155 -563 -62 -62 -159 -112 -279 -144 -175 -46
-582 -36 -1050 27 -60 8 -125 14 -144 14 l-33 0 6 78 c7 80 29 251 46 359 22
137 90 296 160 375 88 101 201 133 570 163 320 26 452 63 525 147 46 55 52 92
25 155 -44 103 -143 172 -360 249 -12 5 -12 8 4 20 32 23 87 16 163 -20z
m-137 -86 c0 -5 -9 -6 -20 -3 -11 3 -20 9 -20 13 0 5 9 6 20 3 11 -3 20 -9 20
-13z m-11414 -45 c145 -48 304 -145 394 -240 l35 -36 -51 25 c-92 46 -166 59
-314 57 -74 -1 -186 -3 -247 -4 -111 -2 -113 -2 -140 26 -23 22 -28 36 -28 75
0 39 6 55 34 91 l35 44 102 -6 c71 -4 126 -14 180 -32z m11391 -27 c-3 -7 -5
-2 -5 12 0 14 2 19 5 13 2 -7 2 -19 0 -25z m-10837 -22 c0 -80 118 -342 199
-443 l49 -61 -48 -21 c-27 -12 -51 -21 -53 -21 -2 0 -9 26 -16 58 -7 31 -28
89 -47 127 -47 97 -159 251 -217 296 l-48 38 58 16 c32 9 69 20 83 25 38 13
40 12 40 -14z m10908 -26 c21 0 10 -10 -17 -15 -23 -4 -24 -4 -14 21 4 11 8
13 11 6 2 -7 11 -12 20 -12z m128 -13 c-1 -18 -6 -22 -23 -19 -13 2 -20 8 -17
13 3 5 10 7 15 4 5 -4 12 1 15 9 9 22 12 20 10 -7z m-4349 -179 c-3 -8 -6 -5
-6 6 -1 11 2 17 5 13 3 -3 4 -12 1 -19z m3243 -114 c30 -14 69 -34 86 -45 l32
-19 -62 -63 c-46 -47 -71 -83 -101 -147 l-39 -86 -85 48 c-99 55 -215 88 -307
88 -145 0 -335 -72 -433 -164 -40 -37 -43 -38 -26 -11 33 55 45 69 106 132 74
77 157 137 269 195 137 71 241 96 400 97 92 1 112 -2 160 -25z m-8243 -120
c192 -120 448 -243 823 -394 113 -45 216 -86 230 -90 14 -5 77 -27 140 -50
320 -116 599 -203 705 -219 39 -6 111 -18 160 -26 50 -9 155 -22 235 -30 80
-8 181 -19 225 -25 134 -16 591 -33 735 -26 298 13 480 27 585 45 61 11 135
22 165 26 51 6 252 43 450 84 279 58 647 174 731 231 l41 27 59 -26 c33 -14
59 -28 59 -31 -1 -12 -409 -160 -605 -220 -165 -49 -391 -97 -745 -156 -303
-51 -870 -75 -1280 -55 -227 11 -268 15 -460 50 -58 11 -145 25 -195 31 -81
11 -314 65 -708 166 -76 19 -202 57 -280 83 -236 81 -646 261 -807 356 -42 25
-95 55 -117 67 -23 13 -101 59 -172 103 l-131 80 4 40 c6 49 5 45 10 45 3 0
67 -39 143 -86z m7362 51 c45 -14 81 -28 81 -30 0 -3 -29 -27 -64 -55 -113
-88 -230 -291 -259 -446 l-12 -65 -44 23 c-68 36 -69 42 -15 138 77 140 144
320 144 391 0 20 9 33 33 48 40 26 40 26 136 -4z m-9404 -26 c89 -25 165 -105
180 -191 10 -53 -19 -174 -63 -261 -39 -78 -158 -211 -166 -186 -2 8 -6 21 -9
29 -2 8 15 35 38 60 51 56 117 167 140 237 19 59 14 84 -37 186 -31 62 -43 73
-35 30 l6 -28 -12 28 c-18 44 -31 26 -42 -56 -10 -73 -19 -97 -31 -85 -3 4
-12 56 -19 117 -8 61 -17 116 -20 121 -8 13 20 13 70 -1z m-158 -157 c19 -152
42 -515 33 -525 -4 -5 -26 -13 -49 -18 -72 -16 -271 40 -271 76 0 8 1 15 3 15
1 0 24 -7 51 -15 57 -17 158 -20 187 -5 16 9 19 22 19 88 0 137 -48 424 -51
302 0 -27 -2 -31 -8 -15 -5 13 -10 -2 -14 -49 -4 -38 -9 -71 -12 -74 -3 -3
-15 3 -26 15 -14 14 -23 38 -26 73 -8 89 1 112 74 184 37 36 69 63 72 61 2 -3
10 -53 18 -113z m9161 -133 c-111 -226 -274 -362 -490 -408 -121 -26 -322 -29
-434 -6 -129 27 -275 97 -347 168 -37 35 -80 99 -91 135 -8 23 -7 23 22 8 16
-8 32 -22 35 -30 9 -23 103 -73 191 -101 107 -35 230 -41 436 -21 187 18 300
43 380 85 90 47 191 116 260 180 36 32 66 58 68 57 1 -2 -12 -32 -30 -67z
m-8182 40 c19 -11 34 -24 34 -28 0 -5 -21 -16 -47 -25 -27 -9 -95 -37 -153
-62 -149 -65 -140 -64 -140 -16 0 36 4 43 36 63 56 34 186 89 213 89 13 0 39
-9 57 -21z m8964 -148 c0 -42 -26 -181 -46 -249 -26 -84 -42 -104 -69 -82 -27
22 -66 117 -72 174 -3 31 -9 56 -12 55 -20 -1 -56 -70 -67 -128 -21 -104 -17
-178 10 -237 29 -63 97 -122 148 -130 32 -6 38 -11 38 -30 0 -27 -4 -28 -51
-13 -121 41 -212 200 -210 367 2 117 39 186 128 235 63 34 203 60 203 38z
m-7310 -109 c225 -116 365 -174 641 -267 265 -90 380 -122 589 -164 85 -18
225 -47 310 -66 85 -18 196 -39 245 -45 50 -6 121 -15 158 -20 38 -5 87 -12
110 -15 23 -2 87 -10 142 -16 115 -14 938 -4 1015 11 25 5 117 14 205 20 88 6
180 16 205 21 25 6 86 17 135 25 91 15 456 98 595 135 163 44 448 149 655 240
50 22 97 44 107 49 11 6 20 4 29 -6 6 -8 10 -16 8 -18 -15 -11 -173 -97 -210
-114 -352 -160 -556 -229 -964 -326 -82 -19 -170 -38 -195 -42 -25 -4 -48 -11
-51 -16 -3 -5 -45 -13 -94 -19 -49 -5 -107 -14 -129 -19 -23 -5 -62 -12 -89
-15 -30 -4 -45 -10 -41 -17 5 -8 86 -9 279 -5 297 8 379 15 563 53 68 14 127
23 130 20 3 -3 -1 -6 -9 -6 -8 0 -52 -18 -97 -39 -220 -107 -721 -217 -1142
-252 -129 -11 -444 -5 -585 10 -280 31 -372 42 -385 46 -8 2 -76 14 -150 25
-259 39 -345 56 -650 127 -87 20 -352 104 -365 115 -10 9 17 5 130 -17 225
-46 715 -89 715 -63 0 4 -26 12 -57 18 -32 7 -110 23 -173 37 -63 14 -162 33
-220 43 -58 10 -166 37 -240 60 -74 23 -157 49 -185 57 -27 8 -54 19 -60 24
-5 5 -17 9 -26 9 -9 0 -22 6 -28 14 -15 17 -94 46 -253 90 -210 59 -351 120
-511 220 -107 67 -243 172 -251 193 -5 12 -3 13 6 6 7 -6 92 -51 188 -101z
m7477 51 c87 -57 109 -89 117 -172 12 -124 -12 -210 -70 -248 -22 -14 -26 -14
-43 1 -21 19 -20 10 -29 171 -7 132 -13 155 -36 155 -15 0 -27 -45 -15 -57 4
-4 -4 -60 -17 -123 -15 -72 -24 -149 -24 -206 0 -85 2 -93 26 -118 18 -17 37
-26 58 -26 50 1 119 19 148 40 34 25 38 25 38 0 0 -15 -18 -28 -72 -54 -96
-44 -136 -51 -186 -31 -54 22 -77 68 -68 139 3 28 10 114 16 191 5 77 16 194
25 260 8 65 15 123 15 127 0 12 63 -14 117 -49z m-7830 -375 c-4 -128 -11
-273 -17 -323 -14 -125 -48 -282 -71 -326 -17 -35 -72 -86 -129 -120 -19 -12
-114 -49 -125 -49 -1 0 0 11 2 25 4 16 15 28 37 35 44 14 133 95 157 142 24
46 52 194 70 359 13 125 8 172 -16 163 -9 -4 -15 -1 -15 7 0 20 -88 98 -137
120 -128 59 -780 62 -1009 4 -101 -25 -177 -61 -211 -97 -19 -19 -86 -135
-140 -239 -32 -64 -43 -236 -22 -374 6 -38 14 -108 18 -153 7 -71 12 -88 34
-110 23 -22 34 -25 99 -26 40 -1 85 3 99 7 24 8 27 6 32 -29 4 -21 5 -39 4
-40 -1 -2 -50 -15 -108 -31 -120 -31 -168 -27 -201 17 -38 51 -62 357 -63 806
0 258 -4 246 103 287 93 36 463 96 777 127 61 6 146 15 190 21 99 11 313 23
504 27 l144 3 -6 -233z m6848 167 c39 -24 122 -65 158 -78 10 -4 17 -17 17
-31 0 -23 -2 -24 -37 -14 -87 24 -203 101 -203 135 0 19 20 16 65 -12z m-168
-121 c26 -9 80 -35 118 -58 39 -24 91 -55 116 -69 66 -37 71 -65 22 -109 -38
-35 -355 -64 -458 -43 -14 3 -36 7 -50 10 -32 7 -35 -19 -4 -36 46 -24 212
-49 330 -49 158 0 252 21 296 65 35 35 38 35 66 -28 l17 -37 -31 -19 c-37 -22
-140 -48 -253 -62 -153 -19 -412 21 -501 78 -47 31 -55 55 -55 178 0 97 32
123 185 155 33 7 71 18 85 26 33 18 60 17 117 -2z m-992 -41 c-20 -80 -197
-239 -410 -369 -182 -111 -528 -225 -950 -314 -55 -11 -129 -27 -165 -35 -74
-17 -317 -49 -500 -66 -150 -15 -847 -15 -1035 0 -116 8 -320 32 -534 61 -181
24 -529 99 -726 156 -170 48 -486 169 -643 246 -167 81 -343 222 -388 310
l-17 33 24 -21 c13 -11 40 -35 59 -53 96 -89 288 -199 483 -275 105 -42 183
-66 562 -177 55 -16 136 -41 180 -54 44 -13 159 -38 255 -55 96 -16 213 -37
260 -45 46 -9 150 -20 229 -26 79 -5 147 -12 151 -14 4 -2 121 -17 261 -32
421 -45 772 -35 1119 32 41 8 148 26 238 40 183 28 245 43 482 114 406 122
619 218 890 401 60 41 170 144 170 160 0 6 3 10 6 10 3 0 3 -12 -1 -27z m254
-93 c1 -31 38 -240 71 -405 12 -59 45 -96 116 -131 41 -20 56 -23 78 -14 33
12 33 12 39 -98 l5 -84 -26 7 c-83 20 -211 119 -238 184 -24 56 -76 350 -90
499 -5 62 -3 76 12 93 17 19 19 19 25 2 4 -10 8 -34 8 -53z m-6568 -5 c17 -78
5 -123 -42 -147 -43 -22 -153 -37 -277 -38 -51 0 -91 -4 -88 -8 10 -17 148
-34 293 -35 164 -1 210 11 264 69 37 41 63 115 56 164 -5 39 -4 40 25 40 l30
0 -7 -76 c-4 -41 -12 -96 -18 -121 -11 -41 -18 -49 -57 -69 -62 -31 -238 -72
-341 -78 -60 -4 -121 0 -210 14 -215 35 -234 47 -274 175 -14 44 -25 86 -25
93 0 6 12 15 28 18 15 4 52 13 82 20 30 8 81 14 115 15 33 0 78 4 100 8 22 5
106 9 187 10 l147 1 12 -55z m-3571 -84 c20 -8 117 -17 227 -21 166 -7 204
-12 275 -34 111 -35 156 -68 191 -136 38 -77 44 -133 52 -470 9 -412 -15 -558
-107 -649 -95 -96 -248 -73 -279 41 -7 27 -6 64 2 125 18 136 5 308 -35 467
-19 72 -39 143 -44 158 -12 30 -43 52 -84 62 -37 9 -53 -18 -73 -124 -8 -47
-20 -107 -25 -135 -31 -159 -53 -424 -56 -655 -2 -135 -6 -262 -10 -283 -4
-24 -2 -48 6 -61 11 -21 61 -58 85 -62 203 -41 578 -70 666 -53 24 4 67 8 95
9 28 0 133 20 233 45 100 25 185 44 189 43 15 -5 143 36 153 48 6 8 17 14 24
14 14 0 22 19 54 120 11 36 32 97 46 135 l25 70 -4 -165 c-8 -268 -11 -279
-58 -280 -10 0 -46 -11 -80 -24 -271 -104 -571 -156 -898 -156 -306 0 -476 28
-573 93 -65 44 -81 82 -73 171 10 121 25 467 33 796 9 339 9 367 -1 715 -4
127 -3 225 1 219 4 -6 24 -16 43 -23z m3773 -393 c-12 -106 -22 -200 -22 -209
-2 -31 -148 -80 -298 -100 -95 -13 -231 -4 -398 24 -67 12 -70 13 -76 44 -9
46 -22 413 -15 413 4 0 33 -14 66 -30 137 -69 348 -86 556 -45 22 5 23 20 -5
-179 -5 -38 -15 -72 -21 -76 -29 -18 -176 -35 -297 -35 -118 1 -131 -1 -123
-15 13 -25 162 -45 325 -45 173 1 206 13 245 90 23 46 25 61 25 181 l0 132 30
20 c17 11 30 21 30 21 0 1 -10 -86 -22 -191z m6863 122 c105 -37 218 -51 344
-44 63 3 127 10 143 14 l27 9 -6 -57 c-9 -97 -23 -152 -45 -181 -31 -43 -109
-48 -318 -21 -157 20 -186 20 -165 1 13 -13 235 -59 329 -68 167 -17 243 3
282 73 32 58 65 180 66 245 2 56 3 59 38 78 51 29 65 13 50 -61 -15 -75 -41
-257 -41 -287 0 -14 -5 -42 -10 -61 l-10 -36 -142 -22 c-79 -12 -170 -22 -203
-22 -118 0 -370 53 -406 86 -12 11 -19 30 -19 53 0 20 -6 72 -14 116 -8 44
-17 120 -21 169 l-8 89 35 -26 c19 -15 61 -36 94 -47z m3092 10 c34 -6 77 -19
95 -29 l32 -18 -2 -224 c-1 -123 -3 -305 -4 -404 -3 -296 15 -860 38 -1194 4
-56 2 -71 -8 -66 -8 5 -10 4 -5 -3 10 -16 -35 -74 -52 -67 -7 2 -11 1 -8 -3
12 -20 -130 -64 -289 -91 -325 -55 -932 22 -1225 157 -25 11 -54 22 -65 24
-16 3 -20 12 -22 53 0 28 -7 187 -13 353 -7 167 -9 334 -5 370 3 37 11 132 16
212 17 276 27 385 38 440 7 30 14 65 17 78 2 13 9 20 14 17 6 -4 10 -88 10
-208 0 -247 19 -1086 25 -1118 13 -68 19 -87 37 -119 30 -54 54 -66 193 -94
72 -15 171 -35 220 -46 123 -28 374 -60 466 -60 77 0 251 22 324 41 128 34
176 98 189 249 3 30 10 109 15 175 13 152 14 587 1 770 -11 157 -33 298 -58
383 -20 64 -43 80 -105 68 -66 -12 -70 -32 -78 -346 -8 -319 -17 -388 -65
-490 -51 -107 -113 -158 -178 -144 -75 15 -114 91 -126 244 -12 151 5 697 25
785 8 38 15 83 15 98 0 72 71 150 170 187 73 26 263 37 368 20z m-8707 -50
c15 -7 32 -22 39 -34 7 -11 54 -59 105 -106 51 -47 90 -89 87 -94 -3 -5 0 -6
6 -2 6 4 20 -1 30 -11 30 -30 274 -156 382 -197 74 -28 128 -42 215 -53 33 -4
60 -12 60 -18 0 -20 -96 -16 -227 10 -221 42 -281 72 -548 272 -107 80 -229
220 -214 245 4 6 3 8 -3 5 -6 -4 -13 0 -17 8 -6 16 6 12 85 -25z m6789 -284
c0 -56 -18 -160 -38 -225 -12 -38 -23 -56 -40 -62 -40 -15 -147 -10 -214 11
-34 11 -71 20 -82 20 -17 0 -18 6 -12 67 4 37 9 69 11 71 2 3 23 -12 46 -32
24 -20 49 -36 56 -36 7 0 13 -9 13 -20 0 -40 127 -20 148 23 17 34 43 157 44
209 l1 46 34 -16 c29 -14 33 -20 33 -56z m-3304 -55 c5 -5 36 -17 69 -27 122
-36 651 -25 785 16 19 6 48 13 65 15 l30 5 -30 -18 c-56 -34 -119 -54 -245
-78 -159 -31 -303 -32 -443 -3 -106 21 -257 74 -257 90 0 11 13 12 26 0z
m-283 -61 c-77 -95 -147 -169 -154 -164 -5 3 -6 -3 -2 -13 3 -10 3 -15 -1 -11
-4 3 -22 -8 -39 -26 -70 -70 -239 -164 -342 -190 -222 -57 -383 -61 -561 -16
-66 16 -120 30 -122 30 -2 0 -1 4 2 8 3 5 -1 9 -8 9 -22 0 -76 25 -76 34 0 5
-7 9 -15 9 -8 0 -24 9 -34 19 -11 11 -22 17 -25 14 -8 -8 -163 151 -171 176
-7 22 -43 82 -66 109 -9 11 -5 13 22 10 28 -3 40 -13 86 -78 29 -41 65 -86 80
-99 16 -14 27 -29 25 -35 -2 -6 -1 -8 3 -4 4 3 37 -13 73 -36 97 -63 137 -81
228 -104 122 -32 222 -37 334 -17 191 33 334 85 443 159 21 15 43 24 48 20 5
-3 8 -2 7 3 -2 5 20 35 49 68 29 33 63 76 75 95 21 31 31 36 88 45 36 6 66 10
68 9 2 -1 -5 -12 -15 -24z m-4489 -37 c-13 -90 -36 -225 -54 -313 -11 -52 -24
-120 -30 -152 -13 -65 -23 -72 -152 -108 -95 -26 -211 -28 -294 -6 -34 9 -73
16 -88 16 -29 0 -41 18 -49 75 -3 22 -17 105 -31 185 -14 80 -26 163 -26 185
0 22 -4 56 -10 74 -5 19 -9 36 -7 37 1 1 43 -7 92 -17 65 -13 133 -19 244 -19
l154 0 -7 -102 c-10 -153 -25 -225 -52 -257 -29 -35 -99 -54 -162 -45 -66 10
-46 -11 34 -36 108 -33 266 -20 303 24 6 7 16 60 22 117 6 57 19 149 30 204
10 55 19 110 19 122 0 14 10 27 28 36 40 22 41 21 36 -20z m6903 11 c83 -37
187 -54 325 -54 l121 0 -7 -132 c-7 -141 -19 -204 -46 -253 l-17 -30 -127 1
c-139 1 -156 -8 -70 -38 60 -21 236 -24 274 -5 65 33 120 223 120 413 0 35 3
64 8 64 4 1 26 5 50 9 33 7 42 5 42 -6 0 -26 -61 -407 -70 -443 -6 -19 -10
-47 -10 -62 0 -21 -6 -29 -22 -32 -253 -51 -245 -51 -332 -34 -115 22 -198 57
-213 88 -11 24 -64 326 -78 450 -4 30 -9 63 -11 73 -7 22 -5 22 63 -9z m116
-661 c51 -26 97 -37 205 -49 l52 -6 0 -48 c0 -80 -10 -110 -44 -131 -17 -10
-41 -19 -54 -19 -38 0 -23 -33 18 -42 117 -24 190 56 190 210 0 55 2 60 24 66
13 3 31 9 40 12 24 9 21 -26 -13 -155 -47 -181 -64 -196 -210 -186 -91 7 -102
10 -129 36 -41 40 -88 140 -116 248 -13 50 -22 91 -19 91 2 0 27 -12 56 -27z
m-7154 -15 c-5 -18 -19 -67 -30 -108 -24 -85 -69 -170 -104 -199 -18 -14 -49
-20 -119 -26 -113 -8 -142 2 -171 60 -23 44 -82 271 -74 279 3 3 37 -3 75 -14
45 -13 99 -20 156 -20 49 0 88 -3 88 -7 0 -5 -12 -45 -26 -90 -27 -81 -27 -81
-70 -92 -53 -14 -61 -25 -32 -45 28 -20 88 -21 132 -2 42 18 81 94 98 194 11
63 15 72 42 85 44 22 46 21 35 -15z m-2019 -703 c-6 -71 -16 -166 -21 -210 -5
-44 -9 -104 -9 -135 0 -117 -63 -276 -145 -367 -70 -79 -190 -126 -388 -154
-152 -21 -450 10 -647 66 -177 51 -319 122 -392 196 -103 106 -128 183 -128
399 0 126 22 375 33 387 3 2 19 -8 36 -23 44 -37 162 -81 267 -99 204 -36 552
-38 724 -5 30 6 83 14 117 19 l63 7 -5 -35 c-3 -20 -9 -67 -14 -106 -30 -215
-50 -286 -91 -315 l-28 -20 -5 28 c-3 15 -11 72 -18 127 -6 55 -18 107 -25
115 -12 12 -14 9 -14 -22 0 -20 -7 -72 -15 -115 -8 -43 -15 -93 -15 -111 0
-26 -5 -34 -27 -43 -53 -20 -56 -12 -49 134 6 121 -3 216 -17 177 -21 -59 -28
-96 -38 -194 -14 -140 -13 -136 -49 -136 -17 0 -33 6 -35 13 -2 6 -9 66 -14
132 -5 66 -15 134 -21 150 l-13 30 -8 -35 c-4 -19 -10 -73 -14 -120 -11 -162
-13 -168 -40 -162 -24 4 -25 6 -25 100 0 52 -5 112 -12 133 -22 75 -42 40 -52
-91 -9 -119 -13 -130 -46 -130 -35 0 -40 12 -41 113 0 45 -4 91 -9 102 -7 18
-9 18 -20 -10 -6 -16 -14 -65 -17 -108 -3 -43 -10 -80 -15 -83 -5 -3 -19 -3
-31 0 -20 5 -24 15 -34 103 -23 191 -50 207 -60 37 -6 -94 -8 -100 -29 -86
-14 8 -59 114 -69 160 -5 27 -11 33 -28 30 -20 -3 -23 -12 -30 -83 -12 -118
-4 -235 17 -270 25 -43 126 -119 209 -160 140 -67 281 -107 417 -118 160 -13
250 -1 432 60 255 84 282 119 328 423 11 74 23 142 26 149 3 8 9 87 15 175 5
88 13 164 19 170 5 5 31 16 57 25 l48 16 3 -50 c2 -27 -1 -108 -8 -180z
m10764 -440 c3 -203 7 -244 29 -346 74 -334 141 -384 507 -383 127 0 212 5
270 16 47 9 111 19 144 22 69 8 248 73 325 119 144 86 209 202 227 406 5 59 3
81 -5 81 -6 0 -16 -10 -21 -22 -7 -20 -9 -17 -10 17 l-2 40 -19 -60 c-11 -33
-26 -74 -34 -91 -17 -35 -52 -70 -62 -60 -4 3 -6 55 -5 114 2 111 -5 145 -26
119 -10 -11 -41 -170 -45 -229 -1 -9 -3 -15 -6 -13 -2 3 -12 -2 -22 -11 -19
-17 -55 -15 -52 4 23 109 24 149 9 186 -9 22 -18 37 -21 34 -3 -3 -13 -36 -24
-75 -25 -96 -75 -183 -106 -183 -22 0 -23 0 -18 108 8 167 -22 241 -46 115
-31 -160 -60 -233 -93 -233 -20 0 -21 3 -14 113 3 61 2 127 -2 146 -8 38 -32
55 -32 23 0 -10 -11 -64 -25 -118 -14 -54 -27 -107 -30 -116 -9 -41 -26 -58
-57 -58 -30 0 -30 1 -24 38 12 77 19 210 12 238 -7 27 -8 28 -19 9 -6 -11 -23
-76 -37 -145 l-26 -125 -38 -3 c-38 -3 -38 -3 -32 25 9 45 20 223 12 223 -8 0
-51 -96 -72 -166 -32 -99 -54 -49 -56 126 -1 115 5 145 39 178 7 7 13 20 13
29 0 11 6 14 23 9 121 -34 592 -32 755 3 115 24 223 65 263 98 19 16 34 22 39
17 16 -16 35 -211 34 -349 -2 -333 -90 -471 -370 -579 -176 -68 -494 -127
-674 -126 -88 1 -261 27 -330 50 -195 66 -310 235 -331 485 -4 55 -15 185 -23
290 -9 104 -16 211 -16 237 l0 48 61 -23 60 -23 3 -229z m-11859 -510 c50 -9
122 -23 160 -32 50 -11 123 -16 250 -17 164 -1 180 -3 183 -19 6 -29 -85 -113
-138 -127 -54 -15 -230 -8 -365 15 -107 17 -115 18 -115 5 0 -17 158 -59 269
-71 179 -20 340 8 442 76 49 32 99 100 99 134 0 14 4 31 8 37 9 15 72 47 72
37 0 -5 -13 -53 -29 -108 -32 -112 -30 -110 -181 -181 -134 -64 -283 -79 -480
-50 -126 20 -207 46 -288 94 l-68 41 -22 104 c-12 57 -22 107 -22 110 0 3 30
-3 68 -14 37 -10 108 -26 157 -34z m13008 48 c-7 -2 -19 -2 -25 0 -7 3 -2 5
12 5 14 0 19 -2 13 -5z m-13058 -367 c90 -43 215 -73 335 -81 145 -9 227 -24
234 -42 4 -9 4 -30 0 -47 -16 -88 -118 -131 -275 -115 -166 16 -189 17 -189 9
0 -13 136 -50 244 -67 l100 -15 85 28 c55 18 98 39 121 60 45 40 84 118 106
205 13 52 23 72 46 89 l29 21 -7 -28 c-12 -51 -85 -278 -96 -299 -11 -23 -131
-84 -208 -105 -69 -20 -291 -17 -369 5 -107 29 -201 83 -201 116 0 8 -16 78
-35 155 -19 77 -35 148 -35 159 0 17 1 18 23 2 12 -9 54 -32 92 -50z m13111
-43 c-2 -10 -12 -54 -21 -98 -23 -105 -32 -123 -76 -146 -135 -68 -281 -102
-448 -102 -182 -1 -327 32 -431 98 -53 34 -68 59 -85 146 -7 41 -17 82 -21 92
-6 17 -5 17 30 1 28 -14 39 -27 51 -65 37 -110 120 -172 275 -205 127 -27 338
-1 462 56 31 15 48 44 20 36 -122 -37 -182 -48 -282 -53 l-115 -6 -69 52 c-38
28 -80 68 -94 88 l-25 36 49 -9 c89 -16 293 -6 441 21 76 14 173 32 216 40 42
8 85 19 95 24 25 15 34 13 28 -6z m-61 -330 c-3 -21 -20 -99 -37 -173 -37
-159 -42 -165 -166 -209 -109 -38 -182 -51 -292 -51 -109 0 -186 20 -278 72
l-73 42 -36 115 c-39 126 -63 221 -56 221 3 0 22 -12 44 -27 32 -24 40 -37 50
-83 19 -90 50 -184 68 -204 28 -32 179 -96 226 -96 60 0 290 56 351 85 48 23
81 61 73 83 -2 5 -35 -3 -74 -19 -135 -54 -347 -67 -395 -24 -17 15 -90 153
-90 170 0 1 64 0 143 -3 110 -4 162 -1 227 12 97 20 246 74 287 104 15 12 29
22 31 22 2 0 0 -17 -3 -37z m-12906 -93 c30 -11 90 -25 135 -31 101 -12 166
-29 166 -41 0 -6 -10 -28 -22 -49 -18 -33 -28 -39 -67 -46 -25 -4 -88 -8 -138
-8 -51 0 -93 -3 -93 -7 0 -13 101 -38 181 -44 95 -8 152 6 204 49 39 32 85
115 85 154 0 17 10 27 37 38 20 8 37 14 39 13 7 -7 -60 -149 -94 -197 -58 -85
-76 -95 -192 -99 -97 -4 -209 9 -254 29 -12 6 -34 29 -49 51 -27 42 -79 179
-90 236 l-7 33 53 -30 c28 -16 76 -39 106 -51z m12796 -372 c-40 -126 -70
-206 -86 -230 -28 -39 -97 -59 -229 -65 -180 -8 -228 14 -291 139 -29 57 -70
160 -66 164 1 1 20 -10 42 -25 31 -21 46 -42 70 -100 36 -88 61 -110 136 -118
77 -8 276 34 256 53 -2 2 -47 -1 -100 -7 -111 -14 -115 -12 -152 62 l-24 47
22 6 c12 3 46 6 75 6 73 0 205 35 282 74 36 18 68 34 72 34 4 1 1 -17 -7 -40z"/>
<path d="M9818 17574 c-2 -1 -46 -7 -98 -13 -210 -23 -336 -50 -540 -117 -150
-49 -361 -191 -345 -233 3 -8 3 -12 -1 -9 -9 10 -33 -16 -49 -56 -18 -43 -20
-179 -3 -227 20 -60 105 -155 188 -211 57 -38 196 -118 206 -118 5 0 22 -7 37
-15 72 -37 311 -95 502 -120 169 -23 531 -33 520 -15 -6 10 -4 11 11 5 22 -10
69 -8 214 6 379 36 716 162 897 336 48 46 72 76 67 84 -4 8 -3 9 4 5 21 -13
66 93 66 154 0 68 -21 114 -80 174 -63 63 -134 103 -314 179 -385 161 -585
199 -1047 196 -128 -1 -234 -3 -235 -5z m702 -178 c327 -44 553 -125 650 -234
27 -30 46 -60 44 -67 -8 -20 -159 -82 -294 -120 -148 -42 -359 -81 -485 -89
-49 -4 -152 -14 -227 -23 -129 -16 -153 -16 -385 0 -254 17 -338 31 -498 84
-166 54 -282 132 -299 199 -7 25 -3 33 26 58 39 34 151 88 228 110 107 31 406
88 505 96 146 12 599 4 735 -14z m-1473 -385 c77 -66 152 -99 315 -141 403
-103 829 -105 1358 -6 194 36 430 116 481 162 33 30 31 8 -3 -37 -48 -63 -109
-100 -249 -151 -146 -53 -258 -81 -429 -105 -180 -25 -704 -25 -875 0 -290 43
-527 131 -635 235 -48 47 -50 50 -50 103 l1 54 19 -36 c11 -21 41 -55 67 -78z
m1283 -391 c10 -6 2 -7 -25 -3 -49 7 -58 13 -19 13 16 0 36 -5 44 -10z m-110
-14 c0 -2 -16 -6 -35 -8 -19 -2 -35 0 -35 4 0 4 16 8 35 8 19 0 35 -2 35 -4z
m87 -2 c-3 -3 -12 -4 -19 -1 -8 3 -5 6 6 6 11 1 17 -2 13 -5z m46 -11 c-7 -2
-19 -2 -25 0 -7 3 -2 5 12 5 14 0 19 -2 13 -5z m4 -38 c0 -12 -3 -12 -16 -3
-9 7 -18 14 -20 15 -2 2 5 3 16 3 11 0 20 -7 20 -15z m83 -39 c0 -7 -9 -16
-20 -19 -20 -5 -24 12 -5 25 15 12 25 9 25 -6z m7 -52 c-3 -3 -12 -4 -19 -1
-8 3 -5 6 6 6 11 1 17 -2 13 -5z m-234 -11 c-7 -2 -19 -2 -25 0 -7 3 -2 5 12
5 14 0 19 -2 13 -5z m-60 -10 c-7 -2 -21 -2 -30 0 -10 3 -4 5 12 5 17 0 24 -2
18 -5z"/>
<path d="M10190 17323 c-116 -15 -118 -25 -7 -42 94 -14 329 -60 334 -65 13
-13 -349 -19 -921 -17 -188 1 -236 8 -145 20 22 3 40 11 40 16 0 17 -40 23
-152 24 -99 1 -110 -1 -167 -29 -70 -36 -85 -66 -57 -119 29 -57 101 -83 280
-102 61 -6 142 -18 180 -26 68 -14 610 -35 722 -27 531 37 668 58 719 109 14
14 24 36 24 52 0 31 -39 79 -75 93 -47 18 -266 70 -297 71 -49 1 -148 23 -156
35 -6 10 -256 15 -322 7z"/>
<path d="M10313 15966 c-28 -24 -102 -151 -118 -203 -6 -22 -4 -23 44 -23 34
0 51 4 51 13 0 22 50 120 58 113 4 -4 9 -35 12 -69 l5 -62 43 -3 42 -3 -6 58
c-8 83 -42 193 -58 193 -8 0 -21 2 -29 6 -8 3 -28 -6 -44 -20z"/>
<path d="M8100 13751 c0 -13 10 -20 31 -25 68 -13 80 0 24 27 -45 22 -55 21
-55 -2z"/>
<path d="M3051 8128 c-37 -119 -38 -351 -1 -554 30 -168 89 -251 213 -303 128
-52 167 -56 577 -54 398 2 593 15 623 41 23 20 22 52 -8 166 -14 53 -25 116
-25 140 0 81 -30 198 -63 248 -18 26 -37 48 -43 48 -12 0 -24 -66 -24 -130 0
-37 -1 -38 -41 -42 -23 -2 -42 1 -44 7 -18 67 -79 185 -95 185 -4 0 0 -44 7
-97 15 -108 13 -113 -44 -113 -28 0 -32 4 -38 33 -17 86 -74 227 -92 227 -7 0
6 -158 17 -206 14 -59 13 -64 -21 -64 -34 0 -47 22 -69 120 -13 56 -38 115
-46 108 -2 -3 3 -53 11 -112 8 -59 13 -112 10 -117 -4 -5 -17 -9 -30 -9 -21 0
-27 10 -50 83 -15 45 -36 98 -48 117 l-22 35 -3 -26 c-2 -15 4 -66 12 -115 9
-49 12 -91 8 -95 -12 -12 -63 3 -69 20 -3 9 -28 73 -55 144 -68 173 -78 171
-51 -13 8 -58 19 -113 24 -122 11 -22 -3 -31 -33 -19 -17 6 -30 25 -42 58 -60
162 -99 243 -118 243 -15 0 -7 -42 27 -147 43 -132 44 -145 8 -141 -35 4 -38
10 -135 271 -18 46 -25 30 -17 -38 10 -77 27 -145 41 -163 17 -20 0 -27 -28
-12 -50 27 -100 142 -130 300 -18 95 -34 136 -45 118 -7 -10 -9 -10 -9 0 0 25
-29 11 -39 -20z"/>
<path d="M13922 8344 c-29 -27 -39 -91 -52 -309 -11 -200 -34 -312 -63 -303
-23 8 -39 84 -44 213 -5 151 -10 186 -24 164 -32 -50 -44 -128 -44 -289 0
-178 8 -218 52 -270 31 -37 72 -39 133 -7 86 45 130 179 130 395 0 142 -13
228 -40 264 -19 26 -22 59 -7 74 11 12 8 59 -5 75 -11 14 -16 13 -36 -7z"/>
<path d="M16856 7600 c-3 -25 -8 -73 -11 -108 -9 -98 -37 -143 -51 -84 -8 29
-44 81 -58 81 -4 1 -6 -6 -2 -14 3 -8 2 -15 -2 -15 -13 0 -14 -88 -2 -146 10
-49 10 -56 -9 -80 -15 -19 -22 -22 -25 -13 -3 8 -15 43 -26 79 -12 36 -33 83
-48 105 l-27 40 -3 -70 c-2 -42 3 -98 13 -139 18 -74 14 -86 -32 -86 -24 0
-39 40 -70 188 -10 45 -21 82 -25 82 -11 0 -11 -4 -8 -156 l2 -131 -29 -5 -30
-4 -44 140 -44 141 -8 -49 c-5 -34 -3 -72 8 -123 22 -110 21 -123 -13 -123
-28 0 -29 2 -51 98 -12 53 -30 115 -40 137 l-18 40 -8 -39 c-5 -24 -2 -77 7
-137 15 -104 13 -114 -29 -98 -25 9 -35 41 -54 164 -6 44 -18 87 -27 95 -13
13 -14 3 -9 -95 4 -60 9 -125 13 -142 6 -32 6 -33 -29 -33 -32 0 -35 3 -41 38
-16 87 -59 231 -68 225 -6 -3 -9 -58 -7 -136 4 -130 4 -130 -19 -132 -13 -1
-25 1 -27 4 -2 4 -13 60 -25 126 -12 66 -28 131 -36 145 -14 22 -14 10 -9
-121 5 -145 5 -147 -16 -152 -34 -9 -39 -1 -39 66 0 74 -17 182 -32 211 -16
29 -18 17 -26 -135 -7 -130 -8 -134 -30 -134 -21 0 -22 3 -25 110 -2 61 -8
119 -14 129 -10 18 -12 16 -22 -20 -6 -21 -11 -76 -11 -121 0 -46 -4 -83 -9
-83 -4 0 -21 10 -36 22 -26 21 -27 24 -22 86 4 36 15 83 26 104 20 41 11 52
-13 16 -17 -26 -77 -214 -96 -299 -8 -34 -10 -78 -6 -111 10 -78 25 -84 301
-122 265 -38 732 -38 868 -2 138 38 213 103 248 215 32 104 52 247 53 371 0
131 -7 175 -29 166 -11 -4 -15 2 -15 17 0 13 -6 32 -14 42 -13 18 -15 16 -20
-25z"/>
<path d="M15745 7568 c-27 -14 -75 -60 -75 -70 0 -19 31 -5 69 31 52 50 54 66
6 39z"/>
</g>
</svg>
